<?xml version="1.0" encoding="utf-8"?>
<svg version="1.1" xmlns="http://www.w3.org/2000/svg" xmlns:xlink="http://www.w3.org/1999/xlink" x="0px" y="0px"
	 viewBox="0 0 29 29" style="enable-background:new 0 0 29 29;" xml:space="preserve">
<path fill="#239AE8" d="M22.8,26.2V12.4H6.2v13.8H22.8 M22.8,9.7c1.5,0,2.8,1.2,2.8,2.8v13.8c0,1.5-1.2,2.8-2.8,2.8H6.2
	c-1.5,0-2.8-1.2-2.8-2.8V12.4c0-1.5,1.2-2.8,2.8-2.8h1.4V6.9c0-3.9,3-6.9,6.9-6.9s6.9,3,6.9,6.9v2.8H22.8 M14.5,2.8
	c-2.3,0-4.1,1.8-4.1,4.1v2.8h8.3V6.9C18.6,4.6,16.8,2.8,14.5,2.8z"/>
</svg>
