<?xml version="1.0" encoding="utf-8"?>
<!-- Generator: Adobe Illustrator 21.0.2, SVG Export Plug-In . SVG Version: 6.00 Build 0)  -->
<svg version="1.1" id="Layer_1" xmlns="http://www.w3.org/2000/svg" xmlns:xlink="http://www.w3.org/1999/xlink" x="0px" y="0px"
	 viewBox="0 0 29 29" style="enable-background:new 0 0 29 29;" xml:space="preserve">
<path fill="#239AE8" d="M8.5,9V7c0-3.3,2.7-6,6-6s6,2.7,6,6v2c0.3,0,0.7,0,1,0.1V7c0-3.8-3.2-7-7-7s-7,3.2-7,7v2.1C7.8,9.1,8.2,9,8.5,9
	z"/>
<path fill="#239AE8" d="M20.4,10c2.3,0,4.1,1.8,4.1,4.1v9.8c0,2.3-1.8,4.1-4.1,4.1H8.6c-2.3,0-4.1-1.8-4.1-4.1v-9.8
	c0-2.3,1.8-4.1,4.1-4.1H20.4 M20.4,9H8.6c-2.8,0-5.1,2.3-5.1,5.1v9.8c0,2.8,2.3,5.1,5.1,5.1h11.8c2.8,0,5.1-2.3,5.1-5.1v-9.8
	C25.5,11.3,23.2,9,20.4,9L20.4,9z"/>
</svg>
