<?xml version="1.0" encoding="utf-8"?>
<!-- Generator: Adobe Illustrator 21.0.2, SVG Export Plug-In . SVG Version: 6.00 Build 0)  -->
<svg version="1.1" id="Layer_1" xmlns="http://www.w3.org/2000/svg" xmlns:xlink="http://www.w3.org/1999/xlink" x="0px" y="0px"
	 viewBox="0 0 29 29" style="enable-background:new 0 0 29 29;" xml:space="preserve">
<path fill="#4b738d" d="M29,5.3v11.4c0,2.4-1.6,4.4-3.8,5.1c0.1-0.3,0.1-0.6,0.2-0.8c1.6-0.7,2.8-2.3,2.8-4.2V5.3c0-2.5-2-4.6-4.6-4.6
	H12.3c-1.9,0-3.5,1.2-4.2,2.8c-0.3,0-0.6,0.1-0.8,0.2C7.9,1.6,9.9,0,12.3,0h11.4C26.6,0,29,2.4,29,5.3z M20.2,3.5H8.8
	c-2.4,0-4.4,1.6-5.1,3.8C4,7.2,4.3,7.1,4.6,7.1c0.7-1.6,2.3-2.8,4.2-2.8h11.4c2.5,0,4.6,2,4.6,4.6v11.4c0,1.9-1.2,3.5-2.8,4.2
	c0,0.3-0.1,0.6-0.2,0.8c2.2-0.7,3.8-2.7,3.8-5.1V8.8C25.5,5.9,23.1,3.5,20.2,3.5z M16.7,7.8H5.3c-2.5,0-4.6,2-4.6,4.6v11.4
	c0,2.5,2,4.6,4.6,4.6h11.4c2.5,0,4.6-2,4.6-4.6V12.3C21.2,9.8,19.2,7.8,16.7,7.8 M16.7,7c2.9,0,5.3,2.4,5.3,5.3v11.4
	c0,2.9-2.4,5.3-5.3,5.3H5.3C2.4,29,0,26.6,0,23.7V12.3C0,9.4,2.4,7,5.3,7H16.7L16.7,7z"/>
</svg>
