<?xml version="1.0" encoding="utf-8"?>
<svg version="1.1" xmlns="http://www.w3.org/2000/svg" xmlns:xlink="http://www.w3.org/1999/xlink" x="0px" y="0px"
	 viewBox="0 0 29 29" style="enable-background:new 0 0 29 29;" xml:space="preserve">
<path fill="#239AE8" d="M29,5v11c0,2.4-1.8,4.5-4.1,4.9C25,20.6,25,20.3,25,20v-1.2c1.2-0.4,2-1.5,2-2.8V5c0-1.7-1.3-3-3-3H13
	c-1.3,0-2.4,0.8-2.8,2H9C8.7,4,8.4,4,8.1,4.1C8.5,1.8,10.6,0,13,0h11C26.8,0,29,2.3,29,5z M20,4H9C6.6,4,4.5,5.8,4.1,8.1
	C4.4,8,4.7,8,5,8h1.2C6.6,6.8,7.7,6,9,6h11c1.7,0,3,1.3,3,3v11c0,1.3-0.8,2.4-2,2.8V24c0,0.3,0,0.6-0.1,0.9c2.3-0.4,4.1-2.5,4.1-4.9
	V9C25,6.3,22.8,4,20,4z M16,10H5c-1.7,0-3,1.3-3,3v11c0,1.7,1.3,3,3,3h11c1.7,0,3-1.3,3-3V13C19,11.3,17.7,10,16,10 M16,8
	c2.8,0,5,2.3,5,5v11c0,2.8-2.3,5-5,5H5c-2.8,0-5-2.3-5-5V13c0-2.8,2.3-5,5-5H16L16,8z"/>
</svg>
