<?xml version="1.0" encoding="utf-8"?>
<!-- Generator: Adobe Illustrator 21.0.2, SVG Export Plug-In . SVG Version: 6.00 Build 0)  -->
<svg version="1.1" id="Layer_1" xmlns="http://www.w3.org/2000/svg" xmlns:xlink="http://www.w3.org/1999/xlink" x="0px" y="0px"
	 viewBox="0 0 29 29" style="enable-background:new 0 0 29 29;" xml:space="preserve">
<path fill="#239AE8" d="M22,1c3.3,0,6,2.7,6,6v15c0,3.3-2.7,6-6,6H7c-3.3,0-6-2.7-6-6V7c0-3.3,2.7-6,6-6H22 M22,0H7C3.2,0,0,3.1,0,7v15
	c0,3.9,3.2,7,7,7h15c3.9,0,7-3.1,7-7V7C29,3.1,25.9,0,22,0L22,0z"/>
</svg>
