<?xml version="1.0" encoding="utf-8"?>
<svg version="1.1" xmlns="http://www.w3.org/2000/svg" xmlns:xlink="http://www.w3.org/1999/xlink" x="0px" y="0px"
	 viewBox="0 0 29 29" style="enable-background:new 0 0 29 29;" xml:space="preserve">
<path fill="#239AE8" d="M22.1,2.8c2.3,0,4.1,1.8,4.1,4.1v15.2c0,2.3-1.8,4.1-4.1,4.1H6.9c-2.3,0-4.1-1.8-4.1-4.1V6.9
	c0-2.3,1.8-4.1,4.1-4.1L22.1,2.8 M22.1,0H6.9C3,0,0,3.2,0,6.9v15.2C0,26,3.2,29,6.9,29h15.2c3.9,0,6.9-3.2,6.9-6.9V6.9
	C29,3,25.8,0,22.1,0L22.1,0z"/>
</svg>
