<svg xmlns="http://www.w3.org/2000/svg" data-name="Layer 1" viewBox="0 0 100 125" x="0px" y="0px">
  <defs>
    <style>
      .cls-1,.cls-2{fill:none;stroke:#000;stroke-width:2px;}.cls-1{stroke-miterlimit:10;}.cls-2{stroke-linecap:round;stroke-linejoin:round;}
    </style>
  </defs>
  <title>Virtual Server</title>
  <path class="cls-1"
        d="M69.78,33.61,52,23.32a4.81,4.81,0,0,0-4.81,0L29.35,33.61a5.85,5.85,0,0,0-2.92,5.06v27a5.85,5.85,0,0,0,2.92,5.06L47.16,81A4.81,4.81,0,0,0,52,81L69.78,70.7a5.85,5.85,0,0,0,2.92-5.06v-27A5.85,5.85,0,0,0,69.78,33.61Z"/>
  <path class="cls-2" d="M42.53,45.29l4.13,2.38a5.85,5.85,0,0,0,5.85,0l4.09-2.36"/>
  <path class="cls-2" d="M27.12,35.92,46.66,47.67a5.85,5.85,0,0,1,2.92,5.06V64.46"/>
  <path class="cls-2" d="M72.24,36.38,52.51,47.67a5.85,5.85,0,0,0-2.92,5.06l0,28.9"/>
  <path class="cls-1"
        d="M63.08,38.6l-11.9-6.87a3.21,3.21,0,0,0-3.21,0L36.05,38.6a3.91,3.91,0,0,0-2,3.38V62.33a3.91,3.91,0,0,0,2,3.38L48,72.59a3.21,3.21,0,0,0,3.21,0l11.9-6.87a3.91,3.91,0,0,0,2-3.38V42A3.91,3.91,0,0,0,63.08,38.6Z"/>
  <line class="cls-2" x1="34.1" y1="57.39" x2="49.26" y2="66.39"/>
  <line class="cls-2" x1="34.1" y1="48.46" x2="49.26" y2="57.39"/>
</svg>