
<svg width="17px" height="22px" viewBox="1877 26 17 22" version="1.1" xmlns="http://www.w3.org/2000/svg" xmlns:xlink="http://www.w3.org/1999/xlink">
    <!-- Generator: Sketch 40.3 (33839) - http://www.bohemiancoding.com/sketch -->
    <desc>Created with Sketch.</desc>
    <defs></defs>
    <path d="M1885.5,47.4375 C1886.6,47.4375 1887.5,46.509375 1887.5,45.375 L1883.5,45.375 C1883.5,46.509375 1884.4,47.4375 1885.5,47.4375 L1885.5,47.4375 Z M1892,41.25 L1892,35.578125 C1892,32.4121875 1889.87,29.761875 1887,29.060625 L1887,28.359375 C1887,27.5034375 1886.33,26.8125 1885.5,26.8125 C1884.67,26.8125 1884,27.5034375 1884,28.359375 L1884,29.060625 C1881.13,29.761875 1879,32.4121875 1879,35.578125 L1879,41.25 L1877,43.3125 L1877,44.34375 L1894,44.34375 L1894,43.3125 L1892,41.25 L1892,41.25 Z M1890,42.28125 L1881,42.28125 L1881,35.578125 C1881,33.0103125 1883.01,30.9375 1885.5,30.9375 C1887.99,30.9375 1890,33.0103125 1890,35.578125 L1890,42.28125 L1890,42.28125 Z" id="Shape" stroke="none" fill="#00D46A" fill-rule="evenodd"></path>
</svg>