
<svg width="10px" height="6px" viewBox="0 0 22 22" version="1.1" xmlns="http://www.w3.org/2000/svg" xmlns:xlink="http://www.w3.org/1999/xlink">
    <!-- Generator: Sketch 41 (35326) - http://www.bohemiancoding.com/sketch -->
    <desc>Created with Sketch.</desc>
    <defs></defs>
    <path d="M8.24962543,1.375437 L1.37443814,1.375437 L1.37443814,8.25062429 L8.24962543,8.25062429 L8.24962543,1.375437 Z M8.24962543,9.62506243 L1.37443814,9.62506243 C0.615300795,9.62506243 0,9.00976163 0,8.25062429 L0,1.375437 C0,0.616299659 0.615300795,0 1.37443814,0 L8.24962543,0 C9.00876277,0 9.62506243,0.616299659 9.62506243,1.375437 L9.62506243,8.25062429 C9.62506243,9.00976163 9.00876277,9.62506243 8.24962543,9.62506243 L8.24962543,9.62506243 Z M8.24962543,13.7503746 L1.37443814,13.7503746 L1.37443814,20.6255619 L8.24962543,20.6255619 L8.24962543,13.7503746 Z M8.24962543,22 L1.37443814,22 C0.615300795,22 0,21.3846992 0,20.6255619 L0,13.7503746 C0,12.9902384 0.615300795,12.3749376 1.37443814,12.3749376 L8.24962543,12.3749376 C9.00876277,12.3749376 9.62506243,12.9902384 9.62506243,13.7503746 L9.62506243,20.6255619 C9.62506243,21.3846992 9.00876277,22 8.24962543,22 L8.24962543,22 Z M20.624563,1.375437 L13.7493757,1.375437 L13.7493757,8.25062429 L20.624563,8.25062429 L20.624563,1.375437 Z M20.624563,9.62506243 L13.7493757,9.62506243 C12.9902384,9.62506243 12.3749376,9.00976163 12.3749376,8.25062429 L12.3749376,1.375437 C12.3749376,0.616299659 12.9902384,0 13.7493757,0 L20.624563,0 C21.3837003,0 22,0.616299659 22,1.375437 L22,8.25062429 C22,9.00976163 21.3837003,9.62506243 20.624563,9.62506243 L20.624563,9.62506243 Z M20.624563,13.7503746 L13.7493757,13.7503746 L13.7493757,20.6255619 L20.624563,20.6255619 L20.624563,13.7503746 Z M20.624563,22 L13.7493757,22 C12.9902384,22 12.3749376,21.3846992 12.3749376,20.6255619 L12.3749376,13.7503746 C12.3749376,12.9902384 12.9902384,12.3749376 13.7493757,12.3749376 L20.624563,12.3749376 C21.3837003,12.3749376 22,12.9902384 22,13.7503746 L22,20.6255619 C22,21.3846992 21.3837003,22 20.624563,22 L20.624563,22 Z" id="Icon" stroke="none" fill="#C0C4CA" fill-rule="evenodd"></path>
</svg>