
<svg width="10px" height="6px" viewBox="0 0 22 22" version="1.1" xmlns="http://www.w3.org/2000/svg" xmlns:xlink="http://www.w3.org/1999/xlink">
    <!-- Generator: Sketch 41 (35326) - http://www.bohemiancoding.com/sketch -->
    <desc>Created with Sketch.</desc>
    <defs>
        <path d="M0,3 L0,1 C0,0.72 0.0886111111,0.483333333 0.265833333,0.29 C0.443055556,0.0973333333 0.66,0 0.916666667,0 L21.0833333,0 C21.34,0 21.5569444,0.0973333333 21.7347778,0.29 C21.9113889,0.483333333 22,0.72 22,1 L22,3 C22,3.26666667 21.9113889,3.5 21.7347778,3.7 C21.5569444,3.9 21.34,4 21.0833333,4 L0.916666667,4 C0.66,4 0.443055556,3.9 0.265833333,3.7 C0.0886111111,3.5 0,3.26666667 0,3 C0,3 0,3.26666667 0,3 L0,3 L0,3 Z M0,9 L0,7 C0,6.72 0.0886111111,6.48333333 0.265833333,6.29 C0.443055556,6.09733333 0.66,6 0.916666667,6 L21.0833333,6 C21.34,6 21.5569444,6.09733333 21.7347778,6.29 C21.9113889,6.48333333 22,6.72 22,7 L22,9 C22,9.26666667 21.9113889,9.5 21.7347778,9.7 C21.5569444,9.9 21.34,10 21.0833333,10 L0.916666667,10 C0.66,10 0.443055556,9.9 0.265833333,9.7 C0.0886111111,9.5 0,9.26666667 0,9 C0,9 0,9.26666667 0,9 L0,9 L0,9 Z M0,15 L0,13 C0,12.72 0.0886111111,12.4833333 0.265833333,12.29 C0.443055556,12.0973333 0.66,12 0.916666667,12 L21.0833333,12 C21.34,12 21.5569444,12.0973333 21.7347778,12.29 C21.9113889,12.4833333 22,12.72 22,13 L22,15 C22,15.2666667 21.9113889,15.5 21.7347778,15.7 C21.5569444,15.9 21.34,16 21.0833333,16 L0.916666667,16 C0.66,16 0.443055556,15.9 0.265833333,15.7 C0.0886111111,15.5 0,15.2666667 0,15 C0,15 0,15.2666667 0,15 L0,15 L0,15 Z M0,21 L0,19 C0,18.72 0.0886111111,18.4833333 0.265833333,18.29 C0.443055556,18.0973333 0.66,18 0.916666667,18 L21.0833333,18 C21.34,18 21.5569444,18.0973333 21.7347778,18.29 C21.9113889,18.4833333 22,18.72 22,19 L22,21 C22,21.2666667 21.9113889,21.5 21.7347778,21.7 C21.5569444,21.9 21.34,22 21.0833333,22 L0.916666667,22 C0.66,22 0.443055556,21.9 0.265833333,21.7 C0.0886111111,21.5 0,21.2666667 0,21 L0,21 Z" id="path-1"></path>
        <mask id="mask-2" maskContentUnits="userSpaceOnUse" maskUnits="objectBoundingBox" x="0" y="0" width="22" height="22" fill="white">
            <use xlink:href="#path-1"></use>
        </mask>
    </defs>
    <use id="Fill-58" stroke="#C0C4CA" mask="url(#mask-2)" stroke-width="2" fill="none" xlink:href="#path-1"></use>
</svg>