
<svg width="22px" height="22px" viewBox="0 0 22 22" version="1.1" xmlns="http://www.w3.org/2000/svg" xmlns:xlink="http://www.w3.org/1999/xlink">
    <!-- Generator: Sketch 41 (35326) - http://www.bohemiancoding.com/sketch -->
    <desc>Created with Sketch.</desc>
    <defs></defs>
    <path d="M1,1.0093689 L1,2.9906311 C1,3.00162919 0.998372426,3 1.00246167,3 L20.9975383,3 C21.0020173,3 21,3.00204438 21,2.9906311 L21,1.0093689 C21,0.998370808 21.0016276,1 20.9975383,1 L1.00246167,1 C0.997982702,1 1,0.997955618 1,1.0093689 Z M0,1.0093689 C0,0.451909848 0.43945834,0 1.00246167,0 L20.9975383,0 C21.5511826,0 22,0.443353176 22,1.0093689 L22,2.9906311 C22,3.54809015 21.5605417,4 20.9975383,4 L1.00246167,4 C0.448817378,4 0,3.55664682 0,2.9906311 L0,1.0093689 Z" id="Rectangle-10" stroke="none" fill="#C0C4CA" fill-rule="evenodd"></path>
    <path d="M1,7.0093689 L1,8.9906311 C1,9.00162919 0.998372426,9 1.00246167,9 L20.9975383,9 C21.0020173,9 21,9.00204438 21,8.9906311 L21,7.0093689 C21,6.99837081 21.0016276,7 20.9975383,7 L1.00246167,7 C0.997982702,7 1,6.99795562 1,7.0093689 Z M0,7.0093689 C0,6.45190985 0.43945834,6 1.00246167,6 L20.9975383,6 C21.5511826,6 22,6.44335318 22,7.0093689 L22,8.9906311 C22,9.54809015 21.5605417,10 20.9975383,10 L1.00246167,10 C0.448817378,10 0,9.55664682 0,8.9906311 L0,7.0093689 Z" id="Rectangle-10-Copy" stroke="none" fill="#C0C4CA" fill-rule="evenodd"></path>
    <path d="M1,13.0093689 L1,14.9906311 C1,15.0016292 0.998372426,15 1.00246167,15 L20.9975383,15 C21.0020173,15 21,15.0020444 21,14.9906311 L21,13.0093689 C21,12.9983708 21.0016276,13 20.9975383,13 L1.00246167,13 C0.997982702,13 1,12.9979556 1,13.0093689 Z M0,13.0093689 C0,12.4519098 0.43945834,12 1.00246167,12 L20.9975383,12 C21.5511826,12 22,12.4433532 22,13.0093689 L22,14.9906311 C22,15.5480902 21.5605417,16 20.9975383,16 L1.00246167,16 C0.448817378,16 0,15.5566468 0,14.9906311 L0,13.0093689 Z" id="Rectangle-10-Copy-2" stroke="none" fill="#C0C4CA" fill-rule="evenodd"></path>
    <path d="M1,19.0093689 L1,20.9906311 C1,21.0016292 0.998372426,21 1.00246167,21 L20.9975383,21 C21.0020173,21 21,21.0020444 21,20.9906311 L21,19.0093689 C21,18.9983708 21.0016276,19 20.9975383,19 L1.00246167,19 C0.997982702,19 1,18.9979556 1,19.0093689 Z M0,19.0093689 C0,18.4519098 0.43945834,18 1.00246167,18 L20.9975383,18 C21.5511826,18 22,18.4433532 22,19.0093689 L22,20.9906311 C22,21.5480902 21.5605417,22 20.9975383,22 L1.00246167,22 C0.448817378,22 0,21.5566468 0,20.9906311 L0,19.0093689 Z" id="Rectangle-10-Copy-3" stroke="none" fill="#C0C4CA" fill-rule="evenodd"></path>
</svg>