
<svg width="22px" height="22px" viewBox="0 0 22 22" version="1.1" xmlns="http://www.w3.org/2000/svg" xmlns:xlink="http://www.w3.org/1999/xlink">
    <!-- Generator: Sketch 40.3 (33839) - http://www.bohemiancoding.com/sketch -->
    <desc>Created with Sketch.</desc>
    <defs></defs>
    <path d="M11.3581151,10.3125 L10.0218662,10.3125 L6.01311974,10.3125 C5.64374238,10.3125 5.34499532,10.6199107 5.34499532,11 C5.34499532,11.3800893 5.64374238,11.6875 6.01311974,11.6875 L10.0218662,11.6875 L11.3581151,11.6875 L15.3668616,11.6875 C15.7362389,11.6875 16.034986,11.3800893 16.034986,11 C16.034986,10.6199107 15.7362389,10.3125 15.3668616,10.3125 L11.3581151,10.3125 Z M10.6899906,20.6466071 C5.53207016,20.6466071 1.33624883,16.3075 1.33624883,11 C1.33624883,5.6925 5.53207016,1.375 10.6899906,1.375 C15.8479111,1.375 20.0437325,5.6925 20.0437325,11 C20.0437325,16.3075 15.8479111,20.6466071 10.6899906,20.6466071 M10.6899906,0 C4.7866342,0 0,4.92544643 0,11 C0,17.0755357 4.7866342,22 10.6899906,22 C16.5943016,22 21.3799813,17.0755357 21.3799813,11 C21.3799813,4.92544643 16.5943016,0 10.6899906,0" id="Icon" stroke="none" fill="#389BFF" fill-rule="evenodd"></path>
</svg>