
<svg width="12px" height="12px" viewBox="5 5 12 12" version="1.1" xmlns="http://www.w3.org/2000/svg" xmlns:xlink="http://www.w3.org/1999/xlink">
    <!-- Generator: Sketch 41 (35326) - http://www.bohemiancoding.com/sketch -->
    <desc>Created with Sketch.</desc>
    <defs></defs>
    <path d="M15.8125,10.3125 L11.6875,10.3125 L11.6875,6.1875 C11.6875,5.80839286 11.3800893,5.5 11,5.5 C10.6208929,5.5 10.3125,5.80839286 10.3125,6.1875 L10.3125,10.3125 L6.1875,10.3125 C5.80741071,10.3125 5.5,10.6199107 5.5,11 C5.5,11.3800893 5.80741071,11.6875 6.1875,11.6875 L10.3125,11.6875 L10.3125,15.8125 C10.3125,16.1925893 10.6208929,16.5 11,16.5 C11.3800893,16.5 11.6875,16.1925893 11.6875,15.8125 L11.6875,11.6875 L15.8125,11.6875 C16.1925893,11.6875 16.5,11.3800893 16.5,11 C16.5,10.6199107 16.1925893,10.3125 15.8125,10.3125" id="Icon" stroke="none" fill="#00D46A" fill-rule="evenodd"></path>
</svg>