
<svg width="22px" height="22px" viewBox="0 0 22 22" version="1.1" xmlns="http://www.w3.org/2000/svg" xmlns:xlink="http://www.w3.org/1999/xlink">
    <!-- Generator: Sketch 40.3 (33839) - http://www.bohemiancoding.com/sketch -->
    <desc>Created with Sketch.</desc>
    <defs></defs>
    <path d="M15.8125,10.3125 L11.6875,10.3125 L11.6875,6.1875 C11.6875,5.80839286 11.3800893,5.5 11,5.5 C10.6208929,5.5 10.3125,5.80839286 10.3125,6.1875 L10.3125,10.3125 L6.1875,10.3125 C5.80741071,10.3125 5.5,10.6199107 5.5,11 C5.5,11.3800893 5.80741071,11.6875 6.1875,11.6875 L10.3125,11.6875 L10.3125,15.8125 C10.3125,16.1925893 10.6208929,16.5 11,16.5 C11.3800893,16.5 11.6875,16.1925893 11.6875,15.8125 L11.6875,11.6875 L15.8125,11.6875 C16.1925893,11.6875 16.5,11.3800893 16.5,11 C16.5,10.6199107 16.1925893,10.3125 15.8125,10.3125 M11,20.6466071 C5.6925,20.6466071 1.375,16.3075 1.375,11 C1.375,5.6925 5.6925,1.375 11,1.375 C16.3075,1.375 20.625,5.6925 20.625,11 C20.625,16.3075 16.3075,20.6466071 11,20.6466071 M11,0 C4.92544643,0 0,4.92544643 0,11 C0,17.0755357 4.92544643,22 11,22 C17.0755357,22 22,17.0755357 22,11 C22,4.92544643 17.0755357,0 11,0" id="Icon" stroke="none" fill="#389BFF" fill-rule="evenodd"></path>
</svg>