
<svg width="11px" height="11px" viewBox="-1 -1 11 11" version="1.1" xmlns="http://www.w3.org/2000/svg" xmlns:xlink="http://www.w3.org/1999/xlink">
    <!-- Generator: Sketch 41 (35326) - http://www.bohemiancoding.com/sketch -->
    <desc>Created with Sketch.</desc>
    <defs></defs>
    <path d="M9.375,4.375 L5.625,4.375 L5.625,0.625 C5.625,0.280357143 5.34553571,-8.8817842e-16 5,-8.8817842e-16 C4.65535714,-8.8817842e-16 4.375,0.280357143 4.375,0.625 L4.375,4.375 L0.625,4.375 C0.279464286,4.375 -8.8817842e-16,4.65446429 -8.8817842e-16,5 C-8.8817842e-16,5.34553571 0.279464286,5.625 0.625,5.625 L4.375,5.625 L4.375,9.375 C4.375,9.72053571 4.65535714,10 5,10 C5.34553571,10 5.625,9.72053571 5.625,9.375 L5.625,5.625 L9.375,5.625 C9.72053571,5.625 10,5.34553571 10,5 C10,4.65446429 9.72053571,4.375 9.375,4.375" id="Icon" stroke="none" fill="#00D46A" fill-rule="evenodd"></path>
</svg>