
<svg width="22px" height="22px" viewBox="0 0 22 22" version="1.1" xmlns="http://www.w3.org/2000/svg" xmlns:xlink="http://www.w3.org/1999/xlink">
    <!-- Generator: Sketch 41 (35326) - http://www.bohemiancoding.com/sketch -->
    <desc>Created with Sketch.</desc>
    <defs></defs>
    <path d="M15.375,10.375 L11.625,10.375 L11.625,6.625 C11.625,6.28035714 11.3455357,6 11,6 C10.6553571,6 10.375,6.28035714 10.375,6.625 L10.375,10.375 L6.625,10.375 C6.27946429,10.375 6,10.6544643 6,11 C6,11.3455357 6.27946429,11.625 6.625,11.625 L10.375,11.625 L10.375,15.375 C10.375,15.7205357 10.6553571,16 11,16 C11.3455357,16 11.625,15.7205357 11.625,15.375 L11.625,11.625 L15.375,11.625 C15.7205357,11.625 16,11.3455357 16,11 C16,10.6544643 15.7205357,10.375 15.375,10.375" id="Path" stroke="none" fill="#00D46A" fill-rule="evenodd"></path>
    <path d="M11,21 C16.5228475,21 21,16.5228475 21,11 C21,5.4771525 16.5228475,1 11,1 C5.4771525,1 1,5.4771525 1,11 C1,16.5228475 5.4771525,21 11,21 Z M11,22 C4.92486775,22 0,17.0751322 0,11 C0,4.92486775 4.92486775,0 11,0 C17.0751322,0 22,4.92486775 22,11 C22,17.0751322 17.0751322,22 11,22 Z" id="Oval-5" stroke="none" fill="#00D46A" fill-rule="evenodd"></path>
</svg>