
<svg width="28px" height="28px" viewBox="0 0 28 28" version="1.1" xmlns="http://www.w3.org/2000/svg" xmlns:xlink="http://www.w3.org/1999/xlink">
    <!-- Generator: Sketch 41.2 (35397) - http://www.bohemiancoding.com/sketch -->
    <desc>Created with Sketch.</desc>
    <defs/>
    <path d="M11.9289773,7 C13.7954545,7 15.40625,8.37757437 16.1221591,10.395881 C16.5056818,10.0755149 16.9403409,9.88329519 17.4517045,9.88329519 C18.7301136,9.88329519 19.7528409,11.1327231 19.7784091,12.7025172 C21.59375,12.8947368 23,15.0732265 23,16.8352403 L23,17.2196796 C23,19.1098398 21.3636364,21 19.34375,21 L8.63068182,21 C6.61079545,21 5,19.1098398 5,17.2196796 L5,16.8352403 C5,15.3935927 5.97159091,13.4073227 7.32670455,12.9267735 L7.32670455,12.7665904 C7.32670455,9.56292906 9.37215909,7 11.9289773,7 L11.9289773,7 Z"
          id="Shape" stroke="#389BFF" stroke-width="1" fill="none"/>
    <path d="M14,26.7272727 C21.0290786,26.7272727 26.7272727,21.0290786 26.7272727,14 C26.7272727,6.97092137 21.0290786,1.27272727 14,1.27272727 C6.97092137,1.27272727 1.27272727,6.97092137 1.27272727,14 C1.27272727,21.0290786 6.97092137,26.7272727 14,26.7272727 Z M14,28 C6.2680135,28 0,21.7319865 0,14 C0,6.2680135 6.2680135,0 14,0 C21.7319865,0 28,6.2680135 28,14 C28,21.7319865 21.7319865,28 14,28 Z"
          id="Oval-5" stroke="none" fill="#389BFF" fill-rule="evenodd"/>
</svg>