
<svg width="23px" height="13px" viewBox="1392 24 23 13" version="1.1" xmlns="http://www.w3.org/2000/svg" xmlns:xlink="http://www.w3.org/1999/xlink">
    <!-- Generator: Sketch 40.3 (33839) - http://www.bohemiancoding.com/sketch -->
    <desc>Created with Sketch.</desc>
    <defs></defs>
    <path d="M1398.44704,31.6230146 L1397.70306,32.7776337 C1397.55051,33.0115073 1397.27122,33.1758509 1396.97082,33.1758509 L1392.85194,33.1758509 C1392.38255,33.1758509 1392,32.8324149 1392,32.4110211 C1392,31.9896272 1392.38255,31.6461912 1392.85194,31.6461912 L1396.485,31.6461912 L1398.10439,29.1894652 C1398.28276,28.9176661 1398.62776,28.7701783 1398.97745,28.8249595 C1399.3248,28.8776337 1399.59939,29.1157212 1399.67214,29.4233387 L1400.35745,32.3941653 L1401.91816,24.617342 C1401.99092,24.2528363 1402.34531,24 1402.75602,24 C1403.17378,24 1403.52816,24.2570502 1403.59622,24.6236629 L1405.26255,33.3528363 L1405.79765,32.1329011 C1405.92439,31.8400324 1406.23888,31.6461912 1406.58857,31.6461912 L1414.14806,31.6461912 C1414.61745,31.6461912 1415,31.9896272 1415,32.4110211 C1415,32.8324149 1414.6198,33.1758509 1414.14806,33.1758509 L1407.16827,33.1758509 L1405.72724,36.4479741 C1405.58643,36.7661264 1405.23204,36.9599676 1404.84714,36.928363 C1404.46929,36.8925446 1404.15949,36.6333874 1404.09612,36.2962723 L1402.73724,29.1641815 L1401.25398,36.4648298 C1401.18122,36.8251216 1400.83388,37 1400.42551,37 C1400.0101,37 1398.44704,31.6230146 1398.44704,31.6230146 Z" id="Shape" stroke="none" fill="#ACADB0" fill-rule="evenodd"></path>
</svg>