
<svg width="21px" height="21px" viewBox="0 0 21 21" version="1.1" xmlns="http://www.w3.org/2000/svg" xmlns:xlink="http://www.w3.org/1999/xlink">
    <!-- Generator: Sketch 40.3 (33839) - http://www.bohemiancoding.com/sketch -->
    <desc>Created with Sketch.</desc>
    <defs></defs>
    <path d="M14.2125,6.7875 C13.9565625,6.5315625 13.54125,6.5315625 13.284375,6.7875 L10.5,9.571875 L7.715625,6.7875 C7.4596875,6.5315625 7.044375,6.5315625 6.7884375,6.7875 C6.5315625,7.0434375 6.5315625,7.4596875 6.7884375,7.715625 L9.571875,10.5 L6.7884375,13.284375 C6.5315625,13.5403125 6.5315625,13.955625 6.7884375,14.2125 C7.044375,14.4684375 7.4596875,14.4684375 7.715625,14.2125 L10.5,11.428125 L13.284375,14.2125 C13.54125,14.4684375 13.9565625,14.4684375 14.2125,14.2125 C14.4684375,13.955625 14.4684375,13.5403125 14.2125,13.284375 L11.428125,10.5 L14.2125,7.715625 C14.4684375,7.4596875 14.4684375,7.0434375 14.2125,6.7875 M10.5,19.708125 C5.4346875,19.708125 1.3125,15.56625 1.3125,10.5 C1.3125,5.43375 5.4346875,1.3125 10.5,1.3125 C15.56625,1.3125 19.6875,5.43375 19.6875,10.5 C19.6875,15.56625 15.56625,19.708125 10.5,19.708125 M10.5,0 C4.7015625,0 0,4.700625 0,10.5 C0,16.299375 4.7015625,21 10.5,21 C16.299375,21 21,16.299375 21,10.5 C21,4.700625 16.299375,0 10.5,0" id="Icon" stroke="none" fill="#D41800" fill-rule="evenodd"></path>
</svg>