
<svg width="9px" height="9px" viewBox="6 6 9 9" version="1.1" xmlns="http://www.w3.org/2000/svg" xmlns:xlink="http://www.w3.org/1999/xlink">
    <!-- Generator: Sketch 41 (35326) - http://www.bohemiancoding.com/sketch -->
    <desc>Created with Sketch.</desc>
    <defs></defs>
    <path d="M14.2125,6.7875 C13.9565625,6.5315625 13.54125,6.5315625 13.284375,6.7875 L10.5,9.571875 L7.715625,6.7875 C7.4596875,6.5315625 7.044375,6.5315625 6.7884375,6.7875 C6.5315625,7.0434375 6.5315625,7.4596875 6.7884375,7.715625 L9.571875,10.5 L6.7884375,13.284375 C6.5315625,13.5403125 6.5315625,13.955625 6.7884375,14.2125 C7.044375,14.4684375 7.4596875,14.4684375 7.715625,14.2125 L10.5,11.428125 L13.284375,14.2125 C13.54125,14.4684375 13.9565625,14.4684375 14.2125,14.2125 C14.4684375,13.955625 14.4684375,13.5403125 14.2125,13.284375 L11.428125,10.5 L14.2125,7.715625 C14.4684375,7.4596875 14.4684375,7.0434375 14.2125,6.7875" id="Icon" stroke="none" fill="#D41800" fill-rule="evenodd"></path>
</svg>