
<svg width="15px" height="16px" viewBox="-3 -4 15 16" version="1.1" xmlns="http://www.w3.org/2000/svg" xmlns:xlink="http://www.w3.org/1999/xlink">
    <!-- Generator: Sketch 41 (35326) - http://www.bohemiancoding.com/sketch -->
    <desc>Created with Sketch.</desc>
    <defs></defs>
    <path d="M8.44606781,3.44606781 L4.69606781,3.44606781 L4.69606781,-0.303932188 C4.69606781,-0.648575045 4.41660353,-0.928932188 4.07106781,-0.928932188 C3.72642495,-0.928932188 3.44606781,-0.648575045 3.44606781,-0.303932188 L3.44606781,3.44606781 L-0.303932188,3.44606781 C-0.649467902,3.44606781 -0.928932188,3.7255321 -0.928932188,4.07106781 C-0.928932188,4.41660353 -0.649467902,4.69606781 -0.303932188,4.69606781 L3.44606781,4.69606781 L3.44606781,8.44606781 C3.44606781,8.79160353 3.72642495,9.07106781 4.07106781,9.07106781 C4.41660353,9.07106781 4.69606781,8.79160353 4.69606781,8.44606781 L4.69606781,4.69606781 L8.44606781,4.69606781 C8.79160353,4.69606781 9.07106781,4.41660353 9.07106781,4.07106781 C9.07106781,3.7255321 8.79160353,3.44606781 8.44606781,3.44606781" id="Icon" stroke="none" fill="#D0011B" fill-rule="evenodd" transform="translate(4.071068, 4.071068) rotate(45.000000) translate(-4.071068, -4.071068) "></path>
</svg>