
<svg width="42px" height="57px" viewBox="16 15 42 57" version="1.1" xmlns="http://www.w3.org/2000/svg" xmlns:xlink="http://www.w3.org/1999/xlink">
    <!-- Generator: Sketch 42 (36781) - http://www.bohemiancoding.com/sketch -->
    <desc>Created with Sketch.</desc>
    <defs></defs>
    <path d="M42.031189,15.9647905 C42.031189,15.9647905 42.9201497,16.2576218 42.9399,16.279133 L57.6481323,30.240328 L58,30.971659 L58,67.8021589 C58,70.0089413 56.2157607,71.8236706 54.0047607,71.8236706 L20.0312,71.823671 C17.8203,71.823671 16,70.0089439 16,67.8021614 L16,20.0173253 C16,17.81174 17.7891,15.9647905 20,15.9647905 L42.031189,15.9647905 Z M41.9672134,17.9910964 L20.0317,17.9911078 C18.9027,17.9911078 18.0005,18.891139 18.0005,20.0175249 L18.0005,67.810929 C18.0005,68.9398088 18.9027,69.8372463 20.0317,69.8372463 L53.9336661,69.8372455 C55.0628661,69.8372455 56,68.9398198 56,67.81094 L56,31.9574429 L45.9984134,31.9574425 C43.7879134,31.9574425 41.9672134,30.1422166 41.9672134,27.9359329 L41.9672134,17.9910964 Z M54,29.9311421 L44,19.9551751 L44.0637207,27.9392323 C44.0637207,29.066915 44.8705,29.9311366 46,29.9311366 L54,29.9311421 Z" id="icon" stroke="none" fill="#A88C62" fill-rule="evenodd"></path>
    <path d="M26.26,61.5753846 C26.26,61.8353859 26.2316669,62.1087165 26.175,62.3953846 C26.118333,62.6820527 26.0133341,62.9487167 25.86,63.1953846 C25.7066659,63.4420525 25.4900014,63.6453838 25.21,63.8053846 C24.9299986,63.9653854 24.5700022,64.0453846 24.13,64.0453846 C23.5566638,64.0453846 23.098335,63.9020527 22.755,63.6153846 C22.4116649,63.3287165 22.1766673,62.9520536 22.05,62.4853846 L23.21,62.1553846 C23.2700003,62.3887191 23.3799992,62.5737173 23.54,62.7103846 C23.7000008,62.847052 23.8899989,62.9153846 24.11,62.9153846 C24.2900009,62.9153846 24.4383327,62.8820516 24.555,62.8153846 C24.6716672,62.7487176 24.7616663,62.6537186 24.825,62.5303846 C24.8883336,62.4070507 24.9333332,62.2603855 24.96,62.0903846 C24.9866668,61.9203838 25,61.7353856 25,61.5353846 L25,56.7853846 L26.26,56.7853846 L26.26,61.5753846 Z M31.37,58.2653846 C31.236666,58.0920504 31.0483345,57.9470519 30.805,57.8303846 C30.5616654,57.7137174 30.3166679,57.6553846 30.07,57.6553846 C29.9233326,57.6553846 29.7766674,57.6737178 29.63,57.7103846 C29.4833326,57.7470515 29.3500006,57.8037176 29.23,57.8803846 C29.1099994,57.9570517 29.011667,58.0570507 28.935,58.1803846 C28.8583329,58.3037186 28.82,58.4520504 28.82,58.6253846 C28.82,58.7853854 28.853333,58.9220507 28.92,59.0353846 C28.986667,59.1487185 29.0783327,59.2453842 29.195,59.3253846 C29.3116672,59.405385 29.4533325,59.4753843 29.62,59.5353846 C29.7866675,59.5953849 29.969999,59.6553843 30.17,59.7153846 C30.3966678,59.7887183 30.6316654,59.8720508 30.875,59.9653846 C31.1183345,60.0587184 31.3416656,60.1820505 31.545,60.3353846 C31.7483343,60.4887187 31.9149993,60.6820501 32.045,60.9153846 C32.1750006,61.1487191 32.24,61.4387162 32.24,61.7853846 C32.24,62.1653865 32.1700007,62.4970499 32.03,62.7803846 C31.8899993,63.0637194 31.7033345,63.298717 31.47,63.4853846 C31.2366655,63.6720522 30.9633349,63.8120508 30.65,63.9053846 C30.3366651,63.9987184 30.0066684,64.0453846 29.66,64.0453846 C29.1999977,64.0453846 28.7500022,63.9603855 28.31,63.7903846 C27.8699978,63.6203838 27.5100014,63.3687196 27.23,63.0353846 L28.13,62.1953846 C28.3033342,62.4353858 28.5349985,62.6253839 28.825,62.7653846 C29.1150014,62.9053853 29.3999986,62.9753846 29.68,62.9753846 C29.8266674,62.9753846 29.9766659,62.9570515 30.13,62.9203846 C30.2833341,62.8837178 30.421666,62.8220517 30.545,62.7353846 C30.6683339,62.6487175 30.7683329,62.5403853 30.845,62.4103846 C30.921667,62.280384 30.96,62.1187189 30.96,61.9253846 C30.96,61.738717 30.9166671,61.5837186 30.83,61.4603846 C30.7433329,61.3370507 30.6266674,61.2303851 30.48,61.1403846 C30.3333326,61.0503842 30.160001,60.9720516 29.96,60.9053846 L29.33,60.6953846 C29.1166656,60.6287176 28.9033344,60.5487184 28.69,60.4553846 C28.4766656,60.3620508 28.2850008,60.2387187 28.115,60.0853846 C27.9449991,59.9320505 27.8066672,59.7437191 27.7,59.5203846 C27.5933328,59.2970502 27.54,59.0187196 27.54,58.6853846 C27.54,58.3253828 27.6149992,58.0153859 27.765,57.7553846 C27.9150007,57.4953833 28.1116654,57.2803855 28.355,57.1103846 C28.5983345,56.9403838 28.8749984,56.8137184 29.185,56.7303846 C29.4950015,56.6470509 29.8099984,56.6053846 30.13,56.6053846 C30.4900018,56.6053846 30.8549981,56.6687173 31.225,56.7953846 C31.5950018,56.9220519 31.9166653,57.11205 32.19,57.3653846 L31.37,58.2653846 Z" id="JS" stroke="none" fill="#AE8E6F" fill-rule="evenodd"></path>
</svg>