
<svg width="44px" height="57px" viewBox="15 15 44 57" version="1.1" xmlns="http://www.w3.org/2000/svg" xmlns:xlink="http://www.w3.org/1999/xlink">
    <!-- Generator: Sketch 42 (36781) - http://www.bohemiancoding.com/sketch -->
    <desc>Created with Sketch.</desc>
    <defs></defs>
    <path d="M42.031189,15.9647905 C42.031189,15.9647905 42.9201497,16.2576218 42.9399,16.279133 L57.6481323,30.240328 L58,30.971659 L58,67.8021589 C58,70.0089413 56.2157607,71.8236706 54.0047607,71.8236706 L20.0312,71.823671 C17.8203,71.823671 16,70.0089439 16,67.8021614 L16,20.0173253 C16,17.81174 17.7891,15.9647905 20,15.9647905 L42.031189,15.9647905 Z M41.9672134,17.9910964 L20.0317,17.9911078 C18.9027,17.9911078 18.0005,18.891139 18.0005,20.0175249 L18.0005,67.810929 C18.0005,68.9398088 18.9027,69.8372463 20.0317,69.8372463 L53.9336661,69.8372455 C55.0628661,69.8372455 56,68.9398198 56,67.81094 L56,31.9574429 L45.9984134,31.9574425 C43.7879134,31.9574425 41.9672134,30.1422166 41.9672134,27.9359329 L41.9672134,17.9910964 Z M54,29.9311421 L44,19.9551751 L44.0637207,27.9392323 C44.0637207,29.066915 44.8705,29.9311366 46,29.9311366 L54,29.9311421 Z" id="icon" stroke="none" fill="#00A843" fill-rule="evenodd"></path>
    <path d="M23.4,56.92 L27.97,56.92 L27.97,58.02 L24.66,58.02 L24.66,59.96 L27.78,59.96 L27.78,61.02 L24.66,61.02 L24.66,64 L23.4,64 L23.4,56.92 Z M29.13,56.92 L30.39,56.92 L30.39,64 L29.13,64 L29.13,56.92 Z M31.95,56.92 L33.21,56.92 L33.21,62.88 L36.22,62.88 L36.22,64 L31.95,64 L31.95,56.92 Z M37.06,56.92 L41.75,56.92 L41.75,58.02 L38.32,58.02 L38.32,59.82 L41.57,59.82 L41.57,60.88 L38.32,60.88 L38.32,62.88 L41.93,62.88 L41.93,64 L37.06,64 L37.06,56.92 Z" id="FILE" stroke="none" fill="#00A843" fill-rule="evenodd"></path>
</svg>