
<svg width="100px" height="78px" viewBox="66 23 100 78" version="1.1" xmlns="http://www.w3.org/2000/svg" xmlns:xlink="http://www.w3.org/1999/xlink">
    <!-- Generator: Sketch 42 (36781) - http://www.bohemiancoding.com/sketch -->
    <desc>Created with Sketch.</desc>
    <defs></defs>
    <g id="ms-icon" stroke="none" stroke-width="1" fill="none" fill-rule="evenodd" transform="translate(69.000000, 25.000000)">
        <polygon id="Polygon-Copy" stroke="#389BFF" stroke-width="3" points="62.1071429 0 75.8714286 6.71238938 75.8714286 20.1371681 62.1071429 26.8495575 48.3428571 20.1371681 48.3428571 6.71238938"></polygon>
        <polygon id="Polygon-Copy-2" stroke="#389BFF" stroke-width="3" fill="#389BFF" points="45.9928571 23.5752212 59.7571429 30.2876106 59.7571429 43.7123894 45.9928571 50.4247788 32.2285714 43.7123894 32.2285714 30.2876106"></polygon>
        <polygon id="Polygon-Copy-3" stroke="#389BFF" stroke-width="3" points="29.8785714 47.1504425 43.6428571 53.8628319 43.6428571 67.2876106 29.8785714 74 16.1142857 67.2876106 16.1142857 53.8628319"></polygon>
        <polygon id="Polygon-Copy-4" stroke="#389BFF" stroke-width="3" points="62.1071429 47.1504425 75.8714286 53.8628319 75.8714286 67.2876106 62.1071429 74 48.3428571 67.2876106 48.3428571 53.8628319"></polygon>
        <polygon id="Polygon-Copy-5" stroke="#389BFF" stroke-width="3" points="80.2357143 23.5752212 94 30.2876106 94 43.7123894 80.2357143 50.4247788 66.4714286 43.7123894 66.4714286 30.2876106"></polygon>
        <polygon id="Polygon-Copy-6" stroke="#389BFF" stroke-width="3" points="29.8785714 0 43.6428571 6.71238938 43.6428571 20.1371681 29.8785714 26.8495575 16.1142857 20.1371681 16.1142857 6.71238938"></polygon>
        <polygon id="Polygon-Copy-7" stroke="#389BFF" stroke-width="3" points="13.7642857 23.5752212 27.5285714 30.2876106 27.5285714 43.7123894 13.7642857 50.4247788 -5.99520433e-14 43.7123894 -6.88338275e-14 30.2876106"></polygon>
    </g>
</svg>