
<svg width="95px" height="75px" viewBox="0 0 95 75" version="1.1" xmlns="http://www.w3.org/2000/svg" xmlns:xlink="http://www.w3.org/1999/xlink">
    <!-- Generator: Sketch 42 (36781) - http://www.bohemiancoding.com/sketch -->
    <desc>Created with Sketch.</desc>
    <defs></defs>
    <path d="M70.6172414,31.76225 L70.6172414,11.958 L46.9762414,0.833333333 L23.6172414,11.83775 L23.6172414,31.8763333 L0.117241379,41.817 L0.117241379,64.0663333 L24.149908,74.8333333 L47.1172414,64.3715833 L70.0845747,74.8333333 L94.1172414,64.0663333 L94.1172414,41.93725 L70.6172414,31.76225 L70.6172414,31.76225 Z M66.1404914,31.87325 L49.2165747,39.2239167 L49.2165747,23.9429167 L66.1404914,16.1143333 L66.1404914,31.87325 Z M46.968408,5.01741667 L63.700408,13.02175 L46.9840747,20.7578333 L30.6280747,12.883 L46.968408,5.01741667 L46.968408,5.01741667 Z M7.12807471,42.86225 L25.841908,35.0614167 L42.4368247,42.5138333 L24.1538247,50.7370833 L7.12807471,42.86225 Z M26.3863247,53.9221667 L44.8808247,45.6064167 L44.8808247,61.19575 L26.3863247,69.6965 L26.3863247,53.9221667 L26.3863247,53.9221667 Z M51.891658,42.372 L68.5257414,35.0028333 L87.2043247,43.001 L70.1002414,50.7370833 L51.891658,42.372 L51.891658,42.372 Z M89.6404914,61.8679167 L72.324908,69.6965 L72.324908,53.9221667 L89.6404914,46.0966667 L89.6404914,61.8679167 Z" id="Shape" stroke="none" fill="#389BFF" fill-rule="evenodd"></path>
</svg>