
<svg width="22px" height="22px" viewBox="0 0 22 22" version="1.1" xmlns="http://www.w3.org/2000/svg" xmlns:xlink="http://www.w3.org/1999/xlink">
    <!-- Generator: Sketch 41 (35326) - http://www.bohemiancoding.com/sketch -->
    <desc>Created with Sketch.</desc>
    <defs></defs>
    <path d="M20.5709838,20.9610457 C20.7863254,20.9610457 20.9610457,20.7865007 20.9610457,20.5720216 L20.9610457,13.4290162 C20.9610457,13.2135431 20.7863693,13.0389543 20.5709838,13.0389543 L13.4279784,13.0389543 C13.2130244,13.0389543 13.0389543,13.2131118 13.0389543,13.4290162 L13.0389543,20.5720216 C13.0389543,20.786932 13.213068,20.9610457 13.4279784,20.9610457 L20.5709838,20.9610457 Z M20.5709838,22 L13.4279784,22 C12.6392694,22 12,21.3607306 12,20.5720216 L12,13.4290162 C12,12.6392694 12.6392694,12 13.4279784,12 L20.5709838,12 C21.3596928,12 22,12.6392694 22,13.4290162 L22,20.5720216 C22,21.3607306 21.3596928,22 20.5709838,22 Z" id="Path" stroke="none" fill="#C0C4CA" fill-rule="evenodd"></path>
    <path d="M20.5709838,8.9610457 C20.7863254,8.9610457 20.9610457,8.78650068 20.9610457,8.57202159 L20.9610457,1.42901619 C20.9610457,1.2141058 20.7858942,1.0389543 20.5709838,1.0389543 L13.4279784,1.0389543 C13.2134993,1.0389543 13.0389543,1.21367456 13.0389543,1.42901619 L13.0389543,8.57202159 C13.0389543,8.78693198 13.213068,8.9610457 13.4279784,8.9610457 L20.5709838,8.9610457 Z M20.5709838,10 L13.4279784,10 C12.6392694,10 12,9.36073059 12,8.57202159 L12,1.42901619 C12,0.640307181 12.6392694,0 13.4279784,0 L20.5709838,0 C21.3596928,0 22,0.640307181 22,1.42901619 L22,8.57202159 C22,9.36073059 21.3596928,10 20.5709838,10 Z" id="Path" stroke="none" fill="#C0C4CA" fill-rule="evenodd"></path>
    <path d="M8.57098381,20.9610457 C8.78632544,20.9610457 8.9610457,20.7865007 8.9610457,20.5720216 L8.9610457,13.4290162 C8.9610457,13.2135431 8.78636935,13.0389543 8.57098381,13.0389543 L1.42797841,13.0389543 C1.2130244,13.0389543 1.0389543,13.2131118 1.0389543,13.4290162 L1.0389543,20.5720216 C1.0389543,20.786932 1.21306802,20.9610457 1.42797841,20.9610457 L8.57098381,20.9610457 Z M8.57098381,22 L1.42797841,22 C0.639269406,22 0,21.3607306 0,20.5720216 L0,13.4290162 C0,12.6392694 0.639269406,12 1.42797841,12 L8.57098381,12 C9.35969282,12 10,12.6392694 10,13.4290162 L10,20.5720216 C10,21.3607306 9.35969282,22 8.57098381,22 Z" id="Path" stroke="none" fill="#C0C4CA" fill-rule="evenodd"></path>
    <path d="M8.57098381,8.9610457 C8.78632544,8.9610457 8.9610457,8.78650068 8.9610457,8.57202159 L8.9610457,1.42901619 C8.9610457,1.2141058 8.7858942,1.0389543 8.57098381,1.0389543 L1.42797841,1.0389543 C1.21349932,1.0389543 1.0389543,1.21367456 1.0389543,1.42901619 L1.0389543,8.57202159 C1.0389543,8.78693198 1.21306802,8.9610457 1.42797841,8.9610457 L8.57098381,8.9610457 Z M8.57098381,10 L1.42797841,10 C0.639269406,10 0,9.36073059 0,8.57202159 L0,1.42901619 C0,0.640307181 0.639269406,0 1.42797841,0 L8.57098381,0 C9.35969282,0 10,0.640307181 10,1.42901619 L10,8.57202159 C10,9.36073059 9.35969282,10 8.57098381,10 Z" id="Path" stroke="none" fill="#C0C4CA" fill-rule="evenodd"></path>
</svg>