
<svg width="28px" height="28px" viewBox="0 0 28 28" version="1.1" xmlns="http://www.w3.org/2000/svg" xmlns:xlink="http://www.w3.org/1999/xlink">
    <!-- Generator: Sketch 41.2 (35397) - http://www.bohemiancoding.com/sketch -->
    <desc>Created with Sketch.</desc>
    <defs/>
    <path d="M14,26.7272727 C21.0290786,26.7272727 26.7272727,21.0290786 26.7272727,14 C26.7272727,6.97092137 21.0290786,1.27272727 14,1.27272727 C6.97092137,1.27272727 1.27272727,6.97092137 1.27272727,14 C1.27272727,21.0290786 6.97092137,26.7272727 14,26.7272727 Z M14,28 C6.2680135,28 0,21.7319865 0,14 C0,6.2680135 6.2680135,0 14,0 C21.7319865,0 28,6.2680135 28,14 C28,21.7319865 21.7319865,28 14,28 Z"
          id="Oval-5" stroke="none" fill="#389BFF" fill-rule="evenodd"/>
    <path d="M17.5,12.8514167 L17.5,9.10466667 L13.979,7 L10.5,9.08191667 L10.5,12.873 L7,14.7536667 L7,18.963 L10.5793333,21 L14,19.02075 L17.4206667,21 L21,18.963 L21,14.7764167 L17.5,12.8514167 L17.5,12.8514167 Z M16.83325,12.8724167 L14.3126667,14.2630833 L14.3126667,11.3720833 L16.83325,9.891 L16.83325,12.8724167 Z M13.9778333,7.79158333 L16.4698333,9.30591667 L13.9801667,10.7695 L11.5441667,9.27966667 L13.9778333,7.79158333 L13.9778333,7.79158333 Z M8.04416667,14.9514167 L10.8313333,13.4755833 L13.3029167,14.8855 L10.5799167,16.44125 L8.04416667,14.9514167 Z M10.9124167,17.0438333 L13.6669167,15.4705833 L13.6669167,18.4199167 L10.9124167,20.0281667 L10.9124167,17.0438333 L10.9124167,17.0438333 Z M14.7110833,14.8586667 L17.1885,13.4645 L19.9704167,14.9776667 L17.423,16.44125 L14.7110833,14.8586667 L14.7110833,14.8586667 Z M20.33325,18.5470833 L17.7543333,20.0281667 L17.7543333,17.0438333 L20.33325,15.5633333 L20.33325,18.5470833 Z"
          id="Shape" stroke="none" fill="#389BFF" fill-rule="evenodd"/>
</svg>