
<svg width="28px" height="28px" viewBox="0 0 28 28" version="1.1" xmlns="http://www.w3.org/2000/svg" xmlns:xlink="http://www.w3.org/1999/xlink">
    <!-- Generator: Sketch 41.2 (35397) - http://www.bohemiancoding.com/sketch -->
    <desc>Created with Sketch.</desc>
    <defs/>
    <path d="M14,26.7272727 C21.0290786,26.7272727 26.7272727,21.0290786 26.7272727,14 C26.7272727,6.97092137 21.0290786,1.27272727 14,1.27272727 C6.97092137,1.27272727 1.27272727,6.97092137 1.27272727,14 C1.27272727,21.0290786 6.97092137,26.7272727 14,26.7272727 Z M14,28 C6.2680135,28 0,21.7319865 0,14 C0,6.2680135 6.2680135,0 14,0 C21.7319865,0 28,6.2680135 28,14 C28,21.7319865 21.7319865,28 14,28 Z"
          id="Oval-5" stroke="none" fill="#389BFF" fill-rule="evenodd"/>
    <path d="M15.1666667,18.4712287 L10.5,18.4712287 L10.5,21 L7,17.1938564 L10.5,13.3868613 L10.5,15.9164842 L15.1666667,15.9164842 L15.1666667,18.4712287 L15.1666667,18.4712287 L15.1666667,18.4712287 L15.1666667,18.4712287 Z M8.16666667,9.52962287 L9.33333333,9.52962287 L9.33333333,12.0843674 L8.16666667,12.0843674 L8.16666667,12.0843674 L8.16666667,9.52962287 L8.16666667,9.52962287 Z M10.5,9.52962287 L11.6666667,9.52962287 L11.6666667,12.0843674 L10.5,12.0843674 L10.5,12.0843674 L10.5,9.52962287 L10.5,9.52962287 Z M12.8333333,9.52962287 L17.5,9.52962287 L17.5,7 L21,10.8069951 L17.5,14.6131387 L17.5,12.0843674 L12.8333333,12.0843674 L12.8333333,9.52962287 L12.8333333,9.52962287 L12.8333333,9.52962287 L12.8333333,9.52962287 Z M16.3333333,15.9164842 L17.5,15.9164842 L17.5,18.4712287 L16.3333333,18.4712287 L16.3333333,18.4712287 L16.3333333,15.9164842 L16.3333333,15.9164842 Z M18.6666667,18.4712287 L19.8333333,18.4712287 L19.8333333,15.9164842 L18.6666667,15.9164842 L18.6666667,15.9164842 L18.6666667,18.4712287 L18.6666667,18.4712287 Z"
          id="Fill-169" stroke="#389BFF" stroke-width="1" fill="none"/>
</svg>