
<svg width="28px" height="28px" viewBox="0 0 28 28" version="1.1" xmlns="http://www.w3.org/2000/svg" xmlns:xlink="http://www.w3.org/1999/xlink">
    <!-- Generator: Sketch 41.2 (35397) - http://www.bohemiancoding.com/sketch -->
    <desc>Created with Sketch.</desc>
    <defs></defs>
    <path d="M14,26.7272727 C21.0290786,26.7272727 26.7272727,21.0290786 26.7272727,14 C26.7272727,6.97092137 21.0290786,1.27272727 14,1.27272727 C6.97092137,1.27272727 1.27272727,6.97092137 1.27272727,14 C1.27272727,21.0290786 6.97092137,26.7272727 14,26.7272727 Z M14,28 C6.2680135,28 0,21.7319865 0,14 C0,6.2680135 6.2680135,0 14,0 C21.7319865,0 28,6.2680135 28,14 C28,21.7319865 21.7319865,28 14,28 Z"
          id="Oval-5" stroke="none" fill="#389BFF" fill-rule="evenodd"/>
    <path d="M18.6459884,19.8527125 L19.8720546,18.6269921 L20.2399401,20.2205928 L18.6459884,19.8527125 Z M14.4738845,15.8470516 L14.0098434,15.3830171 L12.6173918,13.9905856 L12.1533507,13.5265511 L9.2808245,10.6540663 L10.6729479,9.26163472 L13.5454741,12.1341196 L14.0098434,12.598154 L15.4019667,13.9905856 L15.8660079,14.45462 L19.491042,18.0796021 L18.0989187,19.4720336 L14.4738845,15.8470516 Z M9.87383887,19.518634 L8.77412047,19.9898882 L8.0101263,19.225905 L8.48171549,18.1255461 L12.1530225,14.45462 L13.5454741,15.8470516 L9.87383887,19.518634 Z M7.88640388,9.25966569 C7.76038423,9.13331968 7.7607124,8.92525896 7.88837294,8.79727209 L8.8164552,7.86920318 C8.94542844,7.74055996 9.15152308,7.74023179 9.27885545,7.86723415 L10.2089068,8.79727209 L8.8164552,10.1897036 L7.88640388,9.25966569 Z M17.9066074,8.70144602 L19.299059,10.0935494 L15.8660079,13.5265511 L14.4738845,12.1337914 L17.9066074,8.70144602 Z M19.6475821,7.65654807 C19.6485666,7.65589172 19.6459412,7.65589172 19.6485666,7.65851709 L20.3420029,8.35194341 C20.343972,8.35391244 20.343972,8.35259975 20.343972,8.35292792 L19.4152333,9.28132501 L18.7191717,8.58527332 L19.6475821,7.65654807 Z M20.4194525,18.0796021 L16.3303772,13.9905856 L19.0581777,11.2628243 L19.3138269,11.5187981 C19.4421438,11.6471131 19.4421438,11.8548457 19.3131706,11.9838171 L18.0254072,13.2712337 C17.8974185,13.3995488 17.8974185,13.6072813 18.0254072,13.7352682 C18.1537241,13.8635832 18.3614596,13.8635832 18.4894483,13.7352682 L19.7772117,12.4481797 C20.1624905,12.0629064 20.1628187,11.4393806 19.7781962,11.0547636 L19.5222188,10.7987899 L19.7631001,10.5575839 L20.2271412,10.0935494 L19.8792745,9.74568764 L20.8080131,8.81696238 C21.0656314,8.55869143 21.063006,8.14486721 20.806044,7.88758078 L20.1126077,7.19415447 C19.8530204,6.93457083 19.4395184,6.93653986 19.183541,7.19251361 L18.2548023,8.12123887 L17.9066074,7.77304894 L17.4425663,8.23708339 L17.4422381,8.23708339 L17.4422381,8.23741157 L14.0098434,11.669757 L9.74289657,7.40319969 C9.35860226,7.01923907 8.73703656,7.02055176 8.35241407,7.40516872 L7.42433181,8.33323763 C7.04102202,8.71654191 7.03872479,9.34039587 7.42236275,9.72370015 L8.35241407,10.6537381 L8.44102164,10.7423444 L8.8164552,11.1181007 L11.6889814,13.9905856 L7.92808226,17.7514306 L7.23202056,19.3758794 L7.69606169,19.8399139 L7,20.5359655 L7.46404113,21 L8.16010282,20.3039483 L8.62447213,20.7679828 L10.2489443,20.0719311 L14.0098434,16.311086 L17.6345494,19.9360681 L18.0985905,20.4001026 L20.4758988,20.9488053 C20.826391,21.0295354 21.0495508,20.8096605 20.9678349,20.456548 L20.4194525,18.0796021 Z"
          id="UX/UI" stroke="none" fill="#389BFF" fill-rule="evenodd"/>
</svg>