
<svg width="28px" height="28px" viewBox="0 0 28 28" version="1.1" xmlns="http://www.w3.org/2000/svg" xmlns:xlink="http://www.w3.org/1999/xlink">
    <!-- Generator: Sketch 41.2 (35397) - http://www.bohemiancoding.com/sketch -->
    <desc>Created with Sketch.</desc>
    <defs/>
    <path d="M14,26.7272727 C21.0290786,26.7272727 26.7272727,21.0290786 26.7272727,14 C26.7272727,6.97092137 21.0290786,1.27272727 14,1.27272727 C6.97092137,1.27272727 1.27272727,6.97092137 1.27272727,14 C1.27272727,21.0290786 6.97092137,26.7272727 14,26.7272727 Z M14,28 C6.2680135,28 0,21.7319865 0,14 C0,6.2680135 6.2680135,0 14,0 C21.7319865,0 28,6.2680135 28,14 C28,21.7319865 21.7319865,28 14,28 Z"
          id="Oval-5" stroke="none" fill="#389BFF" fill-rule="evenodd"/>
    <polyline id="Fill-48" stroke="#389BFF" stroke-width="1" fill="none"
              points="21 7 21 18.6666667 19.7272727 19.8333333 19.7272727 8.16666667 10.1818182 8.16666667 8.90909091 9.33333333 18.4545455 9.33333333 18.4545455 21 7 21 7 9.04166667 9.22727273 7 21 7"/>
</svg>