
<svg width="28px" height="28px" viewBox="0 0 28 28" version="1.1" xmlns="http://www.w3.org/2000/svg" xmlns:xlink="http://www.w3.org/1999/xlink">
    <!-- Generator: Sketch 41.2 (35397) - http://www.bohemiancoding.com/sketch -->
    <desc>Created with Sketch.</desc>
    <defs/>
    <path d="M14,26.7272727 C21.0290786,26.7272727 26.7272727,21.0290786 26.7272727,14 C26.7272727,6.97092137 21.0290786,1.27272727 14,1.27272727 C6.97092137,1.27272727 1.27272727,6.97092137 1.27272727,14 C1.27272727,21.0290786 6.97092137,26.7272727 14,26.7272727 Z M14,28 C6.2680135,28 0,21.7319865 0,14 C0,6.2680135 6.2680135,0 14,0 C21.7319865,0 28,6.2680135 28,14 C28,21.7319865 21.7319865,28 14,28 Z"
          id="Oval-5" stroke="none" fill="#389BFF" fill-rule="evenodd"/>
    <path d="M7,7 L21,7 L21,21 L7,21 L7,21 L7,7 L7,7 Z M8.27272727,19.8333333 L19.7272727,19.8333333 L19.7272727,9.33333333 L8.27272727,9.33333333 L8.27272727,9.33333333 L8.27272727,19.8333333 L8.27272727,19.8333333 Z M9.54545455,11.6666667 L10.8181818,11.6666667 L10.8181818,10.5 L9.54545455,10.5 L9.54545455,10.5 L9.54545455,11.6666667 L9.54545455,11.6666667 Z M9.54545455,14 L10.8181818,14 L10.8181818,12.8333333 L9.54545455,12.8333333 L9.54545455,12.8333333 L9.54545455,14 L9.54545455,14 Z M9.54545455,16.3333333 L10.8181818,16.3333333 L10.8181818,15.1666667 L9.54545455,15.1666667 L9.54545455,15.1666667 L9.54545455,16.3333333 L9.54545455,16.3333333 Z M9.54545455,18.6666667 L10.8181818,18.6666667 L10.8181818,17.5 L9.54545455,17.5 L9.54545455,17.5 L9.54545455,18.6666667 L9.54545455,18.6666667 Z M12.0909091,11.6666667 L18.4545455,11.6666667 L18.4545455,10.5 L12.0909091,10.5 L12.0909091,10.5 L12.0909091,11.6666667 L12.0909091,11.6666667 Z M12.0909091,14 L18.4545455,14 L18.4545455,12.8333333 L12.0909091,12.8333333 L12.0909091,12.8333333 L12.0909091,14 L12.0909091,14 Z M12.0909091,16.3333333 L18.4545455,16.3333333 L18.4545455,15.1666667 L12.0909091,15.1666667 L12.0909091,15.1666667 L12.0909091,16.3333333 L12.0909091,16.3333333 Z M12.0909091,17.5 L18.4545455,17.5 L18.4545455,18.6666667 L12.0909091,18.6666667 L12.0909091,18.6666667 L12.0909091,17.5 L12.0909091,17.5 Z"
          id="Fill-38" stroke="none" fill="#389BFF" fill-rule="evenodd"/>
</svg>