
<svg width="56px" height="35px" viewBox="1919 20 56 35" version="1.1" xmlns="http://www.w3.org/2000/svg" xmlns:xlink="http://www.w3.org/1999/xlink">
    <!-- Generator: Sketch 40.3 (33839) - http://www.bohemiancoding.com/sketch -->
    <desc>Created with Sketch.</desc>
    <defs>
        <path d="M16,0.000103125 C24.837,0.000103125 32,7.38694688 32,16.5001031 C32,25.6132594 24.837,33.0001031 16,33.0001031 C7.163,33.0001031 0,25.6132594 0,16.5001031 C0,7.38694688 7.163,0.000103125 16,0.000103125" id="path-1"></path>
    </defs>
    <g id="Account" stroke="none" stroke-width="1" fill="none" fill-rule="evenodd" transform="translate(1919.000000, 20.625000)">
        <g id="Avatar-Placeholder">
            <mask id="mask-2" fill="white">
                <use xlink:href="#path-1"></use>
            </mask>
            <use id="Mask" fill="#EFF0F4" xlink:href="#path-1"></use>
            <path d="M19.0084,25.2607781 C18.9194,24.2274656 18.9524,23.5055906 18.9524,22.5599344 C19.3994,22.3155281 20.1984,20.7480281 20.3334,19.4239031 C20.6844,19.3939969 21.2374,19.0351219 21.3994,17.6161219 C21.4864,16.8550594 21.1394,16.4270906 20.9284,16.2919969 C21.4984,14.4893719 22.6844,8.91340312 18.7354,8.33796562 C18.3294,7.58824687 17.2884,7.20977812 15.9364,7.20977812 C10.5254,7.31393437 9.8734,11.4987469 11.0594,16.2919969 C10.8484,16.4270906 10.5014,16.8550594 10.5884,17.6161219 C10.7504,19.0351219 11.3034,19.3939969 11.6534,19.4239031 C11.7884,20.7469969 12.6194,22.3155281 13.0664,22.5599344 C13.0664,23.5055906 13.1004,24.2274656 13.0114,25.2607781 C12.2404,27.4356844 8.2834,27.6068719 6.0004,29.7044344 C8.3874,32.2258406 12.2554,34.0315594 16.3374,34.0315594 C20.4194,34.0315594 25.2174,30.6480281 26.0154,29.7250594 C23.7464,27.6079031 19.7804,27.4429031 19.0084,25.2607781" id="Silhouette" fill="#C0C4CA" mask="url(#mask-2)"></path>
        </g>
        <!--<polygon id="Icon" fill="#B2BBC6" points="51.495 21.6459375 55.992 16.5010313 47 16.5"></polygon>-->
    </g>
</svg>