
<svg width="114px" height="32px" viewBox="0 -1 114 32" version="1.1" xmlns="http://www.w3.org/2000/svg" xmlns:xlink="http://www.w3.org/1999/xlink">
    <!-- Generator: Sketch 42 (36781) - http://www.bohemiancoding.com/sketch -->
    <desc>Created with Sketch.</desc>
    <defs></defs>
    <path d="M40,9.324 L41.296,9.324 L41.296,14.85 L48.244,14.85 L48.244,9.324 L49.54,9.324 L49.54,22.068 L48.244,22.068 L48.244,16.038 L41.296,16.038 L41.296,22.068 L40,22.068 L40,9.324 Z M53.1516471,22.068 L51.7296471,22.068 L57.2376471,9.324 L58.4976471,9.324 L63.9696471,22.068 L62.5296471,22.068 L61.1256471,18.72 L54.5376471,18.72 L53.1516471,22.068 Z M55.0236471,17.532 L60.6396471,17.532 L57.8316471,10.764 L55.0236471,17.532 Z M72.3332941,11.376 C72.0572928,10.9919981 71.7032963,10.6830012 71.2712941,10.449 C70.839292,10.2149988 70.3172972,10.098 69.7052941,10.098 C69.3932926,10.098 69.0752958,10.1459995 68.7512941,10.242 C68.4272925,10.3380005 68.1332955,10.484999 67.8692941,10.683 C67.6052928,10.881001 67.3922949,11.1299985 67.2302941,11.43 C67.0682933,11.7300015 66.9872941,12.083998 66.9872941,12.492 C66.9872941,12.900002 67.0652934,13.2359987 67.2212941,13.5 C67.3772949,13.7640013 67.5842928,13.9889991 67.8422941,14.175 C68.1002954,14.3610009 68.3942925,14.5139994 68.7242941,14.634 C69.0542958,14.7540006 69.3992923,14.8739994 69.7592941,14.994 C70.2032964,15.1380007 70.6502919,15.2939992 71.1002941,15.462 C71.5502964,15.6300008 71.9552923,15.8489986 72.3152941,16.119 C72.6752959,16.3890014 72.969293,16.7309979 73.1972941,17.145 C73.4252953,17.5590021 73.5392941,18.0839968 73.5392941,18.72 C73.5392941,19.3560032 73.4162954,19.9049977 73.1702941,20.367 C72.9242929,20.8290023 72.6062961,21.2099985 72.2162941,21.51 C71.8262922,21.8100015 71.3822966,22.0319993 70.8842941,22.176 C70.3862916,22.3200007 69.8852967,22.392 69.3812941,22.392 C68.9972922,22.392 68.6132961,22.3530004 68.2292941,22.275 C67.8452922,22.1969996 67.4792959,22.0800008 67.1312941,21.924 C66.7832924,21.7679992 66.4592956,21.5700012 66.1592941,21.33 C65.8592926,21.0899988 65.5952953,20.8140016 65.3672941,20.502 L66.4832941,19.674 C66.7592955,20.1300023 67.1462916,20.5109985 67.6442941,20.817 C68.1422966,21.1230015 68.7272908,21.276 69.3992941,21.276 C69.7232958,21.276 70.0532925,21.2250005 70.3892941,21.123 C70.7252958,21.0209995 71.0282928,20.8650011 71.2982941,20.655 C71.5682955,20.444999 71.7902933,20.1870015 71.9642941,19.881 C72.138295,19.5749985 72.2252941,19.218002 72.2252941,18.81 C72.2252941,18.3659978 72.138295,17.9970015 71.9642941,17.703 C71.7902933,17.4089985 71.5592956,17.163001 71.2712941,16.965 C70.9832927,16.766999 70.653296,16.6020007 70.2812941,16.47 C69.9092923,16.3379993 69.5192962,16.2060007 69.1112941,16.074 C68.691292,15.9419993 68.2772962,15.7920008 67.8692941,15.624 C67.4612921,15.4559992 67.0952958,15.2370013 66.7712941,14.967 C66.4472925,14.6969987 66.1862951,14.364002 65.9882941,13.968 C65.7902931,13.571998 65.6912941,13.0860029 65.6912941,12.51 C65.6912941,11.8979969 65.8142929,11.3700022 66.0602941,10.926 C66.3062954,10.4819978 66.6272922,10.1160014 67.0232941,9.828 C67.4192961,9.53999856 67.8572917,9.33000066 68.3372941,9.198 C68.8172965,9.06599934 69.2912918,9 69.7592941,9 C70.6232985,9 71.3612911,9.15299847 71.9732941,9.459 C72.5852972,9.76500153 73.0472926,10.1279979 73.3592941,10.548 L72.3332941,11.376 Z M77.9249412,20.916 L83.8649412,20.916 L83.8649412,22.068 L76.6289412,22.068 L76.6289412,9.324 L77.9249412,9.324 L77.9249412,20.916 Z M87.4225883,22.068 L86.1265883,22.068 L86.1265883,9.324 L87.4225883,9.324 L87.4225883,22.068 Z M92.7442353,21.204 C92.7442353,21.4560013 92.6542362,21.680999 92.4742353,21.879 C92.2942344,22.077001 92.0602368,22.176 91.7722353,22.176 C91.4842339,22.176 91.2502362,22.077001 91.0702353,21.879 C90.8902344,21.680999 90.8002353,21.4560013 90.8002353,21.204 C90.8002353,20.9519987 90.8902344,20.727001 91.0702353,20.529 C91.2502362,20.330999 91.4842339,20.232 91.7722353,20.232 C92.0602368,20.232 92.2942344,20.330999 92.4742353,20.529 C92.6542362,20.727001 92.7442353,20.9519987 92.7442353,21.204 Z M97.4178824,22.068 L96.1218824,22.068 L96.1218824,9.324 L97.4178824,9.324 L97.4178824,22.068 Z M113.719529,15.696 C113.719529,16.6680049 113.551531,17.5619959 113.215529,18.378 C112.879528,19.1940041 112.414532,19.898997 111.820529,20.493 C111.226527,21.087003 110.524534,21.5519983 109.714529,21.888 C108.904525,22.2240017 108.025534,22.392 107.077529,22.392 C106.129525,22.392 105.250534,22.2240017 104.440529,21.888 C103.630525,21.5519983 102.928532,21.087003 102.334529,20.493 C101.740527,19.898997 101.275531,19.1940041 100.939529,18.378 C100.603528,17.5619959 100.435529,16.6680049 100.435529,15.696 C100.435529,14.7239951 100.603528,13.8300041 100.939529,13.014 C101.275531,12.1979959 101.740527,11.493003 102.334529,10.899 C102.928532,10.304997 103.630525,9.84000168 104.440529,9.504 C105.250534,9.16799832 106.129525,9 107.077529,9 C108.025534,9 108.904525,9.16799832 109.714529,9.504 C110.524534,9.84000168 111.226527,10.304997 111.820529,10.899 C112.414532,11.493003 112.879528,12.1979959 113.215529,13.014 C113.551531,13.8300041 113.719529,14.7239951 113.719529,15.696 Z M112.351529,15.696 C112.351529,14.9519963 112.231531,14.2440034 111.991529,13.572 C111.751528,12.8999966 111.403532,12.3090026 110.947529,11.799 C110.491527,11.2889975 109.936533,10.8840015 109.282529,10.584 C108.628526,10.2839985 107.893534,10.134 107.077529,10.134 C106.261525,10.134 105.526533,10.2839985 104.872529,10.584 C104.218526,10.8840015 103.663532,11.2889975 103.207529,11.799 C102.751527,12.3090026 102.403531,12.8999966 102.163529,13.572 C101.923528,14.2440034 101.803529,14.9519963 101.803529,15.696 C101.803529,16.4400037 101.923528,17.1479966 102.163529,17.82 C102.403531,18.4920034 102.751527,19.0799975 103.207529,19.584 C103.663532,20.0880025 104.218526,20.4899985 104.872529,20.79 C105.526533,21.0900015 106.261525,21.24 107.077529,21.24 C107.893534,21.24 108.628526,21.0900015 109.282529,20.79 C109.936533,20.4899985 110.491527,20.0880025 110.947529,19.584 C111.403532,19.0799975 111.751528,18.4920034 111.991529,17.82 C112.231531,17.1479966 112.351529,16.4400037 112.351529,15.696 Z" id="HASLI.IO" stroke="none" fill="#E6E8EF" fill-rule="evenodd"></path>
    <path d="M13.813589,1.10153085 C15.2972528,-0.366079324 17.7005283,-0.368274168 19.186411,1.10153085 L30.8864199,12.6749425 C32.3700837,14.1425527 32.3858574,16.5300275 30.9052011,18.0241163 L19.1676298,29.8681708 C17.6943386,31.3548278 15.3130265,31.3622597 13.8323702,29.8681708 L2.09479893,18.0241163 C0.621507657,16.5374594 0.627697416,14.1447475 2.11358009,12.6749425 L13.813589,1.10153085 Z" id="Combined-Shape" stroke="none" fill="#239AE8" fill-rule="evenodd"></path>
    <path d="M11,7 L11,23" id="Line" stroke="#FFFFFF" stroke-width="1" stroke-linecap="square" fill="none"></path>
    <path d="M22,7 L22,23" id="Line-Copy" stroke="#FFFFFF" stroke-width="1" stroke-linecap="square" fill="none"></path>
    <path d="M11.5,15.5224609 L21.5,15.5224609" id="Line" stroke="#FFFFFF" stroke-width="1" stroke-linecap="square" fill="none"></path>
</svg>