<svg xmlns="http://www.w3.org/2000/svg" xmlns:xlink="http://www.w3.org/1999/xlink" version="1.1" x="0px" y="0px" viewBox="0 0 52 65" style="enable-background:new 0 0 52 52;" xml:space="preserve">
  <g>
    <path d="M16.2133789,34.7874069c0.3422852,0,0.6762695-0.1757813,0.8623047-0.4921875   c0.2807617-0.4755859,0.1220703-1.0888672-0.3535156-1.3691406L4.9697266,26.0002956L16.722168,19.075491   c0.4755859-0.2802734,0.6342773-0.8935547,0.3535156-1.3691406c-0.2797852-0.4746094-0.890625-0.6328125-1.3691406-0.3535156   L2.4921875,25.1389675C2.1875,25.318655,2,25.6458035,2,26.0002956s0.1870117,0.6816406,0.4921875,0.8613281L15.706543,34.648735   C15.8662109,34.742485,16.0410156,34.7874069,16.2133789,34.7874069z"/><path d="M49.5078125,25.1389675l-13.2138672-7.7861328c-0.4760742-0.2783203-1.0888672-0.1210938-1.3691406,0.3535156   c-0.2807617,0.4755859-0.1220703,1.0888672,0.3535156,1.3691406l11.7519531,6.9248047l-11.7519531,6.9257832   c-0.4755859,0.2802734-0.6342773,0.8935547-0.3535156,1.3691406c0.1860352,0.3164063,0.5200195,0.4921875,0.8623047,0.4921875   c0.1723633,0,0.347168-0.0449219,0.5068359-0.1386719l13.2138672-7.7871113C49.8129883,26.6819363,50,26.3547878,50,26.0002956   S49.8125,25.318655,49.5078125,25.1389675z"/><path d="M37.1274414,4.9387732c-0.4892578-0.2597656-1.09375-0.0712891-1.3515625,0.4169922L14.4555664,45.711235   c-0.2578125,0.4882813-0.0712891,1.0927734,0.4169922,1.3505859c0.1489258,0.0791016,0.309082,0.1162109,0.4663086,0.1162109   c0.3588867,0,0.7060547-0.1933594,0.8852539-0.5332031L37.5444336,6.2893591   C37.8022461,5.8010778,37.6157227,5.1965857,37.1274414,4.9387732z"/></g></svg>