<?xml version="1.0" encoding="utf-8"?>
<!-- Generator: Adobe Illustrator 21.0.2, SVG Export Plug-In . SVG Version: 6.00 Build 0)  -->
<svg version="1.1" xmlns="http://www.w3.org/2000/svg" xmlns:xlink="http://www.w3.org/1999/xlink" x="0px" y="0px"
	 viewBox="0 0 93 93" style="enable-background:new 0 0 93 93;" xml:space="preserve">
<path fill-rule="evenodd" clip-rule="evenodd" fill="#066DA5" d="M80.5,41.2c-1.6-1.1-5.2-1.4-8-0.9c-0.4-2.6-1.8-4.9-4.5-7l-1.5-1l-1,1.5c-1.3,2-2,4.7-1.7,7.3
	c0.1,0.9,0.4,2.6,1.3,4c-0.9,0.5-2.8,1.2-5.3,1.2H12.3l-0.1,0.5c-0.4,2.6-0.4,10.9,4.9,17.2c4.1,4.8,10.1,7.2,18.1,7.2
	c17.2,0,30-7.9,35.9-22.3c2.3,0,7.4,0,10-4.9c0.1-0.1,0.2-0.4,0.7-1.4l0.2-0.5L80.5,41.2z M43,29.3h7.2v-6.6H43V29.3z M43,37.1h7.2
	v-6.6H43V37.1z M34.5,37.1h7.2v-6.6h-7.2V37.1z M26,37.1h7.2v-6.6H26V37.1z M17.4,45h7.2v-6.6h-7.2V45z M26,45h7.2v-6.6H26V45z
	 M34.5,45h7.2v-6.6h-7.2V45z M43,45h7.2v-6.6H43V45z M51.6,45h7.2v-6.6h-7.2V45z"/>
<g>
	<path fill="#4b738d" d="M46.5,2.2L91,24.5v44L46.5,90.8L2,68.5v-44L46.5,2.2 M46.5,0L0,23.3v46.5L46.5,93L93,69.8V23.3L46.5,0L46.5,0z
		"/>
</g>
</svg>
