
<svg width="93px" height="93px" viewBox="0 0 93 93" version="1.1" xmlns="http://www.w3.org/2000/svg" xmlns:xlink="http://www.w3.org/1999/xlink">
    <!-- Generator: Sketch 44.1 (41455) - http://www.bohemiancoding.com/sketch -->
    <desc>Created with Sketch.</desc>
    <defs>
        <path d="M13.407931,0.164 C17.0436207,4.84124752 22.4622414,6.48043564 24.7593103,6.97040594 C12.18,9.99060396 4.54913793,4.70119802 0.26637931,1.89817822 C1.5512069,1.94323762 7.69862069,1.71834653 13.407931,0.164 Z" id="path-1"></path>
        <polygon id="path-3" points="37.2796552 0.228544554 74.5587931 0.228544554 74.5587931 40.9756436 0 40.9756436 0 0.228544554 37.2796552 0.228544554 74.5587931 0.228544554 74.5587931 41 0 41 0 0.228544554"></polygon>
        <polygon id="path-5" points="37.2796552 0.228544554 74.5587931 0.228544554 74.5587931 40.9756436 0 40.9756436 0 0.228544554 37.2796552 0.228544554 74.5587931 0.228544554 74.5587931 41 0 41 0 0.228544554"></polygon>
    </defs>
    <g id="Symbols" stroke="none" stroke-width="1" fill="none" fill-rule="evenodd">
        <g id="docker-node">
            <g>
                <g id="designer-virtual-machine" stroke-width="2" stroke="#63ABFF" fill="#FFFFFF">
                    <polygon id="Polygon" points="46.5 1.22368421 91.5909091 23.8618421 91.5909091 69.1381579 46.5 91.7763158 1.40909091 69.1381579 1.40909091 23.8618421"></polygon>
                </g>
                <g id="moby" transform="translate(9.000000, 26.000000)">
                    <polygon id="Shape" fill="#089CEC" fill-rule="nonzero" points="14.9410345 20.0006931 22.6391379 20.0006931 22.6391379 14.5083168 14.9410345 14.5083168"></polygon>
                    <polygon id="Shape" fill="#089CEC" fill-rule="nonzero" points="5.84327586 20.0006931 13.5413793 20.0006931 13.5413793 14.5083168 5.84327586 14.5083168"></polygon>
                    <polygon id="Shape" fill="#089CEC" fill-rule="nonzero" points="24.0382759 20.0006931 31.7358621 20.0006931 31.7358621 14.5083168 24.0382759 14.5083168"></polygon>
                    <polygon id="Shape" fill="#089CEC" fill-rule="nonzero" points="33.1360345 20.0006931 40.8336207 20.0006931 40.8336207 14.5083168 33.1360345 14.5083168"></polygon>
                    <polygon id="Shape" fill="#089CEC" fill-rule="nonzero" points="42.2332759 20.0006931 49.9313793 20.0006931 49.9313793 14.5083168 42.2332759 14.5083168"></polygon>
                    <polygon id="Shape" fill="#089CEC" fill-rule="nonzero" points="14.9410345 13.4098416 22.6391379 13.4098416 22.6391379 7.91746535 14.9410345 7.91746535"></polygon>
                    <polygon id="Shape" fill="#089CEC" fill-rule="nonzero" points="24.0382759 13.4098416 31.7358621 13.4098416 31.7358621 7.91746535 24.0382759 7.91746535"></polygon>
                    <polygon id="Shape" fill="#089CEC" fill-rule="nonzero" points="33.1360345 13.4098416 40.8336207 13.4098416 40.8336207 7.91746535 33.1360345 7.91746535"></polygon>
                    <polygon id="Shape" fill="#089CEC" fill-rule="nonzero" points="33.1360345 6.81939604 40.8336207 6.81939604 40.8336207 1.3270198 33.1360345 1.3270198"></polygon>
                    <path d="M72.8596552,16.2039307 C71.2794828,15.3693168 67.1286207,15.012901 64.1105172,15.6510396 C63.9486207,13.2917129 62.397931,11.3034158 59.5618966,9.56883168 L58.5124138,9.01634653 L57.812069,9.84527723 C56.4372414,11.4836535 55.857931,13.666396 56.0632759,15.6510396 C56.2246552,16.8733267 56.7667241,18.2478416 57.812069,19.2448317 C57.0113793,19.7335842 54.5208621,20.677802 51.1644828,20.6274653 L1.12810345,20.6274653 C0.237931034,24.7741485 1.76172414,40.5319505 24.9212069,40.5319505 C42.1148276,40.5319505 56.2422414,34.4635446 62.7108621,21.7332475 C64.8393103,21.7604455 70.4586207,22.0324257 73.2082759,17.862604 C73.275,17.7927822 73.9081034,16.7568218 73.9081034,16.7568218 L72.8596552,16.2039307" id="Shape" fill="#089CEC" fill-rule="nonzero"></path>
                    <g id="Group" transform="translate(6.206897, 32.881188)">
                        <g id="Clipped">
                            <mask id="mask-2" fill="white">
                                <use xlink:href="#path-1"></use>
                            </mask>
                            <g id="a"></g>
                            <polygon id="Shape" fill="#FFFFFF" fill-rule="nonzero" mask="url(#mask-2)" points="0.248275862 7.89960396 24.7655172 7.89960396 24.7655172 0.154257426 0.248275862 0.154257426"></polygon>
                        </g>
                    </g>
                    <path d="M18.977069,32.0774257 C16.23,33.3078317 13.0458621,33.9987426 9.66931034,33.9987426 C7.95827586,33.9987426 6.30103448,33.8205347 4.72396552,33.4860396 C5.72224138,34.8033168 5.72224138,34.8033168 5.72224138,34.8033168 C6.99931034,35.0010099 8.31827586,35.1049307 9.66931034,35.1049307 C13.3086207,35.1049307 16.7027586,34.3584059 19.6593103,33.0451881 C19.4146552,32.7273366 19.187069,32.4090792 18.977069,32.0774257" id="Shape" fill="#026FB6" fill-rule="nonzero"></path>
                    <path d="M24.302069,31.3605347 C25.6458621,31.3605347 26.7351724,30.4999406 26.7351724,29.4384059 C26.7351724,28.3768713 25.6458621,27.5162772 24.302069,27.5162772 C22.9582759,27.5162772 21.8689655,28.3768713 21.8689655,29.4384059 C21.8689655,30.4999406 22.9582759,31.3605347 24.302069,31.3605347" id="Shape" fill="#FFFFFF" fill-rule="nonzero"></path>
                    <path d="M24.6682759,28.898505 C24.6682759,28.7219208 24.7794828,28.5721287 24.9418966,28.4710495 C24.7510345,28.3935149 24.537931,28.3456139 24.3087931,28.3456139 C23.5412069,28.3456139 22.9184483,28.8376139 22.9184483,29.4440891 C22.9184483,30.0505644 23.5412069,30.5425644 24.3087931,30.5425644 C25.0768966,30.5425644 25.6991379,30.0505644 25.6991379,29.4440891 L25.6913793,29.3811683 C25.5931034,29.4221683 25.4865517,29.4509901 25.3681034,29.4509901 C24.9817241,29.4509901 24.6682759,29.2037723 24.6682759,28.898505" id="Shape" fill="#4D5C64" fill-rule="nonzero"></path>
                    <path d="M72.6522414,16.1036634 C71.5706897,15.6226238 69.602069,15.3246634 67.5693103,15.3246634 C66.3837931,15.3246634 65.1765517,15.4257426 64.1105172,15.6510396 C64.1074138,15.6011089 64.1032759,15.5515842 64.0986207,15.5020594 C65.0591379,15.3031485 66.1618966,15.2138416 67.2625862,15.2138416 C69.4489655,15.2138416 71.6255172,15.5653861 72.6522414,16.1036634" id="Shape" fill="#F3F3F3" fill-rule="nonzero"></path>
                    <path d="M28.4032759,40.3663267 C29.2339655,40.2331782 30.087931,40.0626832 30.9662069,39.8515941 C29.8903448,39.6222376 28.1296552,39.1403861 26.187931,38.2128119 C42.1831034,37.9071386 53.8965517,31.4636436 63.2591379,16.2554851 L63.9015517,15.5450891 C63.9662069,15.5300693 64.0318966,15.5158614 64.0986207,15.5020594 C64.1032759,15.5515842 64.1074138,15.6011089 64.1105172,15.6510396 C65.1765517,15.4257426 66.3837931,15.3246634 67.5693103,15.3246634 C69.602069,15.3246634 71.5706897,15.6226238 72.6522414,16.1036634 C72.6537931,16.1044752 72.6558621,16.1052871 72.657931,16.106505 L73.7146552,16.6687327 L73.1824138,17.5528713 C70.7555172,21.4137723 65.4853448,21.7036139 63.0186207,21.7036139 C62.817931,21.7036139 62.6358621,21.7019901 62.4755172,21.6999604 C56.427931,33.4535644 43.8641379,39.5154752 28.4032759,40.3663267" id="Shape" fill="#F3F3F3" fill-rule="nonzero"></path>
                    <path d="M28.4032759,40.3663267 C29.2339655,40.2331782 30.087931,40.0626832 30.9662069,39.8515941 C29.8903448,39.6222376 28.1296552,39.1403861 26.187931,38.2128119 C42.1831034,37.9071386 53.8965517,31.4636436 63.2591379,16.2554851 L63.9015517,15.5450891 C63.9662069,15.5300693 64.0318966,15.5158614 64.0986207,15.5020594 C64.1032759,15.5515842 64.1074138,15.6011089 64.1105172,15.6510396 C65.1765517,15.4257426 66.3837931,15.3246634 67.5693103,15.3246634 C69.602069,15.3246634 71.5706897,15.6226238 72.6522414,16.1036634 C72.6537931,16.1044752 72.6558621,16.1052871 72.657931,16.106505 L73.7146552,16.6687327 L73.1824138,17.5528713 C70.7555172,21.4137723 65.4853448,21.7036139 63.0186207,21.7036139 C62.817931,21.7036139 62.6358621,21.7019901 62.4755172,21.6999604 C56.427931,33.4535644 43.8641379,39.5154752 28.4032759,40.3663267" id="Shape" fill="#0894E0" fill-rule="nonzero"></path>
                    <path d="M16.3148276,39.7160099 C11.55,38.751495 8.16155172,36.947495 5.76568966,34.8098119 C6.00724138,34.8471584 6.25086207,34.8804455 6.49551724,34.9108911 C8.63741379,36.8196238 11.5515517,38.4531287 15.4867241,39.4594554 C15.7577586,39.5483564 16.0339655,39.6340099 16.3148276,39.7160099" id="Shape" fill="#F3F3F3" fill-rule="nonzero"></path>
                    <path d="M15.4867241,39.4594554 C11.5515517,38.4531287 8.63741379,36.8196238 6.49551724,34.9108911 C6.56793103,34.9198218 6.64086207,34.9283465 6.71327586,34.9368713 C8.81327586,36.3142277 11.6798276,38.2111881 15.4867241,39.4594554" id="Shape" fill="#F3F3F3" fill-rule="nonzero"></path>
                    <path d="M15.4867241,39.4594554 C11.5515517,38.4531287 8.63741379,36.8196238 6.49551724,34.9108911 C6.56793103,34.9198218 6.64086207,34.9283465 6.71327586,34.9368713 C8.81327586,36.3142277 11.6798276,38.2111881 15.4867241,39.4594554" id="Shape" fill="#0894E0" fill-rule="nonzero"></path>
                    <path d="M5.64568966,34.7018317 C0.39362069,29.9255347 0.00465517241,23.5388713 0.218793103,21.074 L1.04844828,21.074 C0.678103448,23.6208713 1.13741379,29.082802 5.15431034,33.5729109 C5.01,33.5453069 4.86672414,33.5160792 4.72396552,33.4860396 C5.29758621,34.2427129 5.54172414,34.5646238 5.64568966,34.7018317" id="Shape" fill="#F3F3F3" fill-rule="nonzero"></path>
                    <path d="M9.2787931,33.995901 C7.86,33.9731683 6.48,33.8278416 5.15431034,33.5729109 C1.13741379,29.082802 0.678103448,23.6208713 1.04844828,21.074 L3.01810345,21.074 C3.68017241,26.3784257 5.25051724,30.9217129 9.2787931,33.995901" id="Shape" fill="#F3F3F3" fill-rule="nonzero"></path>
                    <path d="M9.2787931,33.995901 C7.86,33.9731683 6.48,33.8278416 5.15431034,33.5729109 C1.13741379,29.082802 0.678103448,23.6208713 1.04844828,21.074 L3.01810345,21.074 C3.68017241,26.3784257 5.25051724,30.9217129 9.2787931,33.995901" id="Shape" fill="#0894E0" fill-rule="nonzero"></path>
                    <path d="M24.5456897,40.4710594 C21.4246552,40.4710594 18.6977586,40.1982673 16.3148276,39.7160099 C16.0339655,39.6340099 15.7577586,39.5483564 15.4867241,39.4594554 C11.6798276,38.2111881 8.81327586,36.3142277 6.71327586,34.9368713 C7.67844828,35.0476931 8.66482759,35.1049307 9.66931034,35.1049307 C10.0841379,35.1049307 10.4953448,35.0951881 10.9034483,35.0761089 C14.3343103,37.0591287 19.197931,38.1994158 26.1113793,38.2140297 C26.1372414,38.2136238 26.1625862,38.2132178 26.187931,38.2128119 C28.1296552,39.1403861 29.8903448,39.6222376 30.9662069,39.8515941 C30.087931,40.0626832 29.2339655,40.2331782 28.4032759,40.3663267 C27.1365517,40.4361485 25.8496552,40.4710594 24.5456897,40.4710594" id="Shape" fill="#F3F3F3" fill-rule="nonzero"></path>
                    <path d="M24.5456897,40.4710594 C21.4246552,40.4710594 18.6977586,40.1982673 16.3148276,39.7160099 C16.0339655,39.6340099 15.7577586,39.5483564 15.4867241,39.4594554 C11.6798276,38.2111881 8.81327586,36.3142277 6.71327586,34.9368713 C7.67844828,35.0476931 8.66482759,35.1049307 9.66931034,35.1049307 C10.0841379,35.1049307 10.4953448,35.0951881 10.9034483,35.0761089 C14.3343103,37.0591287 19.197931,38.1994158 26.1113793,38.2140297 C26.1372414,38.2136238 26.1625862,38.2132178 26.187931,38.2128119 C28.1296552,39.1403861 29.8903448,39.6222376 30.9662069,39.8515941 C30.087931,40.0626832 29.2339655,40.2331782 28.4032759,40.3663267 C27.1365517,40.4361485 25.8496552,40.4710594 24.5456897,40.4710594" id="Shape" fill="#F2F2F2" fill-rule="nonzero"></path>
                    <path d="M9.66931034,35.1049307 C8.66482759,35.1049307 7.67844828,35.0476931 6.71327586,34.9368713 C6.64086207,34.9283465 6.56793103,34.9198218 6.49551724,34.9108911 C6.25086207,34.8804455 6.00724138,34.8471584 5.76568966,34.8098119 C5.72534483,34.7736832 5.68551724,34.7379604 5.64568966,34.7018317 C5.54172414,34.5646238 5.29758621,34.2427129 4.72396552,33.4860396 C4.86672414,33.5160792 5.01,33.5453069 5.15431034,33.5729109 C6.48,33.8278416 7.86,33.9731683 9.2787931,33.995901 C9.78051724,34.3791089 10.322069,34.7399901 10.9034483,35.0761089 C10.4953448,35.0951881 10.0841379,35.1049307 9.66931034,35.1049307" id="Shape" fill="#F3F3F3" fill-rule="nonzero"></path>
                    <path d="M9.66931034,35.1049307 C8.66482759,35.1049307 7.67844828,35.0476931 6.71327586,34.9368713 C6.64086207,34.9283465 6.56793103,34.9198218 6.49551724,34.9108911 C6.25086207,34.8804455 6.00724138,34.8471584 5.76568966,34.8098119 C5.72534483,34.7736832 5.68551724,34.7379604 5.64568966,34.7018317 C5.54172414,34.5646238 5.29758621,34.2427129 4.72396552,33.4860396 C4.86672414,33.5160792 5.01,33.5453069 5.15431034,33.5729109 C6.48,33.8278416 7.86,33.9731683 9.2787931,33.995901 C9.78051724,34.3791089 10.322069,34.7399901 10.9034483,35.0761089 C10.4953448,35.0951881 10.0841379,35.1049307 9.66931034,35.1049307" id="Shape" fill="#0269AD" fill-rule="nonzero"></path>
                    <polygon id="Shape" fill="#066DA5" fill-rule="nonzero" points="7.24293103 18.9022178 7.94275862 18.9022178 7.94275862 15.6067921 7.24293103 15.6067921"></polygon>
                    <polygon id="Shape" fill="#066DA5" fill-rule="nonzero" points="9.34241379 18.9022178 10.0417241 18.9022178 10.0417241 15.6067921 9.34241379 15.6067921"></polygon>
                    <polygon id="Shape" fill="#066DA5" fill-rule="nonzero" points="11.4418966 18.9022178 12.1417241 18.9022178 12.1417241 15.6067921 11.4418966 15.6067921"></polygon>
                    <polygon id="Shape" fill="#066DA5" fill-rule="nonzero" points="16.3406897 18.9022178 17.0405172 18.9022178 17.0405172 15.6067921 16.3406897 15.6067921"></polygon>
                    <polygon id="Shape" fill="#066DA5" fill-rule="nonzero" points="18.4401724 18.9022178 19.14 18.9022178 19.14 15.6067921 18.4401724 15.6067921"></polygon>
                    <polygon id="Shape" fill="#066DA5" fill-rule="nonzero" points="20.5396552 18.9022178 21.2394828 18.9022178 21.2394828 15.6067921 20.5396552 15.6067921"></polygon>
                    <polygon id="Shape" fill="#066DA5" fill-rule="nonzero" points="25.4384483 18.9022178 26.1382759 18.9022178 26.1382759 15.6067921 25.4384483 15.6067921"></polygon>
                    <polygon id="Shape" fill="#066DA5" fill-rule="nonzero" points="27.5374138 18.9022178 28.2372414 18.9022178 28.2372414 15.6067921 27.5374138 15.6067921"></polygon>
                    <polygon id="Shape" fill="#066DA5" fill-rule="nonzero" points="29.6368966 18.9022178 30.3367241 18.9022178 30.3367241 15.6067921 29.6368966 15.6067921"></polygon>
                    <polygon id="Shape" fill="#066DA5" fill-rule="nonzero" points="34.5351724 18.9022178 35.2355172 18.9022178 35.2355172 15.6067921 34.5351724 15.6067921"></polygon>
                    <polygon id="Shape" fill="#066DA5" fill-rule="nonzero" points="36.6351724 18.9022178 37.3344828 18.9022178 37.3344828 15.6067921 36.6351724 15.6067921"></polygon>
                    <polygon id="Shape" fill="#066DA5" fill-rule="nonzero" points="38.7346552 18.9022178 39.435 18.9022178 39.435 15.6067921 38.7346552 15.6067921"></polygon>
                    <polygon id="Shape" fill="#066DA5" fill-rule="nonzero" points="43.632931 18.9022178 44.3332759 18.9022178 44.3332759 15.6067921 43.632931 15.6067921"></polygon>
                    <polygon id="Shape" fill="#066DA5" fill-rule="nonzero" points="45.732931 18.9022178 46.4327586 18.9022178 46.4327586 15.6067921 45.732931 15.6067921"></polygon>
                    <polygon id="Shape" fill="#066DA5" fill-rule="nonzero" points="47.8324138 18.9022178 48.5322414 18.9022178 48.5322414 15.6067921 47.8324138 15.6067921"></polygon>
                    <polygon id="Shape" fill="#066DA5" fill-rule="nonzero" points="18.4401724 12.3117723 19.14 12.3117723 19.14 9.01634653 18.4401724 9.01634653"></polygon>
                    <polygon id="Shape" fill="#066DA5" fill-rule="nonzero" points="20.5396552 12.3117723 21.2394828 12.3117723 21.2394828 9.01634653 20.5396552 9.01634653"></polygon>
                    <polygon id="Shape" fill="#066DA5" fill-rule="nonzero" points="25.4384483 12.3117723 26.1382759 12.3117723 26.1382759 9.01634653 25.4384483 9.01634653"></polygon>
                    <polygon id="Shape" fill="#066DA5" fill-rule="nonzero" points="27.5374138 12.3117723 28.2372414 12.3117723 28.2372414 9.01634653 27.5374138 9.01634653"></polygon>
                    <polygon id="Shape" fill="#066DA5" fill-rule="nonzero" points="29.6368966 12.3117723 30.3367241 12.3117723 30.3367241 9.01634653 29.6368966 9.01634653"></polygon>
                    <polygon id="Shape" fill="#066DA5" fill-rule="nonzero" points="34.5351724 12.3117723 35.2355172 12.3117723 35.2355172 9.01634653 34.5351724 9.01634653"></polygon>
                    <polygon id="Shape" fill="#066DA5" fill-rule="nonzero" points="36.6351724 12.3117723 37.3344828 12.3117723 37.3344828 9.01634653 36.6351724 9.01634653"></polygon>
                    <polygon id="Shape" fill="#066DA5" fill-rule="nonzero" points="38.7346552 12.3117723 39.435 12.3117723 39.435 9.01634653 38.7346552 9.01634653"></polygon>
                    <polygon id="Shape" fill="#066DA5" fill-rule="nonzero" points="36.6351724 5.72092079 37.3344828 5.72092079 37.3344828 2.42549505 36.6351724 2.42549505"></polygon>
                    <polygon id="Shape" fill="#066DA5" fill-rule="nonzero" points="34.5351724 5.72092079 35.2355172 5.72092079 35.2355172 2.42549505 34.5351724 2.42549505"></polygon>
                    <polygon id="Shape" fill="#066DA5" fill-rule="nonzero" points="38.7346552 5.72092079 39.435 5.72092079 39.435 2.42549505 38.7346552 2.42549505"></polygon>
                    <g id="Clipped">
                        <mask id="mask-4" fill="white">
                            <use xlink:href="#path-3"></use>
                        </mask>
                        <g id="c"></g>
                        <polygon id="Shape" fill="#066DA5" fill-rule="nonzero" mask="url(#mask-4)" points="16.3406897 12.3117723 17.0405172 12.3117723 17.0405172 9.01634653 16.3406897 9.01634653"></polygon>
                    </g>
                    <g id="Clipped">
                        <mask id="mask-6" fill="white">
                            <use xlink:href="#path-5"></use>
                        </mask>
                        <g id="c"></g>
                        <path d="M72.6832759,16.9987624 C72.5968966,17.1371881 72.5234483,17.254099 72.4665517,17.3417822 C72.4360345,17.3892772 72.4112069,17.4274356 72.3434483,17.5220198 C71.3043103,19.0974752 69.7784483,20.083505 67.8434483,20.6173168 C66.3118966,21.039901 64.9231034,21.1344851 62.8422414,21.1007921 C62.8215517,21.1003861 62.6912069,21.0983564 62.4786207,21.0951089 L61.9965517,21.0890198 L61.8175862,21.4417822 C55.6955172,33.4909109 42.3263793,39.8938119 24.677069,39.8938119 C14.5882759,39.8938119 8.00431034,36.8951287 4.37224138,31.7790594 C2.97103448,29.8045644 2.07931034,27.5893465 1.66189655,25.3217624 C1.37172414,23.7491485 1.33293103,22.2232178 1.49275862,21.0951089 L4.44362069,21.0951089 L4.44362069,21.0991683 L51.3310345,21.0991683 L51.3310345,21.0886139 C54.102931,21.0638515 56.6948276,20.390802 57.9956897,19.5975941 L58.5693103,19.2480792 L58.1074138,18.8072277 C57.2405172,17.9807327 56.6818966,16.7702178 56.5148276,15.5085545 C56.3162069,13.5831782 56.9105172,11.5445446 58.1518966,10.065703 L58.4622414,9.69792079 L58.9086207,9.9329604 C61.6251724,11.5989406 63.0201724,13.4488119 63.1681034,15.5958317 L63.2146552,16.2761881 L64.0474138,16.1000099 C66.7727586,15.5239802 70.7622414,15.805297 72.2265517,16.5786139 L72.767069,16.8639901 C72.7427586,16.9041782 72.717931,16.9435545 72.6832759,16.9987624 Z M5.84327586,19.9893267 L13.5413793,19.9893267 L13.5413793,14.5083168 L5.84327586,14.5083168 L5.84327586,19.9893267 Z M14.9410345,19.9893267 L22.6391379,19.9893267 L22.6391379,14.5083168 L14.9410345,14.5083168 L14.9410345,19.9893267 Z M14.9410345,13.4098416 L22.6391379,13.4098416 L22.6391379,7.91746535 L14.9410345,7.91746535 L14.9410345,13.4098416 Z M24.0382759,19.9893267 L31.7363793,19.9893267 L31.7363793,14.5083168 L24.0382759,14.5083168 L24.0382759,19.9893267 Z M24.0382759,13.4098416 L31.7363793,13.4098416 L31.7363793,7.91746535 L24.0382759,7.91746535 L24.0382759,13.4098416 Z M33.1360345,19.9893267 L40.8336207,19.9893267 L40.8336207,14.5083168 L33.1360345,14.5083168 L33.1360345,19.9893267 Z M33.1360345,13.4098416 L40.8336207,13.4098416 L40.8336207,7.91746535 L33.1360345,7.91746535 L33.1360345,13.4098416 Z M33.1360345,6.8189901 L40.8336207,6.8189901 L40.8336207,1.3270198 L33.1360345,1.3270198 L33.1360345,6.8189901 Z M42.2332759,19.9893267 L49.9313793,19.9893267 L49.9313793,14.5083168 L42.2332759,14.5083168 L42.2332759,19.9893267 Z M73.0039655,15.6591584 C71.322931,14.7709604 67.4896552,14.4364653 64.487069,14.8878713 C64.0996552,12.6661584 62.5117241,10.7379406 59.7268966,9.03461386 L58.0737931,8.16427723 L56.9860345,9.4539505 C55.5631034,11.1487525 54.8968966,13.4350099 55.1213793,15.6108515 C55.2868966,16.8587129 55.7782759,18.0623267 56.5665517,19.0154752 C55.3753448,19.536703 53.4206897,19.9629406 51.3310345,19.9848614 L51.3310345,13.4098416 L42.2332759,13.4098416 L42.2332759,0.228544554 L31.7363793,0.228544554 L31.7363793,6.8189901 L13.5413793,6.8189901 L13.5413793,13.4098416 L4.44362069,13.4098416 L4.44362069,19.9893267 L0.292241379,19.9893267 L0.193448276,20.4496634 C-0.0786206897,21.7198515 -0.075,23.5725644 0.276724138,25.481297 C0.717931034,27.8763465 1.66086207,30.2206535 3.15155172,32.3201782 C7.03293103,37.7877921 14.0855172,41 24.677069,41 C42.7003448,41 56.5060345,34.4692277 62.9337931,22.208198 C65.1046552,22.2386436 66.6056897,22.1302574 68.3053448,21.661396 C70.5563793,21.0403069 72.3615517,19.8764752 73.5718966,18.0525842 C73.6396552,17.964495 73.7384483,17.8086139 73.9494828,17.4708713 C74.0255172,17.3482772 74.1062069,17.2175644 74.1874138,17.0868515 C74.2148276,17.0409802 74.2412069,16.9987624 74.2944828,16.912297 L74.5587931,16.4787525 L73.0039655,15.6591584 L73.0039655,15.6591584 Z" id="Shape" fill="#066DA5" fill-rule="nonzero" mask="url(#mask-6)"></path>
                    </g>
                </g>
            </g>
        </g>
    </g>
</svg>