<?xml version="1.0" encoding="utf-8"?>
<!-- Generator: Adobe Illustrator 21.0.2, SVG Export Plug-In . SVG Version: 6.00 Build 0)  -->
<svg version="1.1" xmlns="http://www.w3.org/2000/svg" xmlns:xlink="http://www.w3.org/1999/xlink" x="0px" y="0px"
	 viewBox="0 0 524 130" style="enable-background:new 0 0 524 130;" xml:space="preserve">
<path fill="#D8D8D8" d="M515.5,129.5h-77c-4.4,0-8-3.6-8-8v-3c0-4.4,3.6-8,8-8h77c4.4,0,8,3.6,8,8v3
	C523.5,125.9,519.9,129.5,515.5,129.5z"/>
<path fill="#D8D8D8" d="M85.5,129.5h-77c-4.4,0-8-3.6-8-8v-3c0-4.4,3.6-8,8-8h77c4.4,0,8,3.6,8,8v3C93.5,125.9,89.9,129.5,85.5,129.5z"
	/>
<path fill="#389BFF" d="M408.5,49h-7v-2h7V49z M396.5,49h-7v-2h7V49z M384.5,49h-7v-2h7V49z M372.5,49h-7v-2h7V49z M360.5,49h-7v-2h7
	V49z M348.5,49h-7v-2h7V49z M336.5,49h-7v-2h7V49z M324.5,49h-7v-2h7V49z M312.5,49h-7v-2h7V49z M300.5,49h-7v-2h7V49z M288.5,49h-7
	v-2h7V49z M276.5,49h-7v-2h7V49z M264.5,49h-7v-2h7V49z M252.5,49h-7v-2h7V49z M240.5,49h-7v-2h7V49z M228.5,49h-7v-2h7V49z
	 M216.5,49h-7v-2h7V49z M204.5,49h-7v-2h7V49z M192.5,49h-7v-2h7V49z M180.5,49h-7v-2h7V49z M168.5,49h-7v-2h7V49z M156.5,49h-7v-2
	h7V49z M144.5,49h-7v-2h7V49z M132.5,49h-7v-2h7V49z M120.5,49h-7v-2h7V49z"/>
<path id="Line-Copy-decoration-1" fill="none" stroke="#389BFF" stroke-width="2" stroke-linecap="square" stroke-dasharray="5,7" d="M409.5,48l-10.8-3v6L409.5,48z"/>
<g id="c_4_">
</g>
<g>
	<path fill="#6F727F" d="M457.9,121.9l0.2,1.2l0.3-1.1l1.8-6.4h1l1.8,6.4l0.3,1.1l0.2-1.2l1.4-6.3h1.2l-2.2,9.2h-1.1l-1.9-6.7l-0.1-0.7
		l-0.1,0.7l-2,6.7h-1.1l-2.2-9.2h1.2L457.9,121.9z"/>
	<path fill="#6F727F" d="M467.4,121.3c0-0.7,0.1-1.3,0.4-1.8s0.6-1,1.1-1.2c0.5-0.3,1-0.4,1.6-0.4c0.9,0,1.7,0.3,2.3,1
		c0.6,0.6,0.9,1.5,0.9,2.6v0.1c0,0.7-0.1,1.3-0.4,1.8s-0.6,0.9-1.1,1.2c-0.5,0.3-1,0.4-1.6,0.4c-0.9,0-1.7-0.3-2.3-1
		S467.4,122.5,467.4,121.3L467.4,121.3z M468.6,121.5c0,0.8,0.2,1.4,0.5,1.8s0.8,0.7,1.4,0.7s1.1-0.2,1.4-0.7s0.5-1.1,0.5-2
		c0-0.8-0.2-1.4-0.5-1.8s-0.8-0.7-1.4-0.7s-1,0.2-1.4,0.7C468.8,119.9,468.6,120.6,468.6,121.5z"/>
	<path fill="#6F727F" d="M479.1,119c-0.2,0-0.4,0-0.6,0c-0.8,0-1.3,0.3-1.6,1v4.9h-1.2V118h1.1v0.8c0.4-0.6,0.9-0.9,1.6-0.9
		c0.2,0,0.4,0,0.5,0.1v1H479.1z"/>
	<path fill="#6F727F" d="M482.7,121.6l-0.7,0.8v2.4h-1.2V115h1.2v5.9l0.6-0.8l2.1-2.3h1.4l-2.7,2.9l3,4H485L482.7,121.6z"/>
	<path fill="#6F727F" d="M490.8,124.9c-0.9,0-1.7-0.3-2.3-0.9s-0.9-1.4-0.9-2.5v-0.2c0-0.7,0.1-1.3,0.4-1.8s0.6-1,1.1-1.3
		s1-0.5,1.5-0.5c0.9,0,1.6,0.3,2.1,0.9s0.7,1.4,0.7,2.5v0.5h-4.7c0,0.7,0.2,1.2,0.6,1.6s0.9,0.6,1.4,0.6c0.4,0,0.8-0.1,1.1-0.3
		c0.3-0.2,0.5-0.4,0.8-0.7l0.7,0.6C492.8,124.5,491.9,124.9,490.8,124.9z M490.6,118.8c-0.5,0-0.9,0.2-1.2,0.5s-0.5,0.8-0.6,1.5h3.4
		v-0.1c0-0.6-0.2-1.1-0.5-1.4S491.1,118.8,490.6,118.8z"/>
	<path fill="#6F727F" d="M498.8,119c-0.2,0-0.4,0-0.6,0c-0.8,0-1.3,0.3-1.6,1v4.9h-1.2V118h1.1v0.8c0.4-0.6,0.9-0.9,1.6-0.9
		c0.2,0,0.4,0,0.5,0.1v1H498.8z"/>
</g>
<g>
	<path fill="#6F727F" d="M21.6,114l3,7.5l3-7.5h1.6v9.2H28v-3.6l0.1-3.9l-3,7.5h-0.9l-3-7.5l0.1,3.9v3.6h-1.2V114H21.6z"/>
	<path fill="#6F727F" d="M36.1,123.3c-0.1-0.1-0.1-0.4-0.2-0.7c-0.5,0.6-1.2,0.9-2,0.9c-0.7,0-1.2-0.2-1.7-0.6s-0.7-0.9-0.7-1.5
		c0-0.7,0.3-1.3,0.8-1.7s1.3-0.6,2.3-0.6h1.1v-0.5c0-0.4-0.1-0.7-0.4-1c-0.2-0.2-0.6-0.4-1.1-0.4c-0.4,0-0.8,0.1-1.1,0.3
		c-0.3,0.2-0.4,0.5-0.4,0.8h-1.2c0-0.3,0.1-0.7,0.4-1c0.3-0.3,0.6-0.6,1-0.8s0.9-0.3,1.4-0.3c0.8,0,1.4,0.2,1.9,0.6s0.7,0.9,0.7,1.6
		v3.2c0,0.6,0.1,1.1,0.2,1.5v0.1L36.1,123.3L36.1,123.3z M34.2,122.4c0.4,0,0.7-0.1,1-0.3s0.6-0.4,0.7-0.7V120H35
		c-1.4,0-2.2,0.4-2.2,1.3c0,0.4,0.1,0.7,0.4,0.9S33.8,122.4,34.2,122.4z"/>
	<path fill="#6F727F" d="M40.7,116.4v0.9c0.5-0.7,1.2-1,2.1-1c1.5,0,2.2,0.8,2.2,2.5v4.5h-1.2v-4.5c0-0.5-0.1-0.9-0.3-1.1
		s-0.6-0.4-1-0.4s-0.7,0.1-1,0.3c-0.3,0.2-0.5,0.5-0.7,0.8v4.9h-1.2v-6.9C39.6,116.4,40.7,116.4,40.7,116.4z"/>
	<path fill="#6F727F" d="M51.7,123.3c-0.1-0.1-0.1-0.4-0.2-0.7c-0.5,0.6-1.2,0.9-2,0.9c-0.7,0-1.2-0.2-1.7-0.6s-0.7-0.9-0.7-1.5
		c0-0.7,0.3-1.3,0.8-1.7s1.3-0.6,2.3-0.6h1.1v-0.5c0-0.4-0.1-0.7-0.4-1c-0.2-0.2-0.6-0.4-1.1-0.4c-0.4,0-0.8,0.1-1.1,0.3
		c-0.3,0.2-0.4,0.5-0.4,0.8h-1.2c0-0.3,0.1-0.7,0.4-1s0.6-0.6,1-0.8s0.9-0.3,1.4-0.3c0.8,0,1.4,0.2,1.9,0.6s0.7,0.9,0.7,1.6v3.2
		c0,0.6,0.1,1.1,0.2,1.5v0.1L51.7,123.3L51.7,123.3z M49.7,122.4c0.4,0,0.7-0.1,1-0.3s0.6-0.4,0.7-0.7V120h-0.9
		c-1.4,0-2.2,0.4-2.2,1.3c0,0.4,0.1,0.7,0.4,0.9S49.3,122.4,49.7,122.4z"/>
	<path fill="#6F727F" d="M54.9,119.8c0-1.1,0.2-1.9,0.7-2.6c0.5-0.6,1.2-0.9,2-0.9s1.5,0.3,2,0.9l0.1-0.8h1.1v6.7
		c0,0.9-0.3,1.6-0.8,2.1s-1.2,0.8-2.1,0.8c-0.5,0-1-0.1-1.5-0.3s-0.8-0.5-1.1-0.9l0.6-0.7c0.5,0.6,1.1,0.9,1.8,0.9
		c0.6,0,1-0.2,1.3-0.5s0.5-0.8,0.5-1.4v-0.6c-0.5,0.5-1.1,0.8-1.9,0.8c-0.8,0-1.5-0.3-2-1C55.1,121.8,54.9,120.9,54.9,119.8z
		 M56,119.9c0,0.8,0.2,1.4,0.5,1.8s0.8,0.7,1.3,0.7c0.7,0,1.3-0.3,1.6-1v-3.1c-0.4-0.7-0.9-1-1.6-1c-0.6,0-1,0.2-1.3,0.7
		S56,119,56,119.9z"/>
	<path fill="#6F727F" d="M65.9,123.4c-0.9,0-1.7-0.3-2.3-0.9s-0.9-1.4-0.9-2.5v-0.2c0-0.7,0.1-1.3,0.4-1.8c0.3-0.5,0.6-1,1.1-1.3
		c0.5-0.3,1-0.5,1.5-0.5c0.9,0,1.6,0.3,2.1,0.9s0.7,1.4,0.7,2.5v0.5H64c0,0.7,0.2,1.2,0.6,1.6s0.9,0.6,1.4,0.6
		c0.4,0,0.8-0.1,1.1-0.3c0.3-0.2,0.5-0.4,0.8-0.7l0.7,0.6C67.9,123,67.1,123.4,65.9,123.4z M65.8,117.2c-0.5,0-0.9,0.2-1.2,0.5
		s-0.5,0.8-0.6,1.5h3.4v-0.1c0-0.6-0.2-1.1-0.5-1.4S66.3,117.2,65.8,117.2z"/>
	<path fill="#6F727F" d="M73.9,117.5c-0.2,0-0.4,0-0.6,0c-0.8,0-1.3,0.3-1.6,1v4.9h-1.2v-6.9h1.1v0.8c0.4-0.6,0.9-0.9,1.6-0.9
		c0.2,0,0.4,0,0.5,0.1v1H73.9z"/>
</g>
<path fill-rule="evenodd" clip-rule="evenodd" fill="#066DA5" d="M81,41.7c-1.6-1.1-5.2-1.4-8-0.9c-0.4-2.6-1.8-4.9-4.5-7l-1.5-1l-1,1.5c-1.3,2-2,4.7-1.7,7.3
	c0.1,0.9,0.4,2.6,1.3,4c-0.9,0.5-2.8,1.2-5.3,1.2H12.8l-0.1,0.5c-0.4,2.6-0.4,10.9,4.9,17.2c4.1,4.8,10.1,7.2,18.1,7.2
	c17.2,0,30-7.9,35.9-22.3c2.3,0,7.4,0,10-4.9c0.1-0.1,0.2-0.4,0.7-1.4l0.2-0.5L81,41.7z M43.5,29.8h7.2v-6.6h-7.2V29.8z M43.5,37.6
	h7.2v-6.6h-7.2V37.6z M35,37.6h7.2v-6.6H35V37.6z M26.5,37.6h7.2v-6.6h-7.2V37.6z M17.9,45.5h7.2V39h-7.2V45.5z M26.5,45.5h7.2V39
	h-7.2V45.5z M35,45.5h7.2V39H35V45.5z M43.5,45.5h7.2V39h-7.2V45.5z M52.1,45.5h7.2V39h-7.2V45.5z"/>
<g>
	<path fill="#4b738d" d="M47,2.7L91.5,25v44L47,91.3L2.5,69V25L47,2.7 M47,0.5L0.5,23.8v46.5L47,93.5l46.5-23.2V23.8L47,0.5L47,0.5z"/>
</g>
<path fill-rule="evenodd" clip-rule="evenodd" fill="#066DA5" d="M511,41.7c-1.6-1.1-5.2-1.4-8-0.9c-0.4-2.6-1.8-4.9-4.5-7l-1.5-1l-1,1.5c-1.3,2-2,4.7-1.7,7.3
	c0.1,0.9,0.4,2.6,1.3,4c-0.9,0.5-2.8,1.2-5.3,1.2h-47.5l-0.1,0.5c-0.4,2.6-0.4,10.9,4.9,17.2c4.1,4.8,10.1,7.2,18.1,7.2
	c17.2,0,30-7.9,35.9-22.3c2.3,0,7.4,0,10-4.9c0.1-0.1,0.2-0.4,0.7-1.4l0.2-0.5L511,41.7z M473.5,29.8h7.2v-6.6h-7.2V29.8z
	 M473.5,37.6h7.2v-6.6h-7.2V37.6z M465,37.6h7.2v-6.6H465V37.6z M456.5,37.6h7.2v-6.6h-7.2V37.6z M447.9,45.5h7.2V39h-7.2V45.5z
	 M456.5,45.5h7.2V39h-7.2V45.5z M465,45.5h7.2V39H465V45.5z M473.5,45.5h7.2V39h-7.2V45.5z M482.1,45.5h7.2V39h-7.2V45.5z"/>
<g>
	<path fill="#4b738d" d="M477,2.7L521.5,25v44L477,91.3L432.5,69V25L477,2.7 M477,0.5l-46.5,23.3v46.5L477,93.5l46.5-23.2V23.8L477,0.5
		L477,0.5z"/>
</g>
</svg>
