<?xml version="1.0" encoding="utf-8"?>
<!-- Generator: Adobe Illustrator 21.0.2, SVG Export Plug-In . SVG Version: 6.00 Build 0)  -->
<svg version="1.1" id="Layer_1" xmlns="http://www.w3.org/2000/svg" xmlns:xlink="http://www.w3.org/1999/xlink" x="0px" y="0px"
	 viewBox="0 0 93 93" style="enable-background:new 0 0 93 93;" xml:space="preserve">
<style type="text/css">
	.st0{fill:#4b738d;}
	.st1{fill:#239AD8;}
	.st2{fill:#FFFFFF;}
</style>
<desc>Created with Sketch.</desc>
<g>
	<path class="st0" d="M46.5,2.2L91,24.5v44L46.5,90.8L2,68.5v-44L46.5,2.2 M46.5,0L0,23.3v46.5L46.5,93L93,69.8V23.3L46.5,0L46.5,0z
		"/>
</g>
<path class="st1" d="M74.6,52.7L52.7,74.5c-3.1,3.1-8.2,3.1-11.3,0l-22-21.9c-3.1-3.1-3.1-8.2,0-11.3l21.9-21.9
	c3.1-3.1,8.2-3.1,11.3,0l21.9,21.9C77.7,44.5,77.7,49.5,74.6,52.7z"/>
<path class="st2" d="M58.4,63h-1.2V47H36.8v16h-1.2V31h1.2v15h20.4V31h1.2C58.4,31,58.4,63,58.4,63z"/>
<g>
	<path class="st0" d="M46.5,3.6l43.1,21.6v42.6L46.5,89.4L3.4,67.8V25.2L46.5,3.6 M46.5,1.5L1.5,24v45l45,22.5l45-22.5V24L46.5,1.5
		L46.5,1.5z"/>
</g>
</svg>
