<?xml version="1.0" encoding="utf-8"?>
<!-- Generator: Adobe Illustrator 21.0.2, SVG Export Plug-In . SVG Version: 6.00 Build 0)  -->
<svg version="1.1" xmlns="http://www.w3.org/2000/svg" xmlns:xlink="http://www.w3.org/1999/xlink" x="0px" y="0px"
	 viewBox="0 0 523 129" style="enable-background:new 0 0 523 129;" xml:space="preserve">
<path fill="#239AD8" d="M504.6,52.7l-21.9,21.9c-3.1,3.1-8.2,3.1-11.3,0l-21.9-21.9c-3.1-3.1-3.1-8.2,0-11.3l21.9-21.9
	c3.1-3.1,8.2-3.1,11.3,0l21.9,21.9C507.7,44.5,507.7,49.5,504.6,52.7z"/>
<path fill="#D8D8D8" d="M85.5,129.5h-77c-4.4,0-8-3.6-8-8v-3c0-4.4,3.6-8,8-8h77c4.4,0,8,3.6,8,8v3C93.5,125.9,89.9,129.5,85.5,129.5z"
	/>
<path fill="#D8D8D8" d="M515.5,129.5h-77c-4.4,0-8-3.6-8-8v-3c0-4.4,3.6-8,8-8h77c4.4,0,8,3.6,8,8v3
	C523.5,125.9,519.9,129.5,515.5,129.5z"/>
<path fill="#389BFF" d="M408.5,40h-7v-2h7V40z M396.5,40h-7v-2h7V40z M384.5,40h-7v-2h7V40z M372.5,40h-7v-2h7V40z M360.5,40h-7v-2h7
	V40z M348.5,40h-7v-2h7V40z M336.5,40h-7v-2h7V40z M324.5,40h-7v-2h7V40z M312.5,40h-7v-2h7V40z M300.5,40h-7v-2h7V40z M288.5,40h-7
	v-2h7V40z M276.5,40h-7v-2h7V40z M264.5,40h-7v-2h7V40z M252.5,40h-7v-2h7V40z M240.5,40h-7v-2h7V40z M228.5,40h-7v-2h7V40z
	 M216.5,40h-7v-2h7V40z M204.5,40h-7v-2h7V40z M192.5,40h-7v-2h7V40z M180.5,40h-7v-2h7V40z M168.5,40h-7v-2h7V40z M156.5,40h-7v-2
	h7V40z M144.5,40h-7v-2h7V40z M132.5,40h-7v-2h7V40z M120.5,40h-7v-2h7V40z"/>
<path fill="none" stroke="#389BFF" stroke-width="2" stroke-linecap="square" stroke-dasharray="5,7" d="M409.5,39l-10.8-3v6L409.5,39z"/>
<g>
	<path fill="#239AE8" d="M47,2.7L91.5,25v44L47,91.3L2.5,69V25L47,2.7 M47,0.5L0.5,23.8v46.5L47,93.5l46.5-23.3V23.8L47,0.5L47,0.5z"/>
</g>
<g>
	<path fill="#239AE8" d="M477,2.7L521.5,25v44L477,91.3L432.5,69V25L477,2.7 M477,0.5l-46.5,23.3v46.5L477,93.5l46.5-23.3V23.8L477,0.5
		L477,0.5z"/>
</g>
<path fill="#389BFF" d="M114.5,50h7v2h-7V50z M126.5,50h7v2h-7V50z M138.5,50h7v2h-7V50z M150.5,50h7v2h-7V50z M162.5,50h7v2h-7V50z
	 M174.5,50h7v2h-7V50z M186.5,50h7v2h-7V50z M198.5,50h7v2h-7V50z M210.5,50h7v2h-7V50z M222.5,50h7v2h-7V50z M234.5,50h7v2h-7V50z
	 M246.5,50h7v2h-7V50z M258.5,50h7v2h-7V50z M270.5,50h7v2h-7V50z M282.5,50h7v2h-7V50z M294.5,50h7v2h-7V50z M306.5,50h7v2h-7V50z
	 M318.5,50h7v2h-7V50z M330.5,50h7v2h-7V50z M342.5,50h7v2h-7V50z M354.5,50h7v2h-7V50z M366.5,50h7v2h-7V50z M378.5,50h7v2h-7V50z
	 M390.5,50h7v2h-7V50z M402.5,50h7v2h-7V50z"/>
<path fill="none" stroke="#389BFF" stroke-width="2" stroke-linecap="square" stroke-dasharray="5,7" d="M113.5,51l10.8,3v-6L113.5,51z"/>
<path fill="#FFFFFF" d="M488.4,63h-1.2V47.1h-20.4V63h-1.2V31h1.2v15h20.4V31h1.2V63z"/>
<g>
	<path fill="#6F727F" d="M24.2,124.6h-1.2v-9.2h1.2V124.6z"/>
	<path fill="#6F727F" d="M28,117.8l0,0.9c0.5-0.7,1.2-1,2.1-1c1.5,0,2.2,0.8,2.2,2.5v4.5h-1.2v-4.5c0-0.5-0.1-0.9-0.3-1.1
		c-0.2-0.2-0.6-0.4-1-0.4c-0.4,0-0.7,0.1-1,0.3c-0.3,0.2-0.5,0.5-0.7,0.8v4.9h-1.2v-6.9H28z"/>
	<path fill="#6F727F" d="M34.7,115.9c0-0.2,0.1-0.4,0.2-0.5c0.1-0.1,0.3-0.2,0.5-0.2s0.4,0.1,0.5,0.2c0.1,0.1,0.2,0.3,0.2,0.5
		c0,0.2-0.1,0.3-0.2,0.5s-0.3,0.2-0.5,0.2s-0.4-0.1-0.5-0.2S34.7,116.1,34.7,115.9z M36,124.6h-1.2v-6.9H36V124.6z"/>
	<path fill="#6F727F" d="M40.1,116.1v1.7h1.3v0.9h-1.3v4.3c0,0.3,0.1,0.5,0.2,0.6s0.3,0.2,0.6,0.2c0.1,0,0.3,0,0.6-0.1v0.9
		c-0.3,0.1-0.6,0.1-0.9,0.1c-0.5,0-0.9-0.2-1.2-0.5c-0.3-0.3-0.4-0.8-0.4-1.4v-4.3h-1.3v-0.9h1.3v-1.7H40.1z"/>
	<path fill="#6F727F" d="M43.4,115.9c0-0.2,0.1-0.4,0.2-0.5c0.1-0.1,0.3-0.2,0.5-0.2s0.4,0.1,0.5,0.2c0.1,0.1,0.2,0.3,0.2,0.5
		c0,0.2-0.1,0.3-0.2,0.5s-0.3,0.2-0.5,0.2s-0.4-0.1-0.5-0.2S43.4,116.1,43.4,115.9z M44.7,124.6h-1.2v-6.9h1.2V124.6z"/>
	<path fill="#6F727F" d="M51.4,124.6c-0.1-0.1-0.1-0.4-0.2-0.7c-0.5,0.6-1.2,0.9-2,0.9c-0.7,0-1.2-0.2-1.7-0.6s-0.7-0.9-0.7-1.5
		c0-0.7,0.3-1.3,0.8-1.7s1.3-0.6,2.3-0.6h1.1v-0.5c0-0.4-0.1-0.7-0.4-1c-0.2-0.2-0.6-0.4-1.1-0.4c-0.4,0-0.8,0.1-1.1,0.3
		c-0.3,0.2-0.4,0.5-0.4,0.8h-1.2c0-0.3,0.1-0.7,0.4-1s0.6-0.6,1-0.8s0.9-0.3,1.4-0.3c0.8,0,1.4,0.2,1.9,0.6s0.7,0.9,0.7,1.6v3.2
		c0,0.6,0.1,1.1,0.2,1.5v0.1H51.4z M49.5,123.7c0.4,0,0.7-0.1,1-0.3s0.6-0.4,0.7-0.7v-1.4h-0.9c-1.4,0-2.2,0.4-2.2,1.3
		c0,0.4,0.1,0.7,0.4,0.9S49.1,123.7,49.5,123.7z"/>
	<path fill="#6F727F" d="M56.5,116.1v1.7h1.3v0.9h-1.3v4.3c0,0.3,0.1,0.5,0.2,0.6s0.3,0.2,0.6,0.2c0.1,0,0.3,0,0.6-0.1v0.9
		c-0.3,0.1-0.6,0.1-0.9,0.1c-0.5,0-0.9-0.2-1.2-0.5c-0.3-0.3-0.4-0.8-0.4-1.4v-4.3h-1.3v-0.9h1.3v-1.7H56.5z"/>
	<path fill="#6F727F" d="M59.4,121.1c0-0.7,0.1-1.3,0.4-1.8c0.3-0.5,0.6-1,1.1-1.2c0.5-0.3,1-0.4,1.6-0.4c0.9,0,1.7,0.3,2.3,1
		c0.6,0.6,0.9,1.5,0.9,2.6v0.1c0,0.7-0.1,1.3-0.4,1.8s-0.6,0.9-1.1,1.2c-0.5,0.3-1,0.4-1.6,0.4c-0.9,0-1.7-0.3-2.3-1
		C59.7,123.1,59.4,122.3,59.4,121.1L59.4,121.1z M60.5,121.3c0,0.8,0.2,1.4,0.5,1.8s0.8,0.7,1.4,0.7c0.6,0,1.1-0.2,1.4-0.7
		s0.5-1.1,0.5-2c0-0.8-0.2-1.4-0.5-1.8s-0.8-0.7-1.4-0.7c-0.6,0-1,0.2-1.4,0.7C60.7,119.7,60.5,120.4,60.5,121.3z"/>
	<path fill="#6F727F" d="M71.1,118.8c-0.2,0-0.4,0-0.6,0c-0.8,0-1.3,0.3-1.6,1v4.9h-1.2v-6.9h1.1l0,0.8c0.4-0.6,0.9-0.9,1.6-0.9
		c0.2,0,0.4,0,0.5,0.1V118.8z"/>
</g>
<g>
	<path fill="#6F727F" d="M465,120.9h-3.9l-0.9,2.4H459l3.5-9.2h1.1l3.5,9.2h-1.3L465,120.9z M461.5,119.9h3.1l-1.6-4.3L461.5,119.9z"/>
	<path fill="#6F727F" d="M468.5,119.8c0-1.1,0.2-1.9,0.7-2.6c0.5-0.6,1.2-0.9,2-0.9c0.8,0,1.5,0.3,2,0.9l0.1-0.8h1.1v6.7
		c0,0.9-0.3,1.6-0.8,2.1c-0.5,0.5-1.2,0.8-2.1,0.8c-0.5,0-1-0.1-1.5-0.3s-0.8-0.5-1.1-0.9l0.6-0.7c0.5,0.6,1.1,0.9,1.8,0.9
		c0.6,0,1-0.2,1.3-0.5c0.3-0.3,0.5-0.8,0.5-1.4v-0.6c-0.5,0.5-1.1,0.8-1.9,0.8c-0.8,0-1.5-0.3-2-1
		C468.8,121.8,468.5,120.9,468.5,119.8z M469.7,119.9c0,0.8,0.2,1.4,0.5,1.8c0.3,0.4,0.8,0.7,1.3,0.7c0.7,0,1.3-0.3,1.6-1v-3.1
		c-0.4-0.7-0.9-1-1.6-1c-0.6,0-1,0.2-1.3,0.7S469.7,119,469.7,119.9z"/>
	<path fill="#6F727F" d="M479.6,123.4c-0.9,0-1.7-0.3-2.3-0.9s-0.9-1.4-0.9-2.5v-0.2c0-0.7,0.1-1.3,0.4-1.8c0.3-0.5,0.6-1,1.1-1.3
		s1-0.5,1.5-0.5c0.9,0,1.6,0.3,2.1,0.9c0.5,0.6,0.7,1.4,0.7,2.5v0.5h-4.7c0,0.7,0.2,1.2,0.6,1.6s0.9,0.6,1.4,0.6
		c0.4,0,0.8-0.1,1.1-0.3c0.3-0.2,0.5-0.4,0.8-0.7l0.7,0.6C481.6,123,480.8,123.4,479.6,123.4z M479.5,117.2c-0.5,0-0.9,0.2-1.2,0.5
		s-0.5,0.8-0.6,1.5h3.4v-0.1c0-0.6-0.2-1.1-0.5-1.4S480,117.2,479.5,117.2z"/>
	<path fill="#6F727F" d="M485.4,116.4l0,0.9c0.5-0.7,1.2-1,2.1-1c1.5,0,2.2,0.8,2.2,2.5v4.5h-1.2v-4.5c0-0.5-0.1-0.9-0.3-1.1
		c-0.2-0.2-0.6-0.4-1-0.4c-0.4,0-0.7,0.1-1,0.3c-0.3,0.2-0.5,0.5-0.7,0.8v4.9h-1.2v-6.9H485.4z"/>
	<path fill="#6F727F" d="M493.7,114.7v1.7h1.3v0.9h-1.3v4.3c0,0.3,0.1,0.5,0.2,0.6s0.3,0.2,0.6,0.2c0.1,0,0.3,0,0.6-0.1v0.9
		c-0.3,0.1-0.6,0.1-0.9,0.1c-0.5,0-0.9-0.2-1.2-0.5c-0.3-0.3-0.4-0.8-0.4-1.4v-4.3h-1.3v-0.9h1.3v-1.7H493.7z"/>
</g>
<path fill="#239AD8" d="M74.6,52.7L52.7,74.6c-3.1,3.1-8.2,3.1-11.3,0L19.4,52.7c-3.1-3.1-3.1-8.2,0-11.3l21.9-21.9
	c3.1-3.1,8.2-3.1,11.3,0l21.9,21.9C77.7,44.5,77.7,49.5,74.6,52.7z"/>
<path fill="#FFFFFF" d="M58.4,63h-1.2V47.1H36.8V63h-1.2V31h1.2v15h20.4V31h1.2V63z"/>
</svg>
