<?xml version="1.0" encoding="utf-8"?>
<!-- Generator: Adobe Illustrator 21.0.2, SVG Export Plug-In . SVG Version: 6.00 Build 0)  -->
<svg version="1.1" xmlns="http://www.w3.org/2000/svg" xmlns:xlink="http://www.w3.org/1999/xlink" x="0px" y="0px"
	 viewBox="0 0 524 130" style="enable-background:new 0 0 524 130;" xml:space="preserve">
<path fill="#D8D8D8" d="M515.5,129.5h-77c-4.4,0-8-3.6-8-8v-3c0-4.4,3.6-8,8-8h77c4.4,0,8,3.6,8,8v3
	C523.5,125.9,519.9,129.5,515.5,129.5z"/>
<path fill="#D8D8D8" d="M85.5,129.5h-77c-4.4,0-8-3.6-8-8v-3c0-4.4,3.6-8,8-8h77c4.4,0,8,3.6,8,8v3C93.5,125.9,89.9,129.5,85.5,129.5z"
	/>
<path fill="#389BFF" d="M408.5,49h-7v-2h7V49z M396.5,49h-7v-2h7V49z M384.5,49h-7v-2h7V49z M372.5,49h-7v-2h7V49z M360.5,49h-7v-2h7
	V49z M348.5,49h-7v-2h7V49z M336.5,49h-7v-2h7V49z M324.5,49h-7v-2h7V49z M312.5,49h-7v-2h7V49z M300.5,49h-7v-2h7V49z M288.5,49h-7
	v-2h7V49z M276.5,49h-7v-2h7V49z M264.5,49h-7v-2h7V49z M252.5,49h-7v-2h7V49z M240.5,49h-7v-2h7V49z M228.5,49h-7v-2h7V49z
	 M216.5,49h-7v-2h7V49z M204.5,49h-7v-2h7V49z M192.5,49h-7v-2h7V49z M180.5,49h-7v-2h7V49z M168.5,49h-7v-2h7V49z M156.5,49h-7v-2
	h7V49z M144.5,49h-7v-2h7V49z M132.5,49h-7v-2h7V49z M120.5,49h-7v-2h7V49z"/>
<path fill="none" stroke="#389BFF" stroke-width="2" stroke-linecap="square" stroke-dasharray="5,7" d="M409.5,48l-10.8-3v6L409.5,48z"/>
<g>
</g>
<g>
	<path fill="#239AE8" d="M47,2.7L91.5,25v44L47,91.3L2.5,69V25L47,2.7 M47,0.5L0.5,23.8v46.5L47,93.5l46.5-23.3V23.8L47,0.5L47,0.5z"/>
</g>
<g>
	<path fill="#239AE8" d="M477,2.7L521.5,25v44L477,91.3L432.5,69V25L477,2.7 M477,0.5l-46.5,23.3v46.5L477,93.5l46.5-23.3V23.8L477,0.5
		L477,0.5z"/>
</g>
<g>
	<path fill="#6F727F" d="M27.3,115.3l3,7.5l3-7.5h1.6v9.2h-1.2V121l0.1-3.9l-3,7.5h-0.9l-3-7.5l0.1,3.9v3.6h-1.2v-9.2H27.3z"/>
	<path fill="#6F727F" d="M41.7,124.6c-0.1-0.1-0.1-0.4-0.2-0.7c-0.5,0.6-1.2,0.9-2,0.9c-0.7,0-1.2-0.2-1.7-0.6
		c-0.4-0.4-0.7-0.9-0.7-1.5c0-0.7,0.3-1.3,0.8-1.7c0.5-0.4,1.3-0.6,2.3-0.6h1.1v-0.5c0-0.4-0.1-0.7-0.4-1c-0.2-0.2-0.6-0.4-1.1-0.4
		c-0.4,0-0.8,0.1-1.1,0.3s-0.4,0.5-0.4,0.8h-1.2c0-0.3,0.1-0.7,0.4-1c0.2-0.3,0.6-0.6,1-0.8c0.4-0.2,0.9-0.3,1.4-0.3
		c0.8,0,1.4,0.2,1.9,0.6c0.4,0.4,0.7,0.9,0.7,1.6v3.2c0,0.6,0.1,1.1,0.2,1.5v0.1H41.7z M39.8,123.7c0.4,0,0.7-0.1,1-0.3
		s0.6-0.4,0.7-0.7v-1.4h-0.9c-1.4,0-2.2,0.4-2.2,1.3c0,0.4,0.1,0.7,0.4,0.9S39.4,123.7,39.8,123.7z"/>
	<path fill="#6F727F" d="M49.2,122.7c0-0.3-0.1-0.6-0.4-0.7c-0.2-0.2-0.7-0.3-1.3-0.5c-0.6-0.1-1.1-0.3-1.4-0.5
		c-0.3-0.2-0.6-0.4-0.8-0.6c-0.2-0.2-0.3-0.5-0.3-0.9c0-0.6,0.2-1,0.7-1.4c0.5-0.4,1.1-0.6,1.8-0.6c0.8,0,1.4,0.2,1.9,0.6
		c0.5,0.4,0.7,0.9,0.7,1.5h-1.2c0-0.3-0.1-0.6-0.4-0.8c-0.3-0.2-0.6-0.3-1-0.3c-0.4,0-0.8,0.1-1,0.3s-0.4,0.4-0.4,0.7
		c0,0.3,0.1,0.5,0.3,0.6s0.6,0.3,1.2,0.4c0.6,0.1,1.1,0.3,1.4,0.5s0.6,0.4,0.8,0.7c0.2,0.3,0.3,0.6,0.3,0.9c0,0.6-0.2,1.1-0.7,1.5
		c-0.5,0.4-1.1,0.6-1.9,0.6c-0.6,0-1-0.1-1.5-0.3s-0.8-0.5-1-0.8c-0.2-0.3-0.4-0.7-0.4-1.1h1.2c0,0.4,0.2,0.7,0.5,0.9
		c0.3,0.2,0.7,0.3,1.2,0.3c0.4,0,0.8-0.1,1.1-0.3C49.1,123.3,49.2,123,49.2,122.7z"/>
	<path fill="#6F727F" d="M54.2,116v1.7h1.3v0.9h-1.3v4.3c0,0.3,0.1,0.5,0.2,0.6s0.3,0.2,0.6,0.2c0.1,0,0.3,0,0.6-0.1v0.9
		c-0.3,0.1-0.6,0.1-0.9,0.1c-0.5,0-0.9-0.2-1.2-0.5s-0.4-0.8-0.4-1.4v-4.3h-1.3v-0.9H53V116H54.2z"/>
	<path fill="#6F727F" d="M60.3,124.7c-0.9,0-1.7-0.3-2.3-0.9c-0.6-0.6-0.9-1.4-0.9-2.5v-0.2c0-0.7,0.1-1.3,0.4-1.8
		c0.3-0.5,0.6-1,1.1-1.3c0.5-0.3,1-0.5,1.5-0.5c0.9,0,1.6,0.3,2.1,0.9s0.7,1.4,0.7,2.5v0.5h-4.7c0,0.7,0.2,1.2,0.6,1.6
		c0.4,0.4,0.9,0.6,1.4,0.6c0.4,0,0.8-0.1,1.1-0.3s0.5-0.4,0.8-0.7l0.7,0.6C62.3,124.2,61.5,124.7,60.3,124.7z M60.2,118.5
		c-0.5,0-0.9,0.2-1.2,0.5c-0.3,0.3-0.5,0.8-0.6,1.5h3.4v-0.1c0-0.6-0.2-1.1-0.5-1.4C61,118.7,60.7,118.5,60.2,118.5z"/>
	<path fill="#6F727F" d="M68.3,118.7c-0.2,0-0.4,0-0.6,0c-0.8,0-1.3,0.3-1.6,1v4.9H65v-6.9h1.1l0,0.8c0.4-0.6,0.9-0.9,1.6-0.9
		c0.2,0,0.4,0,0.5,0.1V118.7z"/>
</g>
<g>
	<path fill="#6F727F" d="M468.4,124.8h-1.2l-4.7-7.1v7.1h-1.2v-9.2h1.2l4.7,7.2v-7.2h1.2V124.8z"/>
	<path fill="#6F727F" d="M470.8,121.3c0-0.7,0.1-1.3,0.4-1.8c0.3-0.5,0.6-1,1.1-1.2c0.5-0.3,1-0.4,1.6-0.4c0.9,0,1.7,0.3,2.3,1
		c0.6,0.6,0.9,1.5,0.9,2.6v0.1c0,0.7-0.1,1.3-0.4,1.8c-0.3,0.5-0.6,0.9-1.1,1.2c-0.5,0.3-1,0.4-1.6,0.4c-0.9,0-1.7-0.3-2.3-1
		C471.1,123.3,470.8,122.5,470.8,121.3L470.8,121.3z M471.9,121.5c0,0.8,0.2,1.4,0.5,1.8c0.4,0.5,0.8,0.7,1.4,0.7
		c0.6,0,1.1-0.2,1.4-0.7c0.4-0.5,0.5-1.1,0.5-2c0-0.8-0.2-1.4-0.5-1.8c-0.4-0.5-0.8-0.7-1.4-0.7c-0.6,0-1,0.2-1.4,0.7
		C472.1,119.9,471.9,120.6,471.9,121.5z"/>
	<path fill="#6F727F" d="M478.9,121.3c0-1.1,0.2-1.9,0.7-2.5c0.5-0.6,1.2-1,2-1c0.8,0,1.4,0.3,1.9,0.8v-3.6h1.2v9.8h-1.1l-0.1-0.7
		c-0.5,0.6-1.1,0.9-2,0.9c-0.8,0-1.4-0.3-1.9-1C479.1,123.3,478.9,122.5,478.9,121.3L478.9,121.3z M480,121.5c0,0.8,0.2,1.4,0.5,1.8
		c0.3,0.4,0.8,0.7,1.3,0.7c0.7,0,1.3-0.3,1.6-1v-3.2c-0.4-0.6-0.9-1-1.6-1c-0.6,0-1,0.2-1.3,0.7S480,120.6,480,121.5z"/>
	<path fill="#6F727F" d="M490,124.9c-0.9,0-1.7-0.3-2.3-0.9c-0.6-0.6-0.9-1.4-0.9-2.5v-0.2c0-0.7,0.1-1.3,0.4-1.8
		c0.3-0.5,0.6-1,1.1-1.3c0.5-0.3,1-0.5,1.5-0.5c0.9,0,1.6,0.3,2.1,0.9c0.5,0.6,0.7,1.4,0.7,2.5v0.5H488c0,0.7,0.2,1.2,0.6,1.6
		c0.4,0.4,0.9,0.6,1.4,0.6c0.4,0,0.8-0.1,1.1-0.3c0.3-0.2,0.5-0.4,0.8-0.7l0.7,0.6C492,124.5,491.1,124.9,490,124.9z M489.8,118.8
		c-0.5,0-0.9,0.2-1.2,0.5s-0.5,0.8-0.6,1.5h3.4v-0.1c0-0.6-0.2-1.1-0.5-1.4C490.7,118.9,490.3,118.8,489.8,118.8z"/>
</g>
<g transform="translate(-6.3260942,-174.7524)">
	<g>
		
			<path fill="#326CE5" d="
			M53.1,192.6c-0.5,0-1.1,0.2-1.5,0.4l-20.9,10c-1.1,0.5-1.9,1.5-2.2,2.7l-5.1,22.4c-0.2,1,0,2.1,0.5,3c0.1,0.1,0.1,0.2,0.2,0.3
			l14.4,18c0.8,0.9,1.9,1.5,3.1,1.5l23.2,0c1.2,0,2.4-0.5,3.1-1.5l14.4-18c0.8-0.9,1-2.2,0.8-3.3l-5.2-22.4
			c-0.3-1.2-1.1-2.2-2.2-2.7l-20.9-10C54.5,192.7,53.8,192.6,53.1,192.6z"/>
		
			<path fill="#FFFFFF" stroke="#FFFFFF" stroke-width="0.25" d="
			M53.3,200.3c-0.7,0-1.2,0.6-1.2,1.4c0,0,0,0,0,0c0,0.1,0,0.2,0,0.3c0,0.4,0.1,0.8,0.2,1.2c0.1,0.9,0.2,1.6,0.1,2.3
			c-0.1,0.3-0.2,0.5-0.4,0.6l0,0.5c-0.7,0.1-1.5,0.2-2.3,0.3c-3.2,0.7-6,2.4-8.2,4.7c-0.1-0.1-0.4-0.3-0.5-0.3
			c-0.2,0-0.4,0.1-0.7-0.1c-0.6-0.4-1.1-0.9-1.7-1.5c-0.3-0.3-0.5-0.6-0.8-0.9c-0.1-0.1-0.2-0.2-0.3-0.2c-0.3-0.2-0.6-0.3-0.9-0.3
			c-0.4,0-0.8,0.1-1,0.4c-0.4,0.5-0.3,1.4,0.3,1.8c0,0,0,0,0,0c0.1,0.1,0.2,0.2,0.3,0.2c0.4,0.3,0.7,0.4,1,0.6
			c0.7,0.5,1.4,0.8,1.9,1.3c0.2,0.2,0.2,0.6,0.3,0.7l0.4,0.4c-2.1,3.2-3.1,7.2-2.5,11.3l-0.5,0.2c-0.1,0.2-0.3,0.5-0.5,0.5
			c-0.6,0.2-1.4,0.3-2.2,0.4c-0.4,0-0.8,0-1.2,0.1c-0.1,0-0.2,0.1-0.3,0.1c0,0,0,0,0,0c0,0,0,0,0,0c-0.7,0.2-1.2,0.9-1.1,1.5
			c0.2,0.7,0.9,1.1,1.6,0.9c0,0,0,0,0,0c0,0,0,0,0,0c0.1,0,0.2,0,0.3-0.1c0.4-0.1,0.7-0.3,1.1-0.4c0.8-0.3,1.5-0.5,2.2-0.6
			c0.3,0,0.6,0.2,0.7,0.3l0.5-0.1c1.3,3.9,3.9,7,7.2,9l-0.2,0.5c0.1,0.2,0.2,0.5,0.1,0.7c-0.2,0.6-0.7,1.3-1.1,2
			c-0.2,0.3-0.5,0.6-0.7,1c0,0.1-0.1,0.2-0.2,0.3c-0.3,0.7-0.1,1.5,0.5,1.8c0.6,0.3,1.4,0,1.7-0.7c0,0,0,0,0,0c0,0,0,0,0,0
			c0-0.1,0.1-0.2,0.2-0.3c0.2-0.4,0.2-0.8,0.4-1.1c0.3-0.8,0.5-1.7,1-2.2c0.1-0.1,0.3-0.2,0.5-0.3l0.3-0.5c2.9,1.1,6.1,1.4,9.4,0.7
			c0.7-0.2,1.5-0.4,2.1-0.6c0.1,0.1,0.2,0.4,0.3,0.5c0.2,0.1,0.4,0.1,0.6,0.4c0.3,0.6,0.6,1.3,0.9,2.1c0.1,0.4,0.2,0.7,0.4,1.1
			c0,0.1,0.1,0.2,0.2,0.3c0.3,0.7,1.1,1,1.7,0.7c0.6-0.3,0.9-1.1,0.5-1.8c0-0.1-0.1-0.2-0.2-0.3c-0.2-0.4-0.4-0.7-0.7-1
			c-0.5-0.7-0.9-1.4-1.1-2c-0.1-0.3,0-0.5,0.1-0.7c0-0.1-0.1-0.4-0.2-0.5c3.5-2,6-5.3,7.2-9.1c0.2,0,0.4,0.1,0.5,0.1
			c0.2-0.1,0.4-0.3,0.7-0.3c0.7,0.1,1.4,0.3,2.2,0.6c0.4,0.1,0.7,0.3,1.1,0.4c0.1,0,0.2,0,0.3,0.1c0,0,0,0,0,0c0,0,0,0,0,0
			c0.7,0.2,1.5-0.2,1.6-0.9c0.2-0.7-0.3-1.3-1.1-1.5c-0.1,0-0.3-0.1-0.4-0.1c-0.4-0.1-0.8-0.1-1.2-0.1c-0.9-0.1-1.6-0.2-2.2-0.4
			c-0.3-0.1-0.4-0.4-0.5-0.5l-0.5-0.1c0.3-1.9,0.2-3.9-0.3-5.8c-0.5-2-1.3-3.8-2.3-5.4c0.1-0.1,0.4-0.3,0.4-0.4c0-0.2,0-0.5,0.2-0.7
			c0.5-0.5,1.1-0.8,1.9-1.3c0.4-0.2,0.7-0.3,1-0.6c0.1-0.1,0.2-0.2,0.3-0.2c0.6-0.5,0.7-1.3,0.3-1.8s-1.3-0.6-1.9-0.1
			c-0.1,0.1-0.2,0.2-0.3,0.2c-0.3,0.3-0.5,0.6-0.8,0.9c-0.6,0.6-1.1,1.1-1.7,1.5c-0.2,0.1-0.6,0.1-0.8,0.1l-0.5,0.3
			c-2.7-2.8-6.4-4.7-10.4-5c0-0.2,0-0.5,0-0.6c-0.2-0.2-0.4-0.3-0.4-0.6c-0.1-0.7,0-1.4,0.1-2.3c0.1-0.4,0.2-0.7,0.2-1.2
			c0-0.1,0-0.2,0-0.4C54.6,200.9,54,200.3,53.3,200.3L53.3,200.3z M51.8,210l-0.4,6.5l0,0c0,0.6-0.5,1.1-1.1,1.1
			c-0.2,0-0.5-0.1-0.6-0.2l0,0l-5.4-3.8c1.7-1.6,3.8-2.8,6.2-3.4C50.9,210.1,51.3,210,51.8,210z M54.9,210c2.8,0.3,5.5,1.6,7.5,3.6
			l-5.3,3.8l0,0c-0.5,0.3-1.1,0.3-1.5-0.2c-0.2-0.2-0.2-0.4-0.2-0.6l0,0L54.9,210z M42.3,216l4.9,4.4l0,0c0.4,0.4,0.5,1.1,0.1,1.5
			c-0.2,0.2-0.4,0.3-0.6,0.4l0,0l-6.3,1.8C40.1,221.2,40.8,218.4,42.3,216z M64.3,216c0.7,1.2,1.3,2.5,1.6,3.9
			c0.3,1.4,0.4,2.8,0.3,4.2l-6.3-1.8l0,0c-0.6-0.2-0.9-0.7-0.8-1.3c0.1-0.2,0.2-0.4,0.3-0.6l0,0L64.3,216L64.3,216z M52.3,220.7h2
			l1.2,1.6l-0.4,1.9l-1.8,0.9l-1.8-0.9l-0.4-1.9L52.3,220.7z M58.8,226.1c0.1,0,0.2,0,0.3,0l0,0l6.5,1.1c-1,2.7-2.8,5-5.2,6.5
			l-2.5-6.1l0,0c-0.2-0.5,0-1.2,0.5-1.4C58.5,226.1,58.6,226.1,58.8,226.1L58.8,226.1z M47.8,226.1c0.5,0,0.9,0.4,1.1,0.9
			c0.1,0.2,0,0.5-0.1,0.7l0,0l-2.5,6c-2.3-1.5-4.2-3.7-5.2-6.5l6.4-1.1l0,0C47.7,226.1,47.8,226.1,47.8,226.1L47.8,226.1z
			 M53.3,228.7c0.2,0,0.3,0,0.5,0.1c0.2,0.1,0.4,0.3,0.5,0.5h0l3.2,5.7c-0.4,0.1-0.8,0.3-1.3,0.4c-2.4,0.6-4.9,0.4-7-0.4l3.2-5.7h0
			C52.5,229,52.9,228.8,53.3,228.7z"/>
	</g>
</g>
<g transform="translate(-6.3260942,-174.7524)">
	<g>
		
			<path fill="#326CE5" d="
			M483.1,192.6c-0.5,0-1.1,0.2-1.5,0.4l-20.9,10c-1.1,0.5-1.9,1.5-2.2,2.7l-5.1,22.4c-0.2,1,0,2.1,0.5,3c0.1,0.1,0.1,0.2,0.2,0.3
			l14.4,18c0.8,0.9,1.9,1.5,3.1,1.5l23.2,0c1.2,0,2.4-0.5,3.1-1.5l14.4-18c0.8-0.9,1-2.2,0.8-3.3l-5.2-22.4
			c-0.3-1.2-1.1-2.2-2.2-2.7l-20.9-10C484.5,192.7,483.8,192.6,483.1,192.6z"/>
		
			<path fill="#FFFFFF" stroke="#FFFFFF" stroke-width="0.25" d="
			M483.3,200.3c-0.7,0-1.2,0.6-1.2,1.4c0,0,0,0,0,0c0,0.1,0,0.2,0,0.3c0,0.4,0.1,0.8,0.2,1.2c0.1,0.9,0.2,1.6,0.1,2.3
			c-0.1,0.3-0.2,0.5-0.4,0.6l0,0.5c-0.7,0.1-1.5,0.2-2.3,0.3c-3.2,0.7-6,2.4-8.2,4.7c-0.1-0.1-0.4-0.3-0.5-0.3
			c-0.2,0-0.4,0.1-0.7-0.1c-0.6-0.4-1.1-0.9-1.7-1.5c-0.3-0.3-0.5-0.6-0.8-0.9c-0.1-0.1-0.2-0.2-0.3-0.2c-0.3-0.2-0.6-0.3-0.9-0.3
			c-0.4,0-0.8,0.1-1,0.4c-0.4,0.5-0.3,1.4,0.3,1.8c0,0,0,0,0,0c0.1,0.1,0.2,0.2,0.3,0.2c0.4,0.3,0.7,0.4,1,0.6
			c0.7,0.5,1.4,0.8,1.9,1.3c0.2,0.2,0.2,0.6,0.3,0.7l0.4,0.4c-2.1,3.2-3.1,7.2-2.5,11.3l-0.5,0.2c-0.1,0.2-0.3,0.5-0.5,0.5
			c-0.6,0.2-1.4,0.3-2.2,0.4c-0.4,0-0.8,0-1.2,0.1c-0.1,0-0.2,0.1-0.3,0.1c0,0,0,0,0,0c0,0,0,0,0,0c-0.7,0.2-1.2,0.9-1.1,1.5
			c0.2,0.7,0.9,1.1,1.6,0.9c0,0,0,0,0,0c0,0,0,0,0,0c0.1,0,0.2,0,0.3-0.1c0.4-0.1,0.7-0.3,1.1-0.4c0.8-0.3,1.5-0.5,2.2-0.6
			c0.3,0,0.6,0.2,0.7,0.3l0.5-0.1c1.3,3.9,3.9,7,7.2,9l-0.2,0.5c0.1,0.2,0.2,0.5,0.1,0.7c-0.2,0.6-0.7,1.3-1.1,2
			c-0.2,0.3-0.5,0.6-0.7,1c0,0.1-0.1,0.2-0.2,0.3c-0.3,0.7-0.1,1.5,0.5,1.8c0.6,0.3,1.4,0,1.7-0.7c0,0,0,0,0,0c0,0,0,0,0,0
			c0-0.1,0.1-0.2,0.2-0.3c0.2-0.4,0.2-0.8,0.4-1.1c0.3-0.8,0.5-1.7,1-2.2c0.1-0.1,0.3-0.2,0.5-0.3l0.3-0.5c2.9,1.1,6.1,1.4,9.4,0.7
			c0.7-0.2,1.5-0.4,2.1-0.6c0.1,0.1,0.2,0.4,0.3,0.5c0.2,0.1,0.4,0.1,0.6,0.4c0.3,0.6,0.6,1.3,0.9,2.1c0.1,0.4,0.2,0.7,0.4,1.1
			c0,0.1,0.1,0.2,0.2,0.3c0.3,0.7,1.1,1,1.7,0.7c0.6-0.3,0.9-1.1,0.5-1.8c0-0.1-0.1-0.2-0.2-0.3c-0.2-0.4-0.4-0.7-0.7-1
			c-0.5-0.7-0.9-1.4-1.1-2c-0.1-0.3,0-0.5,0.1-0.7c0-0.1-0.1-0.4-0.2-0.5c3.5-2,6-5.3,7.2-9.1c0.2,0,0.4,0.1,0.5,0.1
			c0.2-0.1,0.4-0.3,0.7-0.3c0.7,0.1,1.4,0.3,2.2,0.6c0.4,0.1,0.7,0.3,1.1,0.4c0.1,0,0.2,0,0.3,0.1c0,0,0,0,0,0c0,0,0,0,0,0
			c0.7,0.2,1.5-0.2,1.6-0.9c0.2-0.7-0.3-1.3-1.1-1.5c-0.1,0-0.3-0.1-0.4-0.1c-0.4-0.1-0.8-0.1-1.2-0.1c-0.9-0.1-1.6-0.2-2.2-0.4
			c-0.3-0.1-0.4-0.4-0.5-0.5l-0.5-0.1c0.3-1.9,0.2-3.9-0.3-5.8c-0.5-2-1.3-3.8-2.3-5.4c0.1-0.1,0.4-0.3,0.4-0.4c0-0.2,0-0.5,0.2-0.7
			c0.5-0.5,1.1-0.8,1.9-1.3c0.4-0.2,0.7-0.3,1-0.6c0.1-0.1,0.2-0.2,0.3-0.2c0.6-0.5,0.7-1.3,0.3-1.8c-0.4-0.5-1.3-0.6-1.9-0.1
			c-0.1,0.1-0.2,0.2-0.3,0.2c-0.3,0.3-0.5,0.6-0.8,0.9c-0.6,0.6-1.1,1.1-1.7,1.5c-0.2,0.1-0.6,0.1-0.8,0.1l-0.5,0.3
			c-2.7-2.8-6.4-4.7-10.4-5c0-0.2,0-0.5,0-0.6c-0.2-0.2-0.4-0.3-0.4-0.6c-0.1-0.7,0-1.4,0.1-2.3c0.1-0.4,0.2-0.7,0.2-1.2
			c0-0.1,0-0.2,0-0.4C484.6,200.9,484,200.3,483.3,200.3L483.3,200.3z M481.8,210l-0.4,6.5l0,0c0,0.6-0.5,1.1-1.1,1.1
			c-0.2,0-0.5-0.1-0.6-0.2l0,0l-5.4-3.8c1.7-1.6,3.8-2.8,6.2-3.4C480.9,210.1,481.3,210,481.8,210z M484.9,210
			c2.8,0.3,5.5,1.6,7.5,3.6l-5.3,3.8l0,0c-0.5,0.3-1.1,0.3-1.5-0.2c-0.2-0.2-0.2-0.4-0.2-0.6l0,0L484.9,210z M472.3,216l4.9,4.4l0,0
			c0.4,0.4,0.5,1.1,0.1,1.5c-0.2,0.2-0.4,0.3-0.6,0.4l0,0l-6.3,1.8C470.1,221.2,470.8,218.4,472.3,216z M494.3,216
			c0.7,1.2,1.3,2.5,1.6,3.9c0.3,1.4,0.4,2.8,0.3,4.2l-6.3-1.8l0,0c-0.6-0.2-0.9-0.7-0.8-1.3c0.1-0.2,0.2-0.4,0.3-0.6l0,0L494.3,216
			L494.3,216z M482.3,220.7h2l1.2,1.6l-0.4,1.9l-1.8,0.9l-1.8-0.9l-0.4-1.9L482.3,220.7z M488.8,226.1c0.1,0,0.2,0,0.3,0l0,0
			l6.5,1.1c-1,2.7-2.8,5-5.2,6.5l-2.5-6.1l0,0c-0.2-0.5,0-1.2,0.5-1.4C488.5,226.1,488.6,226.1,488.8,226.1L488.8,226.1z
			 M477.8,226.1c0.5,0,0.9,0.4,1.1,0.9c0.1,0.2,0,0.5-0.1,0.7l0,0l-2.5,6c-2.3-1.5-4.2-3.7-5.2-6.5l6.4-1.1l0,0
			C477.7,226.1,477.8,226.1,477.8,226.1L477.8,226.1z M483.3,228.7c0.2,0,0.3,0,0.5,0.1c0.2,0.1,0.4,0.3,0.5,0.5h0l3.2,5.7
			c-0.4,0.1-0.8,0.3-1.3,0.4c-2.4,0.6-4.9,0.4-7-0.4l3.2-5.7h0C482.5,229,482.9,228.8,483.3,228.7z"/>
	</g>
</g>
</svg>
