<?xml version="1.0" encoding="utf-8"?>
<!-- Generator: Adobe Illustrator 21.0.2, SVG Export Plug-In . SVG Version: 6.00 Build 0)  -->
<svg version="1.1" id="Layer_1" xmlns="http://www.w3.org/2000/svg" xmlns:xlink="http://www.w3.org/1999/xlink" x="0px" y="0px"
	 viewBox="0 0 93 93" style="enable-background:new 0 0 93 93;" xml:space="preserve">
<style type="text/css">
	.st0{fill:#239AE8;}
	.st1{fill:#326CE5;}
	.st2{fill:#FFFFFF;stroke:#FFFFFF;stroke-width:0.25;}
</style>
<desc>Created with Sketch.</desc>
<g>
	<path class="st0" d="M46.5,2.2L91,24.5v44L46.5,90.8L2,68.5v-44L46.5,2.2 M46.5,0L0,23.3v46.5L46.5,93L93,69.8V23.3L46.5,0L46.5,0z
		"/>
</g>
<g id="layer1" transform="translate(-6.3260942,-174.7524)" inkscape:groupmode="layer" inkscape:label="Layer 1">
	<g id="g3052">
		
			<path id="path3055" inkscape:connector-curvature="0" inkscape:export-filename="new.png" inkscape:export-xdpi="250.55" inkscape:export-ydpi="250.55" class="st1" d="
			M53.1,192.6c-0.5,0-1.1,0.2-1.5,0.4l-20.9,10c-1.1,0.5-1.9,1.5-2.2,2.7l-5.1,22.4c-0.2,1,0,2.1,0.5,3c0.1,0.1,0.1,0.2,0.2,0.3
			l14.4,18c0.8,0.9,1.9,1.5,3.1,1.5l23.2,0c1.2,0,2.4-0.5,3.1-1.5l14.4-18c0.8-0.9,1-2.2,0.8-3.3l-5.2-22.4
			c-0.3-1.2-1.1-2.2-2.2-2.7l-20.9-10C54.5,192.7,53.8,192.6,53.1,192.6z"/>
		
			<path id="path3059" inkscape:connector-curvature="0" inkscape:export-filename="./path3059.png" inkscape:export-xdpi="250.55" inkscape:export-ydpi="250.55" sodipodi:nodetypes="ccccccccsccccscssccsccccccccscccsccccccccccccccscccscsccsccccscscsccccccccscccscsccccsccccscscscccccccccccccccscccsccccccccccccscccccscccccccccccccccccccccccscccscccccccccscccscccc" class="st2" d="
			M53.3,200.3c-0.7,0-1.2,0.6-1.2,1.4c0,0,0,0,0,0c0,0.1,0,0.2,0,0.3c0,0.4,0.1,0.8,0.2,1.2c0.1,0.9,0.2,1.6,0.1,2.3
			c-0.1,0.3-0.2,0.5-0.4,0.6l0,0.5c-0.7,0.1-1.5,0.2-2.3,0.3c-3.2,0.7-6,2.4-8.2,4.7c-0.1-0.1-0.4-0.3-0.5-0.3
			c-0.2,0-0.4,0.1-0.7-0.1c-0.6-0.4-1.1-0.9-1.7-1.5c-0.3-0.3-0.5-0.6-0.8-0.9c-0.1-0.1-0.2-0.2-0.3-0.2c-0.3-0.2-0.6-0.3-0.9-0.3
			c-0.4,0-0.8,0.1-1,0.4c-0.4,0.5-0.3,1.4,0.3,1.8c0,0,0,0,0,0c0.1,0.1,0.2,0.2,0.3,0.2c0.4,0.3,0.7,0.4,1,0.6
			c0.7,0.5,1.4,0.8,1.9,1.3c0.2,0.2,0.2,0.6,0.3,0.7l0.4,0.4c-2.1,3.2-3.1,7.2-2.5,11.3l-0.5,0.2c-0.1,0.2-0.3,0.5-0.5,0.5
			c-0.6,0.2-1.4,0.3-2.2,0.4c-0.4,0-0.8,0-1.2,0.1c-0.1,0-0.2,0.1-0.3,0.1c0,0,0,0,0,0c0,0,0,0,0,0c-0.7,0.2-1.2,0.9-1.1,1.5
			c0.2,0.7,0.9,1.1,1.6,0.9c0,0,0,0,0,0c0,0,0,0,0,0c0.1,0,0.2,0,0.3-0.1c0.4-0.1,0.7-0.3,1.1-0.4c0.8-0.3,1.5-0.5,2.2-0.6
			c0.3,0,0.6,0.2,0.7,0.3l0.5-0.1c1.3,3.9,3.9,7,7.2,9l-0.2,0.5c0.1,0.2,0.2,0.5,0.1,0.7c-0.2,0.6-0.7,1.3-1.1,2
			c-0.2,0.3-0.5,0.6-0.7,1c0,0.1-0.1,0.2-0.2,0.3c-0.3,0.7-0.1,1.5,0.5,1.8c0.6,0.3,1.4,0,1.7-0.7c0,0,0,0,0,0c0,0,0,0,0,0
			c0-0.1,0.1-0.2,0.2-0.3c0.2-0.4,0.2-0.8,0.4-1.1c0.3-0.8,0.5-1.7,1-2.2c0.1-0.1,0.3-0.2,0.5-0.3l0.3-0.5c2.9,1.1,6.1,1.4,9.4,0.7
			c0.7-0.2,1.5-0.4,2.1-0.6c0.1,0.1,0.2,0.4,0.3,0.5c0.2,0.1,0.4,0.1,0.6,0.4c0.3,0.6,0.6,1.3,0.9,2.1c0.1,0.4,0.2,0.7,0.4,1.1
			c0,0.1,0.1,0.2,0.2,0.3c0.3,0.7,1.1,1,1.7,0.7c0.6-0.3,0.9-1.1,0.5-1.8c0-0.1-0.1-0.2-0.2-0.3c-0.2-0.4-0.4-0.7-0.7-1
			c-0.5-0.7-0.9-1.4-1.1-2c-0.1-0.3,0-0.5,0.1-0.7c0-0.1-0.1-0.4-0.2-0.5c3.5-2,6-5.3,7.2-9.1c0.2,0,0.4,0.1,0.5,0.1
			c0.2-0.1,0.4-0.3,0.7-0.3c0.7,0.1,1.4,0.3,2.2,0.6c0.4,0.1,0.7,0.3,1.1,0.4c0.1,0,0.2,0,0.3,0.1c0,0,0,0,0,0c0,0,0,0,0,0
			c0.7,0.2,1.5-0.2,1.6-0.9c0.2-0.7-0.3-1.3-1.1-1.5c-0.1,0-0.3-0.1-0.4-0.1c-0.4-0.1-0.8-0.1-1.2-0.1c-0.9-0.1-1.6-0.2-2.2-0.4
			c-0.3-0.1-0.4-0.4-0.5-0.5l-0.5-0.1c0.3-1.9,0.2-3.9-0.3-5.8c-0.5-2-1.3-3.8-2.3-5.4c0.1-0.1,0.4-0.3,0.4-0.4c0-0.2,0-0.5,0.2-0.7
			c0.5-0.5,1.1-0.8,1.9-1.3c0.4-0.2,0.7-0.3,1-0.6c0.1-0.1,0.2-0.2,0.3-0.2c0.6-0.5,0.7-1.3,0.3-1.8s-1.3-0.6-1.9-0.1
			c-0.1,0.1-0.2,0.2-0.3,0.2c-0.3,0.3-0.5,0.6-0.8,0.9c-0.6,0.6-1.1,1.1-1.7,1.5c-0.2,0.1-0.6,0.1-0.8,0.1l-0.5,0.3
			c-2.7-2.8-6.4-4.7-10.4-5c0-0.2,0-0.5,0-0.6c-0.2-0.2-0.4-0.3-0.4-0.6c-0.1-0.7,0-1.4,0.1-2.3c0.1-0.4,0.2-0.7,0.2-1.2
			c0-0.1,0-0.2,0-0.4C54.6,200.9,54,200.3,53.3,200.3L53.3,200.3z M51.8,210l-0.4,6.5l0,0c0,0.6-0.5,1.1-1.1,1.1
			c-0.2,0-0.5-0.1-0.6-0.2l0,0l-5.4-3.8c1.7-1.6,3.8-2.8,6.2-3.4C50.9,210.1,51.3,210,51.8,210z M54.9,210c2.8,0.3,5.5,1.6,7.5,3.6
			l-5.3,3.8l0,0c-0.5,0.3-1.1,0.3-1.5-0.2c-0.2-0.2-0.2-0.4-0.2-0.6l0,0L54.9,210z M42.3,216l4.9,4.4l0,0c0.4,0.4,0.5,1.1,0.1,1.5
			c-0.2,0.2-0.4,0.3-0.6,0.4l0,0l-6.3,1.8C40.1,221.2,40.8,218.4,42.3,216z M64.3,216c0.7,1.2,1.3,2.5,1.6,3.9
			c0.3,1.4,0.4,2.8,0.3,4.2l-6.3-1.8l0,0c-0.6-0.2-0.9-0.7-0.8-1.3c0.1-0.2,0.2-0.4,0.3-0.6l0,0L64.3,216L64.3,216z M52.3,220.7h2
			l1.2,1.6l-0.4,1.9l-1.8,0.9l-1.8-0.9l-0.4-1.9L52.3,220.7z M58.8,226.1c0.1,0,0.2,0,0.3,0l0,0l6.5,1.1c-1,2.7-2.8,5-5.2,6.5
			l-2.5-6.1l0,0c-0.2-0.5,0-1.2,0.5-1.4C58.5,226.1,58.6,226.1,58.8,226.1L58.8,226.1z M47.8,226.1c0.5,0,0.9,0.4,1.1,0.9
			c0.1,0.2,0,0.5-0.1,0.7l0,0l-2.5,6c-2.3-1.5-4.2-3.7-5.2-6.5l6.4-1.1l0,0C47.7,226.1,47.8,226.1,47.8,226.1L47.8,226.1z
			 M53.3,228.7c0.2,0,0.3,0,0.5,0.1c0.2,0.1,0.4,0.3,0.5,0.5h0l3.2,5.7c-0.4,0.1-0.8,0.3-1.3,0.4c-2.4,0.6-4.9,0.4-7-0.4l3.2-5.7h0
			C52.5,229,52.9,228.8,53.3,228.7z"/>
	</g>
</g>
<g>
	<path class="st0" d="M46.5,3.6l43.1,21.6v42.6L46.5,89.4L3.4,67.8V25.2L46.5,3.6 M46.5,1.5L1.5,24v45l45,22.5l45-22.5V24L46.5,1.5
		L46.5,1.5z"/>
</g>
</svg>
