<?xml version="1.0" encoding="utf-8"?>
<!-- Generator: Adobe Illustrator 21.0.2, SVG Export Plug-In . SVG Version: 6.00 Build 0)  -->
<svg version="1.1" xmlns="http://www.w3.org/2000/svg" xmlns:xlink="http://www.w3.org/1999/xlink" x="0px" y="0px"
	 viewBox="0 0 524 130" style="enable-background:new 0 0 524 130;" xml:space="preserve">
<path fill="#D8D8D8" d="M515.5,129.5h-77c-4.4,0-8-3.6-8-8v-3c0-4.4,3.6-8,8-8h77c4.4,0,8,3.6,8,8v3
	C523.5,125.9,519.9,129.5,515.5,129.5z"/>
<path fill="#D8D8D8" d="M85.5,129.5h-77c-4.4,0-8-3.6-8-8v-3c0-4.4,3.6-8,8-8h77c4.4,0,8,3.6,8,8v3C93.5,125.9,89.9,129.5,85.5,129.5z"
	/>
<path fill="#389BFF" d="M408.5,49h-7v-2h7V49z M396.5,49h-7v-2h7V49z M384.5,49h-7v-2h7V49z M372.5,49h-7v-2h7V49z M360.5,49h-7v-2h7
	V49z M348.5,49h-7v-2h7V49z M336.5,49h-7v-2h7V49z M324.5,49h-7v-2h7V49z M312.5,49h-7v-2h7V49z M300.5,49h-7v-2h7V49z M288.5,49h-7
	v-2h7V49z M276.5,49h-7v-2h7V49z M264.5,49h-7v-2h7V49z M252.5,49h-7v-2h7V49z M240.5,49h-7v-2h7V49z M228.5,49h-7v-2h7V49z
	 M216.5,49h-7v-2h7V49z M204.5,49h-7v-2h7V49z M192.5,49h-7v-2h7V49z M180.5,49h-7v-2h7V49z M168.5,49h-7v-2h7V49z M156.5,49h-7v-2
	h7V49z M144.5,49h-7v-2h7V49z M132.5,49h-7v-2h7V49z M120.5,49h-7v-2h7V49z"/>
<path fill="none" stroke="#389BFF" stroke-width="2" stroke-linecap="square" stroke-dasharray="5,7" d="M409.5,48l-10.8-3v6L409.5,48z"/>
<g>
</g>
<g>
	<path fill="#239AE8" d="M47,2.7L91.5,25v44L47,91.3L2.5,69V25L47,2.7 M47,0.5L0.5,23.8v46.5L47,93.5l46.5-23.3V23.8L47,0.5L47,0.5z"/>
</g>
<g>
	<path fill="#239AE8" d="M477,2.7L521.5,25v44L477,91.3L432.5,69V25L477,2.7 M477,0.5l-46.5,23.3v46.5L477,93.5l46.5-23.3V23.8L477,0.5
		L477,0.5z"/>
</g>
<g>
	<path fill="#6F727F" d="M30.7,120.5c-1-0.3-1.8-0.7-2.3-1.1s-0.7-1-0.7-1.6c0-0.7,0.3-1.3,0.9-1.8s1.3-0.7,2.3-0.7
		c0.6,0,1.2,0.1,1.7,0.4c0.5,0.2,0.9,0.6,1.2,1s0.4,0.9,0.4,1.4H33c0-0.6-0.2-1-0.5-1.3s-0.9-0.5-1.5-0.5s-1.1,0.1-1.4,0.4
		s-0.5,0.6-0.5,1.1c0,0.4,0.2,0.7,0.5,1s0.9,0.5,1.6,0.7c0.8,0.2,1.4,0.5,1.8,0.7c0.4,0.3,0.8,0.6,1,0.9s0.3,0.8,0.3,1.2
		c0,0.7-0.3,1.3-0.9,1.8c-0.6,0.5-1.4,0.7-2.3,0.7c-0.6,0-1.2-0.1-1.8-0.4c-0.6-0.2-1-0.6-1.3-1s-0.4-0.9-0.4-1.4h1.2
		c0,0.6,0.2,1,0.6,1.3s1,0.5,1.7,0.5c0.6,0,1.1-0.1,1.5-0.4s0.5-0.6,0.5-1.1s-0.2-0.8-0.5-1.1C32.1,121,31.5,120.7,30.7,120.5z"/>
	<path fill="#6F727F" d="M39,124.7c-0.9,0-1.7-0.3-2.3-0.9s-0.9-1.4-0.9-2.5v-0.2c0-0.7,0.1-1.3,0.4-1.8c0.3-0.5,0.6-1,1.1-1.3
		s1-0.5,1.5-0.5c0.9,0,1.6,0.3,2.1,0.9s0.7,1.4,0.7,2.5v0.5H37c0,0.7,0.2,1.2,0.6,1.6c0.4,0.4,0.9,0.6,1.4,0.6
		c0.4,0,0.8-0.1,1.1-0.3s0.5-0.4,0.8-0.7l0.7,0.6C41,124.3,40.2,124.7,39,124.7z M38.9,118.6c-0.5,0-0.9,0.2-1.2,0.5
		s-0.5,0.8-0.6,1.5h3.4v-0.1c0-0.6-0.2-1.1-0.5-1.4C39.7,118.8,39.4,118.6,38.9,118.6z"/>
	<path fill="#6F727F" d="M47,118.8c-0.2,0-0.4,0-0.6,0c-0.8,0-1.3,0.3-1.6,1v4.9h-1.2v-6.9h1.1v0.8c0.4-0.6,0.9-0.9,1.6-0.9
		c0.2,0,0.4,0,0.5,0.1v1H47z"/>
	<path fill="#6F727F" d="M51.1,123l1.7-5.3H54l-2.5,6.9h-0.9l-2.5-6.9h1.2L51.1,123z"/>
	<path fill="#6F727F" d="M58.6,124.7c-0.9,0-1.7-0.3-2.3-0.9s-0.9-1.4-0.9-2.5v-0.2c0-0.7,0.1-1.3,0.4-1.8c0.3-0.5,0.6-1,1.1-1.3
		s1-0.5,1.5-0.5c0.9,0,1.6,0.3,2.1,0.9s0.7,1.4,0.7,2.5v0.5h-4.7c0,0.7,0.2,1.2,0.6,1.6c0.4,0.4,0.9,0.6,1.4,0.6
		c0.4,0,0.8-0.1,1.1-0.3s0.5-0.4,0.8-0.7l0.7,0.6C60.6,124.3,59.7,124.7,58.6,124.7z M58.4,118.6c-0.5,0-0.9,0.2-1.2,0.5
		s-0.5,0.8-0.6,1.5H60v-0.1c0-0.6-0.2-1.1-0.5-1.4C59.3,118.8,58.9,118.6,58.4,118.6z"/>
	<path fill="#6F727F" d="M66.6,118.8c-0.2,0-0.4,0-0.6,0c-0.8,0-1.3,0.3-1.6,1v4.9h-1.2v-6.9h1.1v0.8c0.4-0.6,0.9-0.9,1.6-0.9
		c0.2,0,0.4,0,0.5,0.1v1H66.6z"/>
</g>
<g>
	<path fill="#6F727F" d="M466.6,121.9c-0.1,1-0.5,1.7-1.1,2.3c-0.6,0.5-1.4,0.8-2.4,0.8c-1.1,0-2-0.4-2.6-1.2c-0.7-0.8-1-1.8-1-3.1
		v-0.9c0-0.9,0.2-1.6,0.5-2.3c0.3-0.7,0.7-1.2,1.3-1.5c0.6-0.3,1.2-0.5,2-0.5c1,0,1.8,0.3,2.4,0.8s0.9,1.3,1,2.3h-1.2
		c-0.1-0.7-0.3-1.3-0.7-1.6c-0.4-0.3-0.8-0.5-1.5-0.5c-0.8,0-1.4,0.3-1.8,0.9s-0.7,1.4-0.7,2.5v0.9c0,1,0.2,1.8,0.6,2.4
		s1,0.9,1.8,0.9c0.7,0,1.2-0.2,1.6-0.5s0.6-0.8,0.7-1.6h1.1V121.9z"/>
	<path fill="#6F727F" d="M470,124.8h-1.2V115h1.2V124.8z"/>
	<path fill="#6F727F" d="M472.5,116.1c0-0.2,0.1-0.4,0.2-0.5s0.3-0.2,0.5-0.2s0.4,0.1,0.5,0.2s0.2,0.3,0.2,0.5s-0.1,0.3-0.2,0.5
		s-0.3,0.2-0.5,0.2s-0.4-0.1-0.5-0.2S472.5,116.3,472.5,116.1z M473.8,124.8h-1.2v-6.9h1.2V124.8z"/>
	<path fill="#6F727F" d="M479.1,124.9c-0.9,0-1.7-0.3-2.3-0.9c-0.6-0.6-0.9-1.4-0.9-2.5v-0.2c0-0.7,0.1-1.3,0.4-1.8s0.6-1,1.1-1.3
		s1-0.5,1.5-0.5c0.9,0,1.6,0.3,2.1,0.9s0.7,1.4,0.7,2.5v0.5H477c0,0.7,0.2,1.2,0.6,1.6s0.9,0.6,1.4,0.6c0.4,0,0.8-0.1,1.1-0.3
		s0.5-0.4,0.8-0.7l0.7,0.6C481.2,124.5,480.3,124.9,479.1,124.9z M479,118.8c-0.5,0-0.9,0.2-1.2,0.5c-0.3,0.3-0.5,0.8-0.6,1.5h3.4
		v-0.1c0-0.6-0.2-1.1-0.5-1.4C479.9,118.9,479.5,118.8,479,118.8z"/>
	<path fill="#6F727F" d="M484.9,117.9v0.9c0.5-0.7,1.2-1,2.1-1c1.5,0,2.2,0.8,2.2,2.5v4.5H488v-4.5c0-0.5-0.1-0.9-0.3-1.1
		c-0.2-0.2-0.6-0.4-1-0.4s-0.7,0.1-1,0.3s-0.5,0.5-0.7,0.8v4.9h-1.2v-6.9C483.8,117.9,484.9,117.9,484.9,117.9z"/>
	<path fill="#6F727F" d="M493.2,116.3v1.7h1.3v0.9h-1.3v4.3c0,0.3,0.1,0.5,0.2,0.6s0.3,0.2,0.6,0.2c0.1,0,0.3,0,0.6-0.1v0.9
		c-0.3,0.1-0.6,0.1-0.9,0.1c-0.5,0-0.9-0.2-1.2-0.5s-0.4-0.8-0.4-1.4v-4.3h-1.3v-0.9h1.3v-1.7h1.1V116.3z"/>
</g>
<path fill="#27C48D" d="M59.3,39.6v10.6l-7,4.3l-5.2-3.2V79h0.1l27.9-16V31h-0.5L59.3,39.6z"/>
<path fill="#2DAA86" d="M46.9,15l-28,16l18.3,10.7l4.1-2.2l9.5,5.4V34.2l8.9-5.3l-0.2,10.7L74.7,31h0.4L46.9,15z"/>
<path fill="#0E7A65" d="M43.4,49.2v10.6L35,65.1V43.8l2.9-2.1L19.3,31h-0.2v32l28,16V51.3L43.4,49.2z"/>
<path fill="#27C48D" d="M489.3,39.6v10.6l-7,4.3l-5.2-3.2V79h0.1l27.9-16V31h-0.5L489.3,39.6z"/>
<path fill="#2DAA86" d="M476.9,15l-28,16l18.3,10.7l4.1-2.2l9.5,5.4V34.2l8.9-5.3l-0.2,10.7l15.2-8.6h0.4L476.9,15z"/>
<path fill="#0E7A65" d="M473.4,49.2v10.6l-8.4,5.3V43.8l2.9-2.1L449.3,31h-0.2v32l28,16V51.3L473.4,49.2z"/>
</svg>
