<?xml version="1.0" encoding="utf-8"?>
<!-- Generator: Adobe Illustrator 21.0.2, SVG Export Plug-In . SVG Version: 6.00 Build 0)  -->
<svg version="1.1" id="Layer_1" xmlns="http://www.w3.org/2000/svg" xmlns:xlink="http://www.w3.org/1999/xlink" x="0px" y="0px"
	 viewBox="0 0 93 93" style="enable-background:new 0 0 93 93;" xml:space="preserve">
<style type="text/css">
	.st0{fill:#239AE8;}
	.st1{fill:#27C48D;}
	.st2{fill:#2DAA86;}
	.st3{fill:#0E7A65;}
</style>
<desc>Created with Sketch.</desc>
<g>
	<path class="st0" d="M46.5,2.2L91,24.5v44L46.5,90.8L2,68.5v-44L46.5,2.2 M46.5,0L0,23.3v46.5L46.5,93L93,69.8V23.3L46.5,0L46.5,0z
		"/>
</g>
<path class="st1" d="M59.3,39.6v10.6l-7,4.3l-5.2-3.2V79h0.1l27.9-16V31h-0.5L59.3,39.6z"/>
<path class="st2" d="M46.9,15l-28,16l18.3,10.7l4.1-2.2l9.5,5.4V34.2l8.9-5.3l-0.2,10.7L74.7,31h0.4L46.9,15z"/>
<path class="st3" d="M43.4,49.2v10.6L35,65.1V43.8l2.9-2.1L19.3,31h-0.2v32l28,16V51.3L43.4,49.2z"/>
<g>
	<path class="st0" d="M46.5,3.6l43.1,21.6v42.6L46.5,89.4L3.4,67.8V25.2L46.5,3.6 M46.5,1.5L1.5,24v45l45,22.5l45-22.5V24L46.5,1.5
		L46.5,1.5z"/>
</g>
</svg>
