
<svg width="72px" height="47px" viewBox="0 0 72 47" version="1.1" xmlns="http://www.w3.org/2000/svg" xmlns:xlink="http://www.w3.org/1999/xlink">
    <!-- Generator: Sketch 41.2 (35397) - http://www.bohemiancoding.com/sketch -->
    <desc>Created with Sketch.</desc>
    <defs></defs>
    <path d="M71.2,32 L71.2,35.2 C71.2,41 64.8,47 57,47 L15,47 C7.1,47 0.8,41.1 0.8,35.2 L0.8,32 L71.2,32 L71.2,32 Z" id="Shape" stroke="none" fill="#7D7C7C" fill-rule="evenodd"></path>
    <path d="M27.9,0.9 C35.2,0.9 41.5,5.2 44.3,11.5 C45.8,10.5 47.5,9.9 49.5,9.9 C54.5,9.9 58.5,13.8 58.6,18.7 C65.7,19.3 71.2,26.1 71.2,31.6 L71.2,32.8 C71.2,38.7 64.8,44.6 56.9,44.6 L15,44.6 C7.1,44.6 0.8,38.7 0.8,32.8 L0.8,31.6 C0.8,27.1 4.6,20.9 9.9,19.4 L9.9,18.9 C9.9,8.9 17.9,0.9 27.9,0.9 L27.9,0.9 Z" id="Shape" stroke="none" fill="#D2D3D3" fill-rule="evenodd"></path>
</svg>