
<svg width="62px" height="64px" viewBox="0 0 62 64" version="1.1" xmlns="http://www.w3.org/2000/svg" xmlns:xlink="http://www.w3.org/1999/xlink">
    <!-- Generator: Sketch 41.2 (35397) - http://www.bohemiancoding.com/sketch -->
    <desc>Created with Sketch.</desc>
    <defs></defs>
    <circle id="Oval" stroke="none" fill="#7D7C7C" fill-rule="evenodd" cx="31" cy="33.3" r="30.4"></circle>
    <circle id="Oval" stroke="none" fill="#D2D3D3" fill-rule="evenodd" cx="31" cy="30.7" r="30.4"></circle>
    <rect id="Rectangle-path" stroke="none" fill="#FFFFFF" fill-rule="evenodd" x="39" y="26" width="9" height="10"></rect>
    <rect id="Rectangle-path-Copy-2" stroke="none" fill="#FFFFFF" fill-rule="evenodd" x="39" y="40" width="9" height="10"></rect>
    <rect id="Rectangle-path-Copy" stroke="none" fill="#FFFFFF" fill-rule="evenodd" x="39" y="12" width="9" height="10"></rect>
    <polygon id="Shape" stroke="none" fill="#FFFFFF" fill-rule="evenodd" points="34 26 39.2 30.8920863 34 36"></polygon>
    <polygon id="Shape" stroke="none" fill="#FFFFFF" fill-rule="evenodd" points="18.0045355 29.1 18.0045355 32.4 35 32.4 35 29.1"></polygon>
    <polygon id="Shape-Copy-2" stroke="none" fill="#FFFFFF" fill-rule="evenodd" transform="translate(36.600000, 17.000000) rotate(-35.000000) translate(-36.600000, -17.000000) " points="34 12 39.2 16.8920863 34 22"></polygon>
    <polygon id="Shape-Copy" stroke="none" fill="#FFFFFF" fill-rule="evenodd" transform="translate(25.207464, 24.836267) rotate(-35.000000) translate(-25.207464, -24.836267) " points="13.9017938 23.1862668 13.9017938 26.4862668 36.5131339 26.4862668 36.5131339 23.1862668"></polygon>
    <polygon id="Shape-Copy-4" stroke="none" fill="#FFFFFF" fill-rule="evenodd" transform="translate(36.600000, 45.000000) rotate(35.000000) translate(-36.600000, -45.000000) " points="34 40 39.2 44.8920863 34 50"></polygon>
    <polygon id="Shape-Copy-3" stroke="none" fill="#FFFFFF" fill-rule="evenodd" transform="translate(26.056075, 37.929433) rotate(35.000000) translate(-26.056075, -37.929433) " points="15.2983705 36.279433 15.2983705 39.579433 36.8137795 39.579433 36.8137795 36.279433"></polygon>
    <polygon id="Shape" stroke="none" fill="#FFFFFF" fill-rule="evenodd" points="9 23 18 23 18 38.929433 9 38.929433"></polygon>
</svg>