
<svg width="290px" height="220px" viewBox="-1 -2 290 220" version="1.1" xmlns="http://www.w3.org/2000/svg" xmlns:xlink="http://www.w3.org/1999/xlink">
    <!-- Generator: Sketch 42 (36781) - http://www.bohemiancoding.com/sketch -->
    <desc>Created with Sketch.</desc>
    <defs></defs>
    <g id="aws-logo" stroke="none" stroke-width="1" fill="none" fill-rule="evenodd" transform="translate(0.000000, -1.000000)">
        <g id="g10" transform="translate(144.500000, 109.500000) scale(-1, 1) rotate(-180.000000) translate(-144.500000, -109.500000) translate(0.000000, 0.500000)" fill-rule="nonzero" fill="#F68D11">
            <g id="g12" transform="translate(0.000000, 0.000000)">
                <polyline id="path14" points="161.20875 142.5 127.5 153.75 127.5 202.5 161.25 192.5 161.20875 142.5"></polyline>
                <polyline id="path16" points="170 192.5 203.75 202.5 203.6325 153.78375 170 142.5 170 192.5"></polyline>
                <polyline id="path18" points="196.875 207.77875 165.42 217.5 134.375 207.77875 165.465 199.445 196.875 207.77875"></polyline>
                <polyline id="path20" points="246.20875 142.5 212.5 153.75 212.5 202.5 246.25 192.5 246.20875 142.5"></polyline>
                <polyline id="path22" points="255 192.5 288.75 202.5 288.6325 153.78375 255 142.5 255 192.5"></polyline>
                <polyline id="path24" points="281.875 207.77875 250.42 217.5 219.375 207.77875 250.465 199.445 281.875 207.77875"></polyline>
                <polyline id="path26" points="33.75 121.25 0 131.25 0 82.5 33.709 71.25 33.75 121.25"></polyline>
                <polyline id="path28" points="42.5 121.25 76.25 131.25 76.132875 82.53275 42.5 71.25 42.5 121.25"></polyline>
                <polyline id="path30" points="69.375 136.52875 37.919875 146.25 6.875 136.52875 37.965375 128.195 69.375 136.52875"></polyline>
                <polyline id="path32" points="118.709 71.25 85 82.5 85 131.25 118.75 121.25 118.709 71.25"></polyline>
                <polyline id="path34" points="127.5 121.25 161.25 131.25 161.1325 82.53275 127.5 71.25 127.5 121.25"></polyline>
                <polyline id="path36" points="154.375 136.52875 122.919875 146.25 91.875 136.52875 122.965375 128.195 154.375 136.52875"></polyline>
                <polyline id="path38" points="76.209 0 42.5 11.25 42.5 60 76.25 50 76.209 0"></polyline>
                <polyline id="path40" points="85 50 118.75 60 118.632875 11.2827125 85 0 85 50"></polyline>
                <polyline id="path42" points="111.875 65.27875 80.419875 75 49.375 65.27875 80.465375 56.944875 111.875 65.27875"></polyline>
            </g>
        </g>
    </g>
</svg>