<?xml version="1.0" encoding="utf-8"?>
<!-- Generator: Adobe Illustrator 19.2.1, SVG Export Plug-In . SVG Version: 6.00 Build 0)  -->
<svg version="1.1" id="Layer_1" xmlns="http://www.w3.org/2000/svg" xmlns:xlink="http://www.w3.org/1999/xlink" x="0px" y="0px"
	 viewBox="0 0 290 88" style="enable-background:new 0 0 290 88;" xml:space="preserve">
<style type="text/css">
	.st0{enable-background:new    ;}
	.st1{fill:#BCC1D8;}
	.st2{fill:#4F7E81;}
	.st3{fill:none;stroke:#FFFFFF;stroke-linecap:square;}
</style>
<g class="st0">
	<path class="st1" d="M114.5,58.3h-2.2V42.5h-11.2v15.8H99V26.1h2.2v14.3h11.2V26.1h2.2V58.3z"/>
	<path class="st1" d="M134.5,58.3l-2.8-11.6h-7.8l-2.8,11.6h-2.2l7.7-32.1h2.2l7.9,32.1H134.5z M131.1,44.4l-2.8-12
		c-0.3-1.3-0.5-2.6-0.7-3.8c-0.1,1.3-0.3,2.5-0.6,3.8l-2.7,12H131.1z"/>
	<path class="st1" d="M153.3,49.8c0,2.6-0.7,4.8-2.2,6.4c-1.5,1.6-3.3,2.5-5.6,2.5c-2.6,0-4.6-0.4-6.2-1.1v-2.3
		c0.8,0.4,1.7,0.8,2.8,1c1.1,0.3,2.2,0.4,3.3,0.4c1.6,0,3-0.6,4-1.9c1.1-1.2,1.6-2.8,1.6-4.7c0-1.8-0.4-3.2-1.1-4.2
		c-0.7-1-2.2-2.1-4.3-3.1c-1.7-0.8-2.9-1.6-3.7-2.4c-0.8-0.8-1.4-1.7-1.8-2.7s-0.6-2.3-0.6-3.7c0-1.6,0.3-3,1-4.2s1.5-2.2,2.7-2.9
		c1.2-0.7,2.4-1,3.8-1c1.2,0,2.4,0.1,3.4,0.4s1.8,0.6,2.4,0.9L152,29c-1.6-0.8-3.3-1.3-5-1.3c-1.6,0-2.9,0.5-3.9,1.6
		c-1,1.1-1.5,2.5-1.5,4.3c0,1.8,0.4,3.2,1.1,4.2s2.1,2,4.2,3.1c2.2,1.1,3.8,2.3,4.8,3.7C152.8,46.1,153.3,47.8,153.3,49.8z"/>
	<path class="st1" d="M159.5,58.3V26.1h2.2v30.1h9.1v2.1H159.5z"/>
	<path class="st1" d="M175.9,58.3V26.1h2.2v32.1H175.9z"/>
	<path class="st1" d="M185.2,56.3c0-1.6,0.6-2.4,1.7-2.4c0.5,0,0.9,0.2,1.2,0.5c0.3,0.4,0.5,1,0.5,1.8c0,0.8-0.2,1.4-0.5,1.8
		c-0.3,0.4-0.7,0.5-1.2,0.5C185.8,58.6,185.2,57.8,185.2,56.3z"/>
	<path class="st1" d="M195.9,58.3V26.1h2.2v32.1H195.9z"/>
	<path class="st1" d="M223.3,42.1c0,5.3-0.8,9.4-2.4,12.3c-1.6,2.9-3.9,4.3-6.9,4.3c-3,0-5.3-1.4-6.9-4.3c-1.6-2.9-2.4-7-2.4-12.3
		c0-5.5,0.8-9.7,2.3-12.4s3.9-4.1,7-4.1c3,0,5.3,1.4,6.8,4.3S223.3,36.9,223.3,42.1z M207,42.1c0,4.8,0.6,8.4,1.8,10.8
		c1.2,2.4,2.9,3.7,5.2,3.7c2.3,0,4-1.2,5.2-3.6c1.2-2.4,1.8-6,1.8-10.9c0-4.8-0.6-8.4-1.8-10.8c-1.2-2.4-2.9-3.6-5.2-3.6
		c-2.4,0-4.1,1.2-5.3,3.7C207.6,33.9,207,37.4,207,42.1z"/>
</g>
<path id="Combined-Shape" class="st2" d="M35.4,6c3.7-3.7,9.8-3.7,13.4,0l29.6,29.3c3.7,3.7,3.7,9.6,0,13.3L48.8,77.8
	c-3.7,3.7-9.8,3.7-13.4,0L5.8,48.6c-3.7-3.7-3.7-9.6,0-13.3L35.4,6z"/>
<g>
	<path id="Line" class="st3" d="M28.3,22v40"/>
	<path id="Line_1_" class="st3" d="M29.5,40.8h25"/>
	<path id="Line_2_" class="st3" d="M55.8,22v40"/>
</g>
</svg>
