
<svg width="61px" height="61px" viewBox="93 -1 61 61" version="1.1" xmlns="http://www.w3.org/2000/svg" xmlns:xlink="http://www.w3.org/1999/xlink">
    <!-- Generator: Sketch 42 (36781) - http://www.bohemiancoding.com/sketch -->
    <desc>Created with Sketch.</desc>
    <defs></defs>
    <g id="Icon---Plus" stroke="none" fill="none" transform="translate(94.000000, 0.000000)" fill-rule="evenodd">
        <path d="M56.25,26.25 L33.75,26.25 L33.75,3.75 C33.75,1.68214286 32.0732143,-7.10542736e-15 30,-7.10542736e-15 C27.9321429,-7.10542736e-15 26.25,1.68214286 26.25,3.75 L26.25,26.25 L3.75,26.25 C1.67678571,26.25 -7.10542736e-15,27.9267857 -7.10542736e-15,30 C-7.10542736e-15,32.0732143 1.67678571,33.75 3.75,33.75 L26.25,33.75 L26.25,56.25 C26.25,58.3232143 27.9321429,60 30,60 C32.0732143,60 33.75,58.3232143 33.75,56.25 L33.75,33.75 L56.25,33.75 C58.3232143,33.75 60,32.0732143 60,30 C60,27.9267857 58.3232143,26.25 56.25,26.25" id="Icon" fill="#389BFF"></path>
    </g>
</svg>