
<svg width="94px" height="74px" viewBox="48 23 94 74" version="1.1" xmlns="http://www.w3.org/2000/svg" xmlns:xlink="http://www.w3.org/1999/xlink">
    <!-- Generator: Sketch 42 (36781) - http://www.bohemiancoding.com/sketch -->
    <desc>Created with Sketch.</desc>
    <defs></defs>
    <g id="cd-icon" stroke="none" stroke-width="1" fill="none" fill-rule="evenodd" transform="translate(48.000000, 23.000000)">
        <path d="M19.062626,16.2371901 C18.8538168,16.4206612 18.599084,16.5123967 18.2977099,16.5123967 L1.07633588,16.5123967 C0.774961832,16.5123967 0.520229008,16.4206612 0.312137405,16.2371901 C0.104045802,16.053719 0,15.8396694 0,15.5950413 L0,0.917355372 C0,0.660495868 0.104045802,0.44338843 0.312137405,0.266033058 C0.520229008,0.0892892562 0.774961832,6.92779167e-14 1.07633588,6.92779167e-14 L18.2977099,6.92779167e-14 C18.599084,6.92779167e-14 18.8538168,0.0892892562 19.062626,0.266033058 C19.27,0.44338843 19.3740458,0.660495868 19.3740458,0.917355372 L19.3740458,15.5950413 C19.3740458,15.8396694 19.27,16.053719 19.062626,16.2371901" id="Fill-76" fill="#389BFF"></path>
        <path d="M56.3756031,16.2371901 C56.1667939,16.4206612 55.9120611,16.5123967 55.610687,16.5123967 L38.389313,16.5123967 C38.0879389,16.5123967 37.8332061,16.4206612 37.6251145,16.2371901 C37.4170229,16.053719 37.3129771,15.8396694 37.3129771,15.5950413 L37.3129771,0.917355372 C37.3129771,0.660495868 37.4170229,0.44338843 37.6251145,0.266033058 C37.8332061,0.0892892562 38.0879389,6.92779167e-14 38.389313,6.92779167e-14 L55.610687,6.92779167e-14 C55.9120611,6.92779167e-14 56.1667939,0.0892892562 56.3756031,0.266033058 C56.5829771,0.44338843 56.6870229,0.660495868 56.6870229,0.917355372 L56.6870229,15.5950413 C56.6870229,15.8396694 56.5829771,16.053719 56.3756031,16.2371901" id="Fill-76-Copy" fill="#389BFF"></path>
        <path d="M93.6885802,16.2371901 C93.479771,16.4206612 93.2250382,16.5123967 92.9236641,16.5123967 L75.7022901,16.5123967 C75.400916,16.5123967 75.1461832,16.4206612 74.9380916,16.2371901 C74.73,16.053719 74.6259542,15.8396694 74.6259542,15.5950413 L74.6259542,0.917355372 C74.6259542,0.660495868 74.73,0.44338843 74.9380916,0.266033058 C75.1461832,0.0892892562 75.400916,6.92779167e-14 75.7022901,6.92779167e-14 L92.9236641,6.92779167e-14 C93.2250382,6.92779167e-14 93.479771,0.0892892562 93.6885802,0.266033058 C93.8959542,0.44338843 94,0.660495868 94,0.917355372 L94,15.5950413 C94,15.8396694 93.8959542,16.053719 93.6885802,16.2371901" id="Fill-76-Copy-2" fill="#389BFF"></path>
        <path d="M19.062626,44.9809917 C18.8538168,45.1644628 18.599084,45.2561983 18.2977099,45.2561983 L1.07633588,45.2561983 C0.774961832,45.2561983 0.520229008,45.1644628 0.312137405,44.9809917 C0.104045802,44.7975207 0,44.5834711 0,44.338843 L0,29.661157 C0,29.4042975 0.104045802,29.1871901 0.312137405,29.0098347 C0.520229008,28.8330909 0.774961832,28.7438017 1.07633588,28.7438017 L18.2977099,28.7438017 C18.599084,28.7438017 18.8538168,28.8330909 19.062626,29.0098347 C19.27,29.1871901 19.3740458,29.4042975 19.3740458,29.661157 L19.3740458,44.338843 C19.3740458,44.5834711 19.27,44.7975207 19.062626,44.9809917" id="Fill-76-Copy-5" fill="#389BFF"></path>
        <path d="M56.3756031,44.9809917 C56.1667939,45.1644628 55.9120611,45.2561983 55.610687,45.2561983 L38.389313,45.2561983 C38.0879389,45.2561983 37.8332061,45.1644628 37.6251145,44.9809917 C37.4170229,44.7975207 37.3129771,44.5834711 37.3129771,44.338843 L37.3129771,29.661157 C37.3129771,29.4042975 37.4170229,29.1871901 37.6251145,29.0098347 C37.8332061,28.8330909 38.0879389,28.7438017 38.389313,28.7438017 L55.610687,28.7438017 C55.9120611,28.7438017 56.1667939,28.8330909 56.3756031,29.0098347 C56.5829771,29.1871901 56.6870229,29.4042975 56.6870229,29.661157 L56.6870229,44.338843 C56.6870229,44.5834711 56.5829771,44.7975207 56.3756031,44.9809917" id="Fill-76-Copy-4" fill="#389BFF"></path>
        <path d="M93.6885802,44.9809917 C93.479771,45.1644628 93.2250382,45.2561983 92.9236641,45.2561983 L75.7022901,45.2561983 C75.400916,45.2561983 75.1461832,45.1644628 74.9380916,44.9809917 C74.73,44.7975207 74.6259542,44.5834711 74.6259542,44.338843 L74.6259542,29.661157 C74.6259542,29.4042975 74.73,29.1871901 74.9380916,29.0098347 C75.1461832,28.8330909 75.400916,28.7438017 75.7022901,28.7438017 L92.9236641,28.7438017 C93.2250382,28.7438017 93.479771,28.8330909 93.6885802,29.0098347 C93.8959542,29.1871901 94,29.4042975 94,29.661157 L94,44.338843 C94,44.5834711 93.8959542,44.7975207 93.6885802,44.9809917" id="Fill-76-Copy-3" fill="#389BFF"></path>
        <path d="M19.062626,73.7247934 C18.8538168,73.9082645 18.599084,74 18.2977099,74 L1.07633588,74 C0.774961832,74 0.520229008,73.9082645 0.312137405,73.7247934 C0.104045802,73.5413223 0,73.3272727 0,73.0826446 L0,58.4049587 C0,58.1480992 0.104045802,57.9309917 0.312137405,57.7536364 C0.520229008,57.5768926 0.774961832,57.4876033 1.07633588,57.4876033 L18.2977099,57.4876033 C18.599084,57.4876033 18.8538168,57.5768926 19.062626,57.7536364 C19.27,57.9309917 19.3740458,58.1480992 19.3740458,58.4049587 L19.3740458,73.0826446 C19.3740458,73.3272727 19.27,73.5413223 19.062626,73.7247934" id="Fill-76-Copy-8" fill="#389BFF"></path>
        <path d="M56.3756031,73.7247934 C56.1667939,73.9082645 55.9120611,74 55.610687,74 L38.389313,74 C38.0879389,74 37.8332061,73.9082645 37.6251145,73.7247934 C37.4170229,73.5413223 37.3129771,73.3272727 37.3129771,73.0826446 L37.3129771,58.4049587 C37.3129771,58.1480992 37.4170229,57.9309917 37.6251145,57.7536364 C37.8332061,57.5768926 38.0879389,57.4876033 38.389313,57.4876033 L55.610687,57.4876033 C55.9120611,57.4876033 56.1667939,57.5768926 56.3756031,57.7536364 C56.5829771,57.9309917 56.6870229,58.1480992 56.6870229,58.4049587 L56.6870229,73.0826446 C56.6870229,73.3272727 56.5829771,73.5413223 56.3756031,73.7247934" id="Fill-76-Copy-7" fill="#389BFF"></path>
        <path d="M93.6885802,73.7247934 C93.479771,73.9082645 93.2250382,74 92.9236641,74 L75.7022901,74 C75.400916,74 75.1461832,73.9082645 74.9380916,73.7247934 C74.73,73.5413223 74.6259542,73.3272727 74.6259542,73.0826446 L74.6259542,58.4049587 C74.6259542,58.1480992 74.73,57.9309917 74.9380916,57.7536364 C75.1461832,57.5768926 75.400916,57.4876033 75.7022901,57.4876033 L92.9236641,57.4876033 C93.2250382,57.4876033 93.479771,57.5768926 93.6885802,57.7536364 C93.8959542,57.9309917 94,58.1480992 94,58.4049587 L94,73.0826446 C94,73.3272727 93.8959542,73.5413223 93.6885802,73.7247934" id="Fill-76-Copy-6" fill="#389BFF"></path>
        <path d="M85.0305344,16.2066116 L85.0305344,29.0495868" id="Line" stroke="#389BFF" stroke-linecap="square"></path>
        <path d="M9.6870229,45.5619835 L9.6870229,58.4049587" id="Line-Copy-5" stroke="#389BFF" stroke-linecap="square"></path>
        <path d="M57.0458015,8.8677686 L75.7022901,8.8677686" id="Line" stroke="#389BFF" stroke-linecap="square"></path>
        <path d="M55.610687,38.2231405 L74.2671756,38.2231405" id="Line-Copy-3" stroke="#389BFF" stroke-linecap="square"></path>
        <path d="M19.0152672,38.2231405 L37.6717557,38.2231405" id="Line-Copy-4" stroke="#389BFF" stroke-linecap="square"></path>
        <path d="M19.0152672,65.7438017 L37.6717557,65.7438017" id="Line-Copy-6" stroke="#389BFF" stroke-linecap="square"></path>
        <path d="M56.3282443,65.7438017 L74.9847328,65.7438017" id="Line-Copy-7" stroke="#389BFF" stroke-linecap="square"></path>
        <path d="M19.0152672,8.8677686 L37.6717557,8.8677686" id="Line" stroke="#389BFF" stroke-linecap="square"></path>
    </g>
</svg>