
<svg width="101px" height="78px" viewBox="44 42 101 78" version="1.1" xmlns="http://www.w3.org/2000/svg" xmlns:xlink="http://www.w3.org/1999/xlink">
    <!-- Generator: Sketch 42 (36781) - http://www.bohemiancoding.com/sketch -->
    <desc>Created with Sketch.</desc>
    <defs></defs>
    <g id="docker-swarm" stroke="none" stroke-width="1" fill="none" fill-rule="evenodd" transform="translate(47.000000, 44.000000)">
        <polygon id="Polygon-Copy-2" stroke="#389BFF" stroke-width="3" points="45.3450704 0 58.915493 6.71238938 58.915493 20.1371681 45.3450704 26.8495575 31.7746479 20.1371681 31.7746479 6.71238938"></polygon>
        <polygon id="Polygon-Copy-3" stroke="#389BFF" stroke-width="3" fill="#389BFF" points="28.7957746 23.5752212 42.3661972 30.2876106 42.3661972 43.7123894 28.7957746 50.4247788 15.2253521 43.7123894 15.2253521 30.2876106"></polygon>
        <polygon id="Polygon-Copy-7" stroke="#389BFF" stroke-width="3" points="13.5704225 0 27.1408451 6.71238938 27.1408451 20.1371681 13.5704225 26.8495575 1.64313008e-14 20.1371681 7.54951657e-15 6.71238938"></polygon>
        <g id="Group-2" transform="translate(64.584507, 48.500000) scale(1, -1) translate(-64.584507, -48.500000) translate(35.084507, 23.000000)" stroke-width="3" stroke="#389BFF">
            <polygon id="Polygon-Copy-10" points="45.3450704 0 58.915493 6.71238938 58.915493 20.1371681 45.3450704 26.8495575 31.7746479 20.1371681 31.7746479 6.71238938"></polygon>
            <polygon id="Polygon-Copy-9" fill="#389BFF" points="28.7957746 23.5752212 42.3661972 30.2876106 42.3661972 43.7123894 28.7957746 50.4247788 15.2253521 43.7123894 15.2253521 30.2876106"></polygon>
            <polygon id="Polygon-Copy-8" points="13.5704225 0 27.1408451 6.71238938 27.1408451 20.1371681 13.5704225 26.8495575 1.64313008e-14 20.1371681 7.54951657e-15 6.71238938"></polygon>
        </g>
    </g>
</svg>