<svg id="Layer_1" data-name="Layer 1" xmlns="http://www.w3.org/2000/svg" viewBox="0 0 61 61"><defs><style>.cls-1{fill:#389BFF;fill-rule:evenodd;}</style></defs><title>Github Mark</title><path class="cls-1" d="M31.11,6.12a25,25,0,0,0-7.9,48.72c1.25.23,1.71-.54,1.71-1.21s0-2.17,0-4.25c-7,1.51-8.42-3.35-8.42-3.35-1.14-2.89-2.78-3.66-2.78-3.66-2.27-1.55.17-1.52.17-1.52a5.25,5.25,0,0,1,3.83,2.58c2.23,3.82,5.85,2.72,7.28,2.08a5.34,5.34,0,0,1,1.59-3.34C21,41.54,15.16,39.39,15.16,29.81a9.66,9.66,0,0,1,2.57-6.71A9,9,0,0,1,18,16.49s2.1-.67,6.87,2.56a23.7,23.7,0,0,1,12.52,0c4.77-3.24,6.87-2.56,6.87-2.56a9,9,0,0,1,.25,6.62,9.65,9.65,0,0,1,2.57,6.71c0,9.6-5.85,11.72-11.41,12.34a6,6,0,0,1,1.7,4.63c0,3.34,0,6,0,6.86,0,.67.45,1.45,1.72,1.2A25,25,0,0,0,31.11,6.12Z"/></svg>