
<svg width="95px" height="77px" viewBox="0 -2 95 77" version="1.1" xmlns="http://www.w3.org/2000/svg" xmlns:xlink="http://www.w3.org/1999/xlink">
    <!-- Generator: Sketch 42 (36781) - http://www.bohemiancoding.com/sketch -->
    <desc>Created with Sketch.</desc>
    <defs>
        <rect id="path-1" x="71.3103448" y="31.5588235" width="22.6896552" height="19.0441176" rx="4"></rect>
        <mask id="mask-2" maskContentUnits="userSpaceOnUse" maskUnits="objectBoundingBox" x="0" y="0" width="22.6896552" height="19.0441176" fill="white">
            <use xlink:href="#path-1"></use>
        </mask>
        <rect id="path-3" x="35.6551724" y="31.5588235" width="22.6896552" height="19.0441176" rx="4"></rect>
        <mask id="mask-4" maskContentUnits="userSpaceOnUse" maskUnits="objectBoundingBox" x="0" y="0" width="22.6896552" height="19.0441176" fill="white">
            <use xlink:href="#path-3"></use>
        </mask>
        <rect id="path-5" x="0" y="31.5588235" width="22.6896552" height="19.0441176" rx="4"></rect>
        <mask id="mask-6" maskContentUnits="userSpaceOnUse" maskUnits="objectBoundingBox" x="0" y="0" width="22.6896552" height="19.0441176" fill="white">
            <use xlink:href="#path-5"></use>
        </mask>
        <path d="M9.4000749,0 C14.3996765,0 18.6273546,1.52912989 18.7704143,3.35960251 C18.6273546,5.18990867 14.3996765,6.71942695 9.4000749,6.71942695 C4.40032351,6.71942695 0.17301992,5.19024158 0.0297354582,3.35960251 C0.17301992,1.52912989 4.40032351,0 9.4000749,0 Z" id="path-7"></path>
        <mask id="mask-8" maskContentUnits="userSpaceOnUse" maskUnits="objectBoundingBox" x="0" y="0" width="18.7406789" height="6.71942695" fill="white">
            <use xlink:href="#path-7"></use>
        </mask>
        <path d="M18.7838964,13.3578448 C18.7838964,15.2303201 14.4869355,16.8122723 9.4000749,16.8122723 C4.31321434,16.8122723 0.0162533865,15.2303201 0.0162533865,13.3578448 L0.0162533865,11.7059806 C1.62279203,13.1349588 5.17591713,14.106846 9.4000749,14.106846 C13.6242327,14.106846 17.1772829,13.1346814 18.7838964,11.7059806 L18.7838964,13.3578448 Z" id="path-9"></path>
        <mask id="mask-10" maskContentUnits="userSpaceOnUse" maskUnits="objectBoundingBox" x="0" y="0" width="18.767643" height="5.10629175" fill="white">
            <use xlink:href="#path-9"></use>
        </mask>
        <path d="M18.7838964,9.97011107 C18.7838964,11.8425309 14.4869355,13.4245386 9.4000749,13.4245386 C4.31321434,13.4245386 0.0162533865,11.8425309 0.0162533865,9.97011107 L0.0162533865,8.24955558 C1.62279203,9.6782009 5.17591713,10.6498107 9.4000749,10.6498107 C13.6242327,10.6498107 17.1772829,9.67759056 18.7838964,8.24955558 L18.7838964,9.97011107 Z" id="path-11"></path>
        <mask id="mask-12" maskContentUnits="userSpaceOnUse" maskUnits="objectBoundingBox" x="0" y="0" width="18.767643" height="5.17498302" fill="white">
            <use xlink:href="#path-11"></use>
        </mask>
        <path d="M18.7838964,6.51296473 C18.7838964,8.3854955 14.4869355,9.96733678 9.4000749,9.96733678 C4.31321434,9.96733678 0.0162533865,8.38544002 0.0162533865,6.51296473 L0.0162533865,5.00120187 C1.62279203,6.4301801 5.17591713,7.40140146 9.4000749,7.40140146 C13.6242327,7.40140146 17.1772829,6.42984718 18.7838964,5.00120187 L18.7838964,6.51296473 Z" id="path-13"></path>
        <mask id="mask-14" maskContentUnits="userSpaceOnUse" maskUnits="objectBoundingBox" x="0" y="0" width="18.767643" height="4.96613492" fill="white">
            <use xlink:href="#path-13"></use>
        </mask>
        <path d="M9.4,0.187418301 C14.482963,0.187418301 18.6259259,1.06203704 18.6259259,2.12407407 C18.6259259,3.21734749 14.482963,4.06072985 9.4,4.06072985 C4.31703704,4.06072985 0.174074074,3.18611111 0.174074074,2.12407407 C0.174074074,1.06203704 4.31703704,0.187418301 9.4,0.187418301 Z" id="path-15"></path>
        <mask id="mask-16" maskContentUnits="userSpaceOnUse" maskUnits="objectBoundingBox" x="0" y="0" width="18.4518519" height="3.87331155" fill="white">
            <use xlink:href="#path-15"></use>
        </mask>
        <path d="M9.4,5.40389434 C14.1348148,5.40389434 18.0688889,4.65422113 18.5562963,3.68589325 L15.5274074,15.2433551 C15.5274074,15.9617919 12.777037,16.5240468 9.36518519,16.5240468 C5.95333333,16.5240468 3.20296296,15.9617919 3.20296296,15.2433551 L0.174074074,3.68589325 C0.731111111,4.65422113 4.66518519,5.40389434 9.4,5.40389434 Z" id="path-17"></path>
        <mask id="mask-18" maskContentUnits="userSpaceOnUse" maskUnits="objectBoundingBox" x="0" y="0" width="18.3822222" height="12.8381536" fill="white">
            <use xlink:href="#path-17"></use>
        </mask>
    </defs>
    <g id="icon" stroke="none" stroke-width="1" fill="none" fill-rule="evenodd">
        <use id="Rectangle-Copy-3" stroke="#389BFF" mask="url(#mask-2)" stroke-width="6" xlink:href="#path-1"></use>
        <use id="Rectangle-Copy-2" stroke="#389BFF" mask="url(#mask-4)" stroke-width="6" xlink:href="#path-3"></use>
        <use id="Rectangle-Copy" stroke="#389BFF" mask="url(#mask-6)" stroke-width="6" xlink:href="#path-5"></use>
        <g id="data-storage-device" transform="translate(1.296552, 57.132353)" stroke-width="6" stroke="#389BFF" fill-rule="nonzero">
            <g id="Capa_1">
                <g id="Group">
                    <use id="Shape" mask="url(#mask-8)" xlink:href="#path-7"></use>
                    <use id="Shape" mask="url(#mask-10)" xlink:href="#path-9"></use>
                    <use id="Shape" mask="url(#mask-12)" xlink:href="#path-11"></use>
                    <use id="Shape" mask="url(#mask-14)" xlink:href="#path-13"></use>
                </g>
            </g>
        </g>
        <g id="Storage-Content-Delivery_AmazonS3_bucket" transform="translate(72.606897, 57.132353)" stroke-width="4" stroke="#389BFF" fill-rule="nonzero">
            <g id="Layer_1">
                <use id="Shape" mask="url(#mask-16)" xlink:href="#path-15"></use>
                <use id="Shape" mask="url(#mask-18)" xlink:href="#path-17"></use>
            </g>
        </g>
        <g id="General_AWScloud-Copy" transform="translate(28.524138, 0.000000)" stroke-width="3" stroke="#389BFF">
            <g id="Layer_1">
                <path d="M14.5237735,0 C18.4360815,0 21.8124569,1.93280051 23.3130682,4.76457801 C24.1169671,4.31508951 25.0280525,4.04539642 26.0999177,4.04539642 C28.7795807,4.04539642 30.9233111,5.79840153 30.9769044,8.00089514 C34.7820259,8.27058824 37.7296552,11.32711 37.7296552,13.7992967 L37.7296552,14.3386829 C37.7296552,16.990665 34.2996865,19.6426471 30.065819,19.6426471 L7.61024295,19.6426471 C3.37637539,19.6426471 0,16.990665 0,14.3386829 L0,13.7992967 C0,11.7765985 2.03654389,8.98976982 4.87698668,8.31553708 L4.87698668,8.09079284 C4.87698668,3.59590793 9.16444749,0 14.5237735,0 L14.5237735,0 Z" id="Shape"></path>
            </g>
        </g>
        <g id="lines" transform="translate(10.372414, 19.588235)" stroke="#389BFF" stroke-linecap="square">
            <path d="M36.6275862,0.272058824 L36.6275862,12.2426471" id="Line"></path>
            <path d="M36.6275862,5.82205882 L72.2827586,5.82205882" id="Line"></path>
            <path d="M72.2827586,5.71323529 L72.2827586,12.2426471" id="Line"></path>
            <path d="M1.62068966,5.82205882 L37.2758621,5.82205882" id="Line-Copy-2"></path>
            <path d="M0.972413793,5.71323529 L0.972413793,12.2426471" id="Line-Copy"></path>
        </g>
        <g id="lines-copy" transform="translate(47.000000, 54.139706) scale(1, -1) translate(-47.000000, -54.139706) translate(10.372414, 50.602941)" stroke="#389BFF" stroke-linecap="square">
            <path d="M72.2827586,0.272058824 L72.2827586,6.80147059" id="Line"></path>
            <path d="M0.972413793,0.272058824 L0.972413793,6.80147059" id="Line-Copy"></path>
        </g>
    </g>
</svg>