
<svg width="153px" height="92px" viewBox="684 46 153 92" version="1.1" xmlns="http://www.w3.org/2000/svg" xmlns:xlink="http://www.w3.org/1999/xlink">
    <!-- Generator: Sketch 40.3 (33839) - http://www.bohemiancoding.com/sketch -->
    <desc>Created with Sketch.</desc>
    <defs>
        <rect id="path-1" x="0" y="23.7307536" width="151.524896" height="66.7427446"></rect>
    </defs>
    <g id="cpu" stroke="none" stroke-width="1" fill="none" fill-rule="evenodd" transform="translate(684.668050, 46.459364)">
        <text id="200-Mb" font-family="AvenirNext-Medium, Avenir Next" font-size="12" font-weight="400" fill="#71848B">
            <tspan x="8.17222972" y="12">200 Mb</tspan>
        </text>
        <mask id="mask-2" fill="white">
            <use xlink:href="#path-1"></use>
        </mask>
        <g id="mask"></g>
        <polyline id="Path-35" fill-opacity="0.15" fill="#00D46A" mask="url(#mask-2)" points="-1.06822488 80.9702899 11.8238403 75.9020344 20.9483041 83.0713203 33.5622461 77.2607882 48.3645577 79.1108013 57.5303367 69.5344188 63.780149 70.4810765 73.6645875 64.4850231 78.1717078 67.6411034 84.1368115 64.3752175 90.5174978 72.3577546 96.3310631 51.7375868 103.320199 48.250426 113.053099 32.774486 120.455522 59.2792377 125.571092 48.250426 132.103317 53.2848481 137.765344 43.5969962 151.24308 40.5357481 151.24308 171.715656 -26.4561401 171.715656 -34.2152992 88.8540106"></polyline>
        <polyline id="line-chart" stroke="#00D46A" stroke-width="2" stroke-linecap="round" stroke-linejoin="round" fill-opacity="0" fill="#D8D8D8" mask="url(#mask-2)" points="-1.29931516 80.6367039 11.7646307 75.7699765 20.4960977 83.0519178 32.6755798 76.8796367 47.8829847 79.1108013 57.0487638 69.5344188 63.298576 70.4810765 73.1830146 64.4850231 77.6901349 67.6411034 83.6552385 64.3752175 90.0359249 72.3577546 95.8494902 51.7375868 102.838626 48.250426 112.571526 32.774486 119.973949 59.2792377 125.089519 48.250426 131.621744 53.2848481 137.283771 43.5969962 150.761507 40.5357481"></polyline>
    </g>
</svg>