
<svg width="1018px" height="188px" viewBox="370 604 1018 188" version="1.1" xmlns="http://www.w3.org/2000/svg" xmlns:xlink="http://www.w3.org/1999/xlink">
    <!-- Generator: Sketch 40.3 (33839) - http://www.bohemiancoding.com/sketch -->
    <desc>Created with Sketch.</desc>
    <defs></defs>
    <g id="peers" stroke="none" stroke-width="1" fill="none" fill-rule="evenodd" transform="translate(370.000000, 604.000000)">
        <g id="line-chart" transform="translate(0.000000, 37.000000)">
            <g id="chart">
                <g id="lines">
                    <rect id="line" fill="#DDDDDD" x="0" y="126.317406" width="1018" height="0.576791809"></rect>
                    <rect id="line" fill="#EFEFEF" x="936.56" y="0" width="0.925454545" height="125.740614"></rect>
                    <rect id="line" fill="#EFEFEF" x="853.269091" y="1.15358362" width="0.925454545" height="125.740614"></rect>
                    <rect id="line" fill="#EFEFEF" x="769.978182" y="1.15358362" width="0.925454545" height="125.740614"></rect>
                    <rect id="line" fill="#EFEFEF" x="686.687273" y="1.15358362" width="0.925454545" height="125.740614"></rect>
                    <rect id="line" fill="#EFEFEF" x="596.918182" y="0" width="0.925454545" height="125.740614"></rect>
                    <rect id="line" fill="#EFEFEF" x="513.627273" y="1.15358362" width="0.925454545" height="125.740614"></rect>
                    <rect id="line" fill="#EFEFEF" x="430.336364" y="1.15358362" width="0.925454545" height="125.740614"></rect>
                    <rect id="line" fill="#EFEFEF" x="347.045455" y="1.15358362" width="0.925454545" height="125.740614"></rect>
                    <rect id="line" fill="#EFEFEF" x="263.754545" y="1.15358362" width="0.925454545" height="125.740614"></rect>
                    <rect id="line" fill="#EFEFEF" x="180.463636" y="1.15358362" width="0.925454545" height="125.740614"></rect>
                    <rect id="line" fill="#EFEFEF" x="97.1727273" y="1.15358362" width="0.925454545" height="125.740614"></rect>
                </g>
                <g id="y-values" transform="translate(0.000000, 3.460751)" font-size="14" font-family="AvenirNext-Medium, Avenir Next" line-spacing="24" fill="#666666" font-weight="400">
                    <text id="5-4-3-2-1">
                        <tspan x="0" y="14">5</tspan>
                        <tspan x="0" y="38">4</tspan>
                        <tspan x="0" y="62">3</tspan>
                        <tspan x="0" y="86">2</tspan>
                        <tspan x="0" y="110">1</tspan>
                    </text>
                </g>
                <g id="x-values" transform="translate(50.900000, 134.969283)" font-size="12" font-family="AvenirNext-Medium, Avenir Next" line-spacing="24" fill="#666666" font-weight="400">
                    <text id="7:15">
                        <tspan x="875.926364" y="12">9:25</tspan>
                    </text>
                    <text id="7:10">
                        <tspan x="792.635455" y="12">8:25</tspan>
                    </text>
                    <text id="8:25">
                        <tspan x="709.344545" y="12">8:25</tspan>
                    </text>
                    <text id="6:55">
                        <tspan x="626.053636" y="12">7:25</tspan>
                    </text>
                    <text id="6:25">
                        <tspan x="533.508182" y="12">6:25</tspan>
                    </text>
                    <text id="5:25">
                        <tspan x="450.217273" y="12">5:25</tspan>
                    </text>
                    <text id="4:25">
                        <tspan x="366.926364" y="12">4:25</tspan>
                    </text>
                    <text id="3:25">
                        <tspan x="283.635455" y="12">3:25</tspan>
                    </text>
                    <text id="2:25">
                        <tspan x="200.344545" y="12">2:25</tspan>
                    </text>
                    <text id="1:25">
                        <tspan x="117.053636" y="12">1:25</tspan>
                    </text>
                    <text id="12:25">
                        <tspan x="30.1927273" y="12">12:25</tspan>
                    </text>
                </g>
            </g>
            <g id="data" transform="translate(93.070655, 7.996587)" stroke-width="2">
                <g id="points" transform="translate(0.400254, 0.000000)" stroke="#FFFFFF" fill="#00A843">
                    <ellipse id="point" cx="504.340961" cy="77" rx="4.6590389" ry="4"></ellipse>
                    <ellipse id="point" cx="594.02746" cy="52" rx="4.6590389" ry="4"></ellipse>
                    <ellipse id="point" cx="676.7254" cy="29" rx="4.6590389" ry="4"></ellipse>
                    <ellipse id="point" cx="760.588101" cy="29" rx="4.6590389" ry="4"></ellipse>
                    <ellipse id="point" cx="844.450801" cy="4" rx="4.6590389" ry="4"></ellipse>
                    <ellipse id="point" cx="420.478261" cy="29" rx="4.6590389" ry="4"></ellipse>
                    <ellipse id="point" cx="337.78032" cy="4" rx="4.6590389" ry="4"></ellipse>
                    <ellipse id="point" cx="253.91762" cy="4" rx="4.6590389" ry="4"></ellipse>
                    <ellipse id="point" cx="170.05492" cy="77" rx="4.6590389" ry="4"></ellipse>
                    <ellipse id="point" cx="87.3569794" cy="52" rx="4.6590389" ry="4"></ellipse>
                    <ellipse id="point" cx="4.6590389" cy="29" rx="4.6590389" ry="4"></ellipse>
                </g>
                <g id="path" transform="translate(3.494279, 3.307167)" stroke="#00A843">
                    <polyline points="0.6925026 25.6962457 83.972823 48.6962457 166.670763 73.6962457 250.533464 0.696245734 334.396164 0.696245734 417.094104 25.6962457 500.956805 73.6962457 591.225683 48.6962457 673.923624 25.6962457 757.203944 25.6962457 841.649024 0.696245734"></polyline>
                </g>
            </g>
        </g>
    </g>
</svg>