
<svg width="345px" height="134px" viewBox="0 0 345 134" version="1.1" xmlns="http://www.w3.org/2000/svg" xmlns:xlink="http://www.w3.org/1999/xlink">
    <!-- Generator: Sketch 41 (35326) - http://www.bohemiancoding.com/sketch -->
    <desc>Created with Sketch.</desc>
    <defs></defs>
    <g id="line-chart" stroke="none" stroke-width="1" fill="none" fill-rule="evenodd" transform="translate(0.257947, 0.000000)">
        <g id="chart">
            <g id="lines">
                <rect id="line" fill="#DDDDDD" x="0" y="128.195122" width="343.429844" height="0.585365854"></rect>
                <rect id="line" fill="#EFEFEF" x="315.955456" y="0" width="0.60517967" height="127.609756"></rect>
                <rect id="line" fill="#EFEFEF" x="259.757845" y="1.17073171" width="0.60517967" height="127.609756"></rect>
                <rect id="line" fill="#EFEFEF" x="201.374772" y="0" width="0.60517967" height="127.609756"></rect>
                <rect id="line" fill="#EFEFEF" x="145.177161" y="1.17073171" width="0.60517967" height="127.609756"></rect>
                <rect id="line" fill="#EFEFEF" x="88.9795504" y="1.17073171" width="0.60517967" height="127.609756"></rect>
                <rect id="line" fill="#EFEFEF" x="32.7819396" y="1.17073171" width="0.60517967" height="127.609756"></rect>
            </g>
            <g id="y-values" transform="translate(0.000000, 4.682927)" font-size="12" font-family="AvenirNext-Medium, Avenir Next" line-spacing="24" fill="#666666" font-weight="400">
                <text id="0">
                    <tspan x="0" y="117">0</tspan>
                </text>
                <text id="30">
                    <tspan x="0" y="68.7804878">30</tspan>
                </text>
                <text id="50">
                    <tspan x="0" y="12">50</tspan>
                </text>
            </g>
        </g>
        <g id="data" transform="translate(31.533104, 32.780488)" stroke-width="2">
            <g id="points" stroke="#FFFFFF" fill="#4990E2">
                <ellipse id="point" cx="169.841668" cy="37.4634146" rx="1.2488358" ry="2.34146341"></ellipse>
                <ellipse id="point" cx="200.438145" cy="49.7560976" rx="1.2488358" ry="2.34146341"></ellipse>
                <ellipse id="point" cx="228.536951" cy="2.34146341" rx="1.2488358" ry="2.34146341"></ellipse>
                <ellipse id="point" cx="256.323547" cy="10.5365854" rx="1.2488358" ry="2.34146341"></ellipse>
                <ellipse id="point" cx="284.422352" cy="19.902439" rx="1.2488358" ry="2.34146341"></ellipse>
                <ellipse id="point" cx="141.742863" cy="76.097561" rx="1.2488358" ry="2.34146341"></ellipse>
                <ellipse id="point" cx="113.644057" cy="14.6341463" rx="1.2488358" ry="2.34146341"></ellipse>
                <ellipse id="point" cx="85.545252" cy="36.8780488" rx="1.2488358" ry="2.34146341"></ellipse>
                <ellipse id="point" cx="57.4464466" cy="79.6097561" rx="1.2488358" ry="2.34146341"></ellipse>
                <ellipse id="point" cx="29.3476412" cy="45.0731707" rx="1.2488358" ry="2.34146341"></ellipse>
                <ellipse id="point" cx="1.2488358" cy="29.8536585" rx="1.2488358" ry="2.34146341"></ellipse>
            </g>
            <g id="path" transform="translate(1.248836, 2.341463)" stroke="#00D46A">
                <path d="M0,27.5121951 C8.9122075,27.512194 15.9075012,42.731705 28.0988054,42.7317073 C40.2901096,42.7317096 47.1475433,77.2682918 56.1976108,77.2682927 C65.2476783,77.2682936 71.8480446,34.5365879 84.2964162,34.5365854 C96.7447878,34.5365828 103.104955,12.2318672 112.395222,12.231867 C121.685488,12.2318668 128.197387,73.7560978 140.494027,73.7560976 C152.790667,73.7560973 159.693293,35.1219503 168.592832,35.1219512 C177.492371,35.1219521 193.32228,47.7073191 199.189309,47.7073171 C205.056338,47.7073151 215.155493,0 227.288115,0 C239.420737,0 243.195639,8.19512195 255.074711,8.19512195 C266.953783,8.19512195 283.173517,17.5609756 283.173517,17.5609756"></path>
            </g>
        </g>
    </g>
</svg>