
<svg width="54px" height="56px" viewBox="0 0 54 56" version="1.1" xmlns="http://www.w3.org/2000/svg" xmlns:xlink="http://www.w3.org/1999/xlink">
    <!-- Generator: Sketch 41.2 (35397) - http://www.bohemiancoding.com/sketch -->
    <desc>Created with Sketch.</desc>
    <defs></defs>
    <path d="M50.6,55.7 L26.6,55.7 C24.9,55.7 23.6,54.4 23.6,52.7 L23.6,28.7 C23.6,27 24.9,25.7 26.6,25.7 L50.6,25.7 C52.3,25.7 53.6,27 53.6,28.7 L53.6,52.7 C53.6,54.4 52.2,55.7 50.6,55.7 Z" id="Shape" stroke="none" fill="#7D7C7C" fill-rule="evenodd"></path>
    <path d="M27.5,2.7 L3.5,2.7 C1.8,2.7 0.5,4 0.5,5.7 L0.5,29.7 C0.5,31.4 1.8,32.7 3.5,32.7 L9,32.7 L9,17.2 C9,13.9 11.7,11.2 15,11.2 L30.5,11.2 L30.5,5.7 C30.5,4.1 29.1,2.7 27.5,2.7 Z" id="Shape" stroke="none" fill="#7D7C7C" fill-rule="evenodd"></path>
    <path d="M39,14.2 L15,14.2 C13.3,14.2 12,15.5 12,17.2 L12,41.2 C12,42.9 13.3,44.2 15,44.2 L20.6,44.2 L20.6,28.7 C20.6,25.4 23.3,22.7 26.6,22.7 L42,22.7 L42,17.2 C42,15.6 40.7,14.2 39,14.2 Z" id="Shape" stroke="none" fill="#7D7C7C" fill-rule="evenodd"></path>
    <path d="M50.6,53.3 L26.6,53.3 C24.9,53.3 23.6,52 23.6,50.3 L23.6,26.3 C23.6,24.6 24.9,23.3 26.6,23.3 L50.6,23.3 C52.3,23.3 53.6,24.6 53.6,26.3 L53.6,50.3 C53.6,51.9 52.2,53.3 50.6,53.3 Z" id="Shape" stroke="none" fill="#D2D3D3" fill-rule="evenodd"></path>
    <path d="M27.5,0.3 L3.5,0.3 C1.8,0.3 0.5,1.6 0.5,3.3 L0.5,27.3 C0.5,29 1.8,30.3 3.5,30.3 L9,30.3 L9,14.8 C9,11.5 11.7,8.8 15,8.8 L30.5,8.8 L30.5,3.3 C30.5,1.6 29.1,0.3 27.5,0.3 Z" id="Shape" stroke="none" fill="#D2D3D3" fill-rule="evenodd"></path>
    <path d="M39,11.8 L15,11.8 C13.3,11.8 12,13.1 12,14.8 L12,38.8 C12,40.5 13.3,41.8 15,41.8 L20.6,41.8 L20.6,26.2 C20.6,22.9 23.3,20.2 26.6,20.2 L42,20.2 L42,14.7 C42,13.1 40.7,11.8 39,11.8 Z" id="Shape" stroke="none" fill="#D2D3D3" fill-rule="evenodd"></path>
</svg>