
<svg width="54px" height="56px" viewBox="0 0 54 56" version="1.1" xmlns="http://www.w3.org/2000/svg" xmlns:xlink="http://www.w3.org/1999/xlink">
    <!-- Generator: Sketch 41.2 (35397) - http://www.bohemiancoding.com/sketch -->
    <desc>Created with Sketch.</desc>
    <defs></defs>
    <path d="M44.4,55.7 L9.6,55.7 C4.6,55.7 0.5,51.6 0.5,46.6 L0.5,11.9 C0.5,6.9 4.6,2.8 9.6,2.8 L44.4,2.8 C49.4,2.8 53.5,6.9 53.5,11.9 L53.5,46.7 C53.5,51.7 49.4,55.7 44.4,55.7 L44.4,55.7 Z" id="Shape" stroke="none" fill="#7D7C7C" fill-rule="evenodd"></path>
    <path d="M44.4,53.3 L9.6,53.3 C4.6,53.3 0.5,49.2 0.5,44.2 L0.5,9.4 C0.5,4.4 4.6,0.3 9.6,0.3 L44.4,0.3 C49.4,0.3 53.5,4.4 53.5,9.4 L53.5,44.2 C53.5,49.2 49.4,53.3 44.4,53.3 L44.4,53.3 Z" id="Shape" stroke="none" fill="#D2D3D3" fill-rule="evenodd"></path>
</svg>