
<svg width="60px" height="73px" viewBox="0 0 60 73" version="1.1" xmlns="http://www.w3.org/2000/svg" xmlns:xlink="http://www.w3.org/1999/xlink">
    <!-- Generator: Sketch 41.2 (35397) - http://www.bohemiancoding.com/sketch -->
    <desc>Created with Sketch.</desc>
    <defs></defs>
    <polygon id="Shape" stroke="none" fill="#F4F4F4" fill-rule="evenodd" points="39.5 41 30 40.4 0.2 42.3 8.6 61.3"></polygon>
    <polygon id="Shape" stroke="none" fill="#7D7C7C" fill-rule="evenodd" points="8.5 10.7 0.2 14.9 0.2 36 8.5 36 20.3 25.3"></polygon>
    <polygon id="Shape" stroke="none" fill="#D2D3D3" fill-rule="evenodd" points="39.5 41 8.6 43.6 8.6 61.3 39.5 52.9"></polygon>
    <polygon id="Shape" stroke="none" fill="#D2D3D3" fill-rule="evenodd" points="23.6 36 8.5 36 8.5 10.7 23.6 14.8"></polygon>
    <polygon id="Shape" stroke="none" fill="#7D7C7C" fill-rule="evenodd" points="45.2 36 56 36 56 15.3 45.2 17"></polygon>
    <polygon id="Shape" stroke="none" fill="#7D7C7C" fill-rule="evenodd" points="24 19.1 33.8 9.4 56 22.2 45.2 23.7"></polygon>
    <polygon id="Shape" stroke="none" fill="#7D7C7C" fill-rule="evenodd" points="14.1 36 30 36 38.3 19.3 30 0 14.1 7.9"></polygon>
    <polygon id="Shape" stroke="none" fill="#D2D3D3" fill-rule="evenodd" points="30 0 30 36 38.9 36 38.9 17.1 56 22.2 56 36 59.8 36 59.8 14.9"></polygon>
    <polygon id="Shape" stroke="none" fill="#7D7C7C" fill-rule="evenodd" points="0.2 42.3 8.6 43.6 8.6 61.3 0.2 57.1"></polygon>
    <polygon id="Shape" stroke="none" fill="#F4F4F4" fill-rule="evenodd" points="59.8 42.3 45.4 41.4 14.1 44.4 30 72"></polygon>
    <polygon id="Shape" stroke="none" fill="#D2D3D3" fill-rule="evenodd" points="59.8 42.3 30 46.7 30 72 59.8 57.1"></polygon>
    <polygon id="Shape" stroke="none" fill="#7D7C7C" fill-rule="evenodd" points="14.1 44.4 30 46.7 30 72 14.1 64.1"></polygon>
</svg>